# Blender v2.76 (sub 0) OBJ File: 'Swords.blend'
# www.blender.org
mtllib BladeCutlassLarge.mtl
o Blade.CutlassLarge_Cube.011
v -0.240850 0.000000 0.270000
v -3.801391 20.182669 0.225000
v 0.231057 0.000000 0.270000
v -1.602500 20.001730 0.225000
v -0.240849 5.154128 0.270000
v -0.653228 10.208116 0.270000
v -1.735492 15.377189 0.270000
v -0.582126 15.377189 0.270000
v 0.177005 10.208117 0.270000
v 0.231057 5.122382 0.270000
v -2.950957 22.181192 0.180000
v -2.342005 22.046244 0.180000
v -2.950957 23.128445 0.180000
v -0.487178 10.208116 0.180000
v -0.812799 15.377189 0.180000
v -0.146468 0.000000 0.180000
v 0.136676 0.000000 0.180000
v -0.146468 5.154128 0.180000
v 0.136676 5.122382 0.180000
v 0.010961 10.208117 0.180000
v -1.504818 15.377189 0.180000
v -0.240850 0.000000 -0.270000
v -3.801391 20.182669 -0.225000
v -0.561517 0.000000 0.000000
v -4.488865 20.176073 0.000000
v 0.231057 0.000000 -0.270000
v -1.602500 20.001730 -0.225000
v 0.561517 0.000000 0.000000
v -0.995616 20.176073 0.000000
v -0.240849 5.154128 -0.270000
v -0.653228 10.208116 -0.270000
v -1.735492 15.377189 -0.270000
v -2.337122 15.377191 0.000000
v -1.220394 10.208116 0.000000
v -0.757361 5.125730 0.000000
v 0.039400 15.377191 0.000000
v 0.693094 10.208116 0.000000
v 0.747569 5.125730 0.000000
v -0.582126 15.377189 -0.270000
v 0.177005 10.208117 -0.270000
v 0.231057 5.122382 -0.270000
v -2.950957 22.181192 -0.180000
v -3.580957 22.309660 0.000000
v -2.342005 22.046244 -0.180000
v -1.767339 22.309660 0.000000
v -2.950957 23.128445 -0.180000
v -3.580957 25.532736 0.000000
v -0.487178 10.208116 -0.180000
v -0.812799 15.377189 -0.180000
v -0.146468 0.000000 -0.180000
v 0.136676 0.000000 -0.180000
v -0.146468 5.154128 -0.180000
v 0.136676 5.122382 -0.180000
v 0.010961 10.208117 -0.180000
v -1.504818 15.377189 -0.180000
vt 1.000000 0.000000
vt 1.000000 0.018255
vt 0.975124 0.014604
vt 0.975124 0.003651
vt 0.376503 0.608172
vt 0.327031 0.610121
vt 0.334836 0.603116
vt 0.348160 0.602304
vt 0.622640 0.616034
vt 0.655928 0.657890
vt 0.650413 0.658028
vt 0.612950 0.616285
vt 0.628797 0.658898
vt 0.574273 0.617352
vt 0.583929 0.617076
vt 0.634278 0.658736
vt 0.686884 0.700657
vt 0.692365 0.700495
vt 0.714376 0.699908
vt 0.708861 0.700046
vt 0.111608 0.587614
vt 0.103802 0.594619
vt 0.089133 0.594427
vt 0.097282 0.587119
vt 0.343944 0.599274
vt 0.559881 0.574007
vt 0.573302 0.573628
vt 0.138755 0.642977
vt 0.125690 0.626549
vt 0.138638 0.626181
vt 0.150671 0.642731
vt 0.127429 0.609335
vt 0.141166 0.608946
vt 0.120715 0.583772
vt 0.124406 0.575676
vt 0.101058 0.610054
vt 0.106706 0.627066
vt 0.094886 0.627373
vt 0.086826 0.610426
vt 0.627073 0.572176
vt 0.613617 0.572530
vt 0.153275 0.592670
vt 0.169007 0.592250
vt 0.124931 0.586802
vt 0.138751 0.585989
vt 0.169007 0.659254
vt 0.161695 0.659468
vt 0.143328 0.659953
vt 0.116261 0.643669
vt 0.128106 0.643372
vt 0.150905 0.659762
vt 0.333724 0.642460
vt 0.345114 0.642149
vt 0.359818 0.658533
vt 0.353486 0.658811
vt 0.329553 0.625407
vt 0.345377 0.624976
vt 0.382758 0.675024
vt 0.376284 0.675201
vt 0.692924 0.529715
vt 0.566874 0.534681
vt 0.105407 0.596915
vt 0.091082 0.596420
vt 0.082932 0.603728
vt 0.097602 0.603920
vt 0.132554 0.652278
vt 0.144470 0.652032
vt 0.132437 0.635482
vt 0.119489 0.635850
vt 0.134965 0.618247
vt 0.121229 0.618636
vt 0.114514 0.593073
vt 0.118205 0.584978
vt 0.094857 0.619355
vt 0.080625 0.619727
vt 0.088685 0.636674
vt 0.100506 0.636367
vt 0.162806 0.601551
vt 0.147074 0.601971
vt 0.118731 0.596104
vt 0.132550 0.595290
vt 0.155494 0.668769
vt 0.162806 0.668555
vt 0.137128 0.669255
vt 0.144704 0.669064
vt 0.121905 0.652674
vt 0.110060 0.652970
vn -0.000000 1.000000 -0.000000
vn 0.002500 0.022200 0.999800
vn 0.568100 0.042300 0.821900
vn -0.568600 -0.010000 0.822600
vn -0.690100 -0.000000 0.723700
vn 0.690100 -0.000000 0.723700
vn 0.284400 0.113100 0.952000
vn 0.000000 0.000000 1.000000
vn -0.412400 -0.063100 0.908800
vn -0.444900 -0.038400 0.894800
vn -0.417800 -0.088900 0.904200
vn 0.239400 0.134700 0.961500
vn 0.428100 0.058500 0.901800
vn 0.411700 0.083600 0.907500
vn -0.353700 -0.151000 0.923100
vn -0.274700 0.000000 0.961500
vn 0.362200 0.083400 0.928300
vn -0.280400 0.129700 0.951100
vn -0.541800 -0.010300 0.840500
vn 0.537600 -0.009800 0.843100
vn 0.463400 0.004900 0.886100
vn 0.358600 0.162800 0.919200
vn -0.362600 -0.071000 0.929300
vn -0.000600 -0.009700 1.000000
vn 0.002500 0.022200 -0.999800
vn 0.568100 0.042300 -0.821900
vn -0.568600 -0.010000 -0.822600
vn -0.690100 -0.000000 -0.723700
vn 0.690100 -0.000000 -0.723700
vn 0.284400 0.113100 -0.952000
vn 0.000000 0.000000 -1.000000
vn -0.412400 -0.063100 -0.908800
vn -0.444900 -0.038400 -0.894800
vn -0.417800 -0.088900 -0.904200
vn 0.239400 0.134700 -0.961500
vn 0.428100 0.058500 -0.901800
vn 0.411700 0.083600 -0.907500
vn -0.353700 -0.151000 -0.923100
vn -0.274700 0.000000 -0.961500
vn 0.362200 0.083400 -0.928300
vn -0.280400 0.129700 -0.951100
vn -0.541800 -0.010300 -0.840500
vn 0.537600 -0.009800 -0.843100
vn 0.463400 0.004900 -0.886100
vn 0.358600 0.162800 -0.919200
vn -0.362600 -0.071000 -0.929300
vn -0.000600 -0.009700 -1.000000
usemtl Material
s off
f 1/1/1 3/2/1 17/3/1 16/4/1
f 2/5/2 4/6/2 12/7/2 11/8/2
f 6/9/3 5/10/3 18/11/3 14/12/3
f 10/13/4 9/14/4 20/15/4 19/16/4
f 3/17/5 10/13/5 19/16/5 17/18/5
f 5/10/6 1/19/6 16/20/6 18/11/6
f 12/21/7 4/22/7 29/23/7 45/24/7
f 11/8/8 12/7/8 13/25/8
f 9/14/9 8/26/9 15/27/9 20/15/9
f 5/28/10 6/29/10 34/30/10 35/31/10
f 6/29/11 7/32/11 33/33/11 34/30/11
f 13/34/12 12/21/12 45/24/12 47/35/12
f 8/36/13 9/37/13 37/38/13 36/39/13
f 7/40/14 6/9/14 14/12/14 21/41/14
f 7/32/15 2/42/15 25/43/15 33/33/15
f 11/44/16 13/34/16 47/35/16 43/45/16
f 4/22/17 8/36/17 36/39/17 29/23/17
f 2/42/18 11/44/18 43/45/18 25/43/18
f 35/31/19 24/46/19 1/47/19 5/28/19
f 28/48/20 38/49/20 10/50/20 3/51/20
f 20/52/8 14/53/8 18/54/8 19/55/8
f 9/37/21 10/50/21 38/49/21 37/38/21
f 15/56/8 21/57/8 14/53/8 20/52/8
f 19/55/8 18/54/8 16/58/8 17/59/8
f 7/40/22 21/41/22 2/60/22
f 8/26/23 4/61/23 15/27/23
f 4/6/24 2/5/24 21/57/24 15/56/24
f 22/1/1 50/4/1 51/3/1 26/2/1
f 23/5/25 42/8/25 44/7/25 27/6/25
f 31/9/26 48/12/26 52/11/26 30/10/26
f 41/13/27 53/16/27 54/15/27 40/14/27
f 26/17/28 51/18/28 53/16/28 41/13/28
f 30/10/29 52/11/29 50/20/29 22/19/29
f 44/62/30 45/63/30 29/64/30 27/65/30
f 42/8/31 46/25/31 44/7/31
f 40/14/32 54/15/32 49/27/32 39/26/32
f 30/66/33 35/67/33 34/68/33 31/69/33
f 31/69/34 34/68/34 33/70/34 32/71/34
f 46/72/35 47/73/35 45/63/35 44/62/35
f 39/74/36 36/75/36 37/76/36 40/77/36
f 32/40/37 55/41/37 48/12/37 31/9/37
f 32/71/38 33/70/38 25/78/38 23/79/38
f 42/80/39 43/81/39 47/73/39 46/72/39
f 27/65/40 29/64/40 36/75/40 39/74/40
f 23/79/41 25/78/41 43/81/41 42/80/41
f 35/67/42 30/66/42 22/82/42 24/83/42
f 28/84/43 26/85/43 41/86/43 38/87/43
f 54/52/31 53/55/31 52/54/31 48/53/31
f 40/77/44 37/76/44 38/87/44 41/86/44
f 49/56/31 54/52/31 48/53/31 55/57/31
f 53/55/31 51/59/31 50/58/31 52/54/31
f 32/40/45 23/60/45 55/41/45
f 39/26/46 49/27/46 27/61/46
f 27/6/47 49/56/47 55/57/47 23/5/47
