# Blender v2.76 (sub 0) OBJ File: 'Swords.blend'
# www.blender.org
mtllib BladeCutlass.mtl
o Blade.Cutlass_Cube.016
v 0.932791 -0.000002 -0.250000
v 1.118507 4.373035 -0.250000
v 0.932791 -0.000002 0.250000
v 1.118507 4.373035 0.250000
v -1.067209 -0.000002 -0.000000
v -1.025939 4.373035 -0.000000
v 2.232802 7.365125 -0.250000
v 2.232802 7.365125 0.250000
v -0.076724 8.273069 -0.000000
v 3.672413 9.614840 -0.249999
v 3.672413 9.614840 0.250001
v 1.218440 11.410093 0.000000
v 4.789758 10.712240 -0.249999
v 4.789758 10.712240 0.250001
v 3.016744 13.724964 0.000000
v 5.048793 12.921274 -0.249999
v 5.048793 12.921274 0.250001
v 4.596426 14.654621 0.000001
v 6.940045 15.699593 0.000001
v -0.399194 4.373035 0.250000
v -0.399194 -0.000002 0.250000
v -0.399194 4.373035 -0.250000
v -0.399194 -0.000002 -0.250000
v 0.583037 8.103862 0.250000
v 0.583037 8.103862 -0.250000
v 1.780185 11.029373 0.250000
v 1.780185 11.029373 -0.250000
v 3.340153 13.091465 0.250001
v 3.340153 13.091465 -0.249999
v 4.754755 14.047951 0.250001
v 4.754755 14.047951 -0.249999
v 0.657202 10.050716 0.000000
v 0.225481 9.005041 0.000000
v 2.568712 7.890058 -0.250000
v 3.048582 8.639963 -0.250000
v 3.048582 8.639963 0.250000
v 2.568712 7.890059 0.250000
v 0.862372 8.786481 0.250000
v 1.261421 9.761652 0.250000
v 0.862372 8.786481 -0.250000
v 1.261421 9.761652 -0.250000
vt 0.688077 0.587656
vt 0.683501 0.587656
vt 0.683501 0.555687
vt 0.688077 0.555687
vt 0.550407 0.657874
vt 0.563358 0.653304
vt 0.576012 0.688234
vt 0.564646 0.692246
vt 0.373136 0.575110
vt 0.380418 0.577544
vt 0.375432 0.620310
vt 0.367047 0.619505
vt 0.391526 0.529413
vt 0.399274 0.532012
vt 0.688077 0.613966
vt 0.683501 0.613966
vt 0.333125 0.676702
vt 0.325854 0.679140
vt 0.319761 0.634741
vt 0.328135 0.633934
vt 0.586104 0.583030
vt 0.599051 0.587602
vt 0.598819 0.614474
vt 0.582341 0.615310
vt 0.329048 0.598694
vt 0.320870 0.596908
vt 0.331213 0.565628
vt 0.337787 0.570997
vt 0.445793 0.626708
vt 0.450368 0.626708
vt 0.450368 0.636452
vt 0.445793 0.636452
vt 0.117014 0.624699
vt 0.108752 0.624038
vt 0.109232 0.607643
vt 0.117410 0.609429
vt 0.345024 0.630382
vt 0.363920 0.626951
vt 0.366069 0.636492
vt 0.345323 0.641908
vt 0.589628 0.662814
vt 0.609738 0.648482
vt 0.604758 0.666624
vt 0.598583 0.674592
vt 0.583032 0.641908
vt 0.603778 0.636492
vt 0.683501 0.636452
vt 0.688077 0.636452
vt 0.688077 0.649286
vt 0.683501 0.649286
vt 0.688077 0.666177
vt 0.683501 0.666177
vt 0.349653 0.555393
vt 0.345061 0.549645
vt 0.367047 0.529413
vt 0.562883 0.566310
vt 0.576012 0.546700
vt 0.569060 0.574280
vt 0.396950 0.698850
vt 0.414328 0.724836
vt 0.392346 0.704602
vt 0.574043 0.592423
vt 0.553927 0.578088
vt 0.368159 0.657338
vt 0.376348 0.655549
vt 0.385087 0.683245
vt 0.378502 0.688618
vt 0.156040 0.651679
vt 0.164313 0.651014
vt 0.164710 0.666284
vt 0.156521 0.668073
vt 0.328224 0.613954
vt 0.309322 0.610520
vt 0.309621 0.598994
vt 0.330373 0.604413
vt 0.568082 0.604413
vt 0.547330 0.598994
vt 0.546640 0.625593
vt 0.563123 0.626431
vt 0.351989 0.722238
vt 0.344253 0.724841
vt 0.600337 0.548662
vt 0.611700 0.552675
vt 0.611700 0.694207
vt 0.685789 0.694457
vt 0.325414 0.626431
vt 0.308932 0.625593
vt 0.309092 0.619386
vt 0.326571 0.621293
vt 0.564280 0.621293
vt 0.546801 0.619386
vt 0.547031 0.610520
vt 0.565933 0.613954
vt 0.155410 0.630241
vt 0.163795 0.631045
vt 0.164008 0.639268
vt 0.155669 0.639068
vt 0.367307 0.628333
vt 0.375646 0.628532
vt 0.375951 0.640278
vt 0.367677 0.640944
vt 0.344632 0.615310
vt 0.361110 0.614474
vt 0.362267 0.619612
vt 0.344793 0.621516
vt 0.582502 0.621516
vt 0.599976 0.619612
vt 0.601629 0.626951
vt 0.582733 0.630382
vt 0.116497 0.644669
vt 0.108123 0.645477
vt 0.108382 0.636649
vt 0.116710 0.636446
vt 0.328348 0.625711
vt 0.320020 0.625914
vt 0.320389 0.613302
vt 0.328652 0.613964
vt 0.445793 0.613966
vt 0.450368 0.613966
vt 0.450368 0.619213
vt 0.445793 0.619213
vt 0.683501 0.619213
vt 0.688077 0.619213
vt 0.688077 0.626708
vt 0.683501 0.626708
vn 0.999100 -0.042400 0.000000
vn 0.000000 0.000000 -1.000000
vn -0.350700 0.088800 0.932300
vn -0.360200 0.001700 0.932900
vn 0.937100 -0.349000 0.000000
vn -0.350700 0.088800 -0.932300
vn -0.000000 0.000000 1.000000
vn -0.281100 0.215700 -0.935100
vn 0.842300 -0.539000 0.000000
vn -0.324800 0.133500 -0.936300
vn 0.700700 -0.713400 0.000000
vn 0.993200 -0.116500 0.000000
vn -0.152600 0.342200 -0.927100
vn 0.095100 0.024800 -0.995200
vn -0.152600 0.342200 0.927100
vn -0.281100 0.215700 0.935100
vn -0.324800 0.133500 0.936300
vn -0.360200 0.001700 -0.932900
vn -0.190600 0.302500 -0.933900
vn -0.190600 0.302500 0.933900
vn 0.095100 0.024800 0.995200
vn 0.826700 -0.562700 0.000000
vn -0.321900 0.132300 0.937500
vn -0.323100 0.132800 0.937000
vn -0.321900 0.132300 -0.937500
vn -0.323100 0.132800 -0.937000
usemtl Material
s off
f 2/1/1 4/2/1 3/3/1 1/4/1
f 22/5/2 2/6/2 1/7/2 23/8/2
f 6/9/3 20/10/3 24/11/3 9/12/3
f 20/10/4 6/9/4 5/13/4 21/14/4
f 4/2/5 2/1/5 7/15/5 8/16/5
f 22/17/6 6/18/6 9/19/6 25/20/6
f 20/21/7 4/22/7 8/23/7 24/24/7
f 27/25/8 12/26/8 15/27/8 29/28/8
f 36/29/9 35/30/9 10/31/9 11/32/9
f 41/33/10 32/34/10 12/35/10 27/36/10
f 39/37/7 36/38/7 11/39/7 26/40/7
f 28/41/7 14/42/7 17/43/7 30/44/7
f 26/45/7 11/46/7 14/42/7 28/41/7
f 11/47/11 10/48/11 13/49/11 14/50/11
f 14/50/12 13/49/12 16/51/12 17/52/12
f 31/53/13 18/54/13 19/55/13
f 31/56/14 19/57/14 16/58/14
f 30/59/15 19/60/15 18/61/15
f 13/62/2 29/63/2 31/56/2 16/58/2
f 12/64/16 26/65/16 28/66/16 15/67/16
f 32/68/17 39/69/17 26/70/17 12/71/17
f 35/72/2 41/73/2 27/74/2 10/75/2
f 10/76/2 27/77/2 29/63/2 13/62/2
f 2/6/2 22/5/2 25/78/2 7/79/2
f 6/18/18 22/17/18 23/80/18 5/81/18
f 4/22/7 20/21/7 21/82/7 3/83/7
f 31/53/19 29/28/19 15/27/19 18/54/19
f 15/67/20 28/66/20 30/59/20 18/61/20
f 17/43/21 19/84/21 30/44/21
f 17/52/22 16/51/22 19/85/22
f 7/86/2 25/87/2 40/88/2 34/89/2
f 34/90/2 40/91/2 41/92/2 35/93/2
f 9/94/23 24/95/23 38/96/23 33/97/23
f 33/98/24 38/99/24 39/100/24 32/101/24
f 24/102/7 8/103/7 37/104/7 38/105/7
f 38/106/7 37/107/7 36/108/7 39/109/7
f 25/110/25 9/111/25 33/112/25 40/113/25
f 40/114/26 33/115/26 32/116/26 41/117/26
f 8/118/9 7/119/9 34/120/9 37/121/9
f 37/122/9 34/123/9 35/124/9 36/125/9
