# Blender v2.76 (sub 0) OBJ File: 'Swords.blend'
# www.blender.org
mtllib BladeLongSword2.mtl
o Blade.LongSword2_Cube.019
v 1.274309 19.267937 0.000000
v 0.615560 2.224800 -0.100000
v 0.615560 13.443655 -0.100000
v 0.720012 17.109230 -0.100000
v 1.033367 18.380774 -0.100000
v 0.615560 2.224800 0.100000
v 0.615560 13.443655 0.100000
v 0.720011 17.109230 0.100000
v 1.033366 18.380774 0.100000
v -0.615560 1.810863 -0.000000
v -0.615560 13.443655 -0.000000
v -0.281315 17.109230 -0.000000
v 0.240943 18.380774 -0.000000
v 0.637155 18.380774 -0.150000
v 0.219349 17.109230 -0.150000
v 0.000000 13.443655 -0.150000
v 0.000000 2.224800 -0.150000
v -0.000000 2.224800 0.150000
v -0.000000 13.443655 0.150000
v 0.219348 17.109230 0.150000
v 0.637154 18.380774 0.150000
v 0.615560 1.667058 -0.250000
v 0.615560 1.667058 0.250000
v -0.615560 1.667058 0.250000
v -0.615560 1.667058 -0.250000
v 0.615560 0.641835 -0.250000
v 0.615560 0.641835 0.250000
v -0.615560 0.641835 0.250000
v -0.615560 0.641835 -0.250000
v -0.000000 1.667058 0.250000
v 0.000000 1.667058 -0.250000
v -0.000000 1.117571 0.250000
v 0.000000 1.117571 -0.250000
v -0.000000 0.000000 0.400000
v -0.615560 0.000000 0.400000
v 0.615560 0.000000 0.400000
v 0.615560 0.517358 0.400000
v -0.615560 0.517358 0.400000
v -0.000000 0.993095 0.400000
v 0.000000 0.000000 -0.400000
v -0.615560 0.000000 -0.400000
v 0.615560 0.000000 -0.400000
v 0.615560 0.517358 -0.400000
v -0.615560 0.517358 -0.400000
v 0.000000 0.993095 -0.400000
v -0.765560 0.514770 0.250000
v -0.765560 0.514770 -0.250000
v -0.765560 0.000000 0.250000
v -0.765560 0.000000 -0.250000
v -0.765560 0.390294 -0.400000
v -0.765560 0.000000 0.400000
v -0.765560 0.390294 0.400000
v -0.765560 0.000000 -0.400000
v 0.765560 0.000000 -0.250000
v 0.765560 0.000000 0.250000
v 0.765560 0.514770 -0.250000
v 0.765560 0.514770 0.250000
v 0.765560 0.000000 0.400000
v 0.765560 0.390294 0.400000
v 0.765560 0.000000 -0.400000
v 0.765560 0.390294 -0.400000
v -0.615560 11.864649 -0.000000
v -0.000000 12.654150 0.150000
v 0.000000 12.654150 -0.150000
v -0.615560 10.826899 -0.000000
v 0.615560 12.264931 0.100000
v -0.000000 11.545916 0.150000
v 0.615560 12.264931 -0.100000
v 0.000000 11.567327 -0.150000
v -0.072533 13.443655 0.132325
v 0.639445 14.281887 0.100000
v 0.005497 13.535519 0.150000
v -0.615560 12.804331 -0.000000
v 0.641673 14.281887 -0.100000
v -0.090665 13.443655 -0.127907
v 0.007098 13.562273 -0.150000
v 0.656286 14.809271 -0.100000
v 0.043761 14.174944 -0.150000
v 0.654187 14.799223 0.100000
v 0.042008 14.145668 0.150000
vt 0.180592 0.307553
vt 0.180362 0.313913
vt 0.173235 0.314098
vt 0.560566 0.557804
vt 0.560324 0.561834
vt 0.553806 0.561683
vt 0.547396 0.558514
vt 0.547507 0.557493
vt 0.554036 0.557648
vt 0.048449 0.686077
vt 0.048627 0.691002
vt 0.042740 0.685930
vt 0.366680 0.701524
vt 0.372524 0.715287
vt 0.366269 0.715121
vt 0.358789 0.701319
vt 0.593157 0.565520
vt 0.591565 0.568293
vt 0.589441 0.568293
vt 0.587849 0.565520
vt 0.401540 0.623487
vt 0.401540 0.616030
vt 0.404241 0.616030
vt 0.404241 0.623487
vt 0.640270 0.606728
vt 0.640270 0.601601
vt 0.642971 0.601586
vt 0.642971 0.606728
vt 0.536724 0.673566
vt 0.536724 0.663951
vt 0.539425 0.663951
vt 0.539425 0.673566
vt 0.538075 0.657083
vt 0.685653 0.548606
vt 0.682026 0.536777
vt 0.687359 0.536899
vt 0.692396 0.548761
vt 0.685328 0.582448
vt 0.685402 0.574709
vt 0.693590 0.581791
vt 0.693621 0.582640
vt 0.391641 0.587783
vt 0.392076 0.596231
vt 0.382832 0.604931
vt 0.382315 0.594875
vt 0.390216 0.587820
vt 0.356436 0.645070
vt 0.365692 0.653766
vt 0.365259 0.662215
vt 0.364117 0.662186
vt 0.355920 0.655126
vt 0.662630 0.654723
vt 0.662585 0.646983
vt 0.670882 0.646791
vt 0.670843 0.647887
vt 0.659288 0.692653
vt 0.662914 0.680824
vt 0.669661 0.680669
vt 0.664625 0.692531
vt 0.656479 0.700901
vt 0.381963 0.725000
vt 0.679224 0.528528
vt 0.693247 0.589922
vt 0.398902 0.534711
vt 0.393059 0.548474
vt 0.385180 0.548682
vt 0.392659 0.534880
vt 0.408353 0.525000
vt 0.593157 0.560422
vt 0.587849 0.560422
vt 0.554241 0.553665
vt 0.547888 0.550060
vt 0.652853 0.594216
vt 0.655507 0.594937
vt 0.650199 0.594937
vt 0.670508 0.639509
vt 0.578209 0.673767
vt 0.578442 0.677796
vt 0.571912 0.677952
vt 0.565382 0.678108
vt 0.565285 0.677089
vt 0.571687 0.673919
vt 0.655507 0.600070
vt 0.650199 0.600070
vt 0.572117 0.681936
vt 0.565764 0.685540
vt 0.578825 0.685229
vt 0.034824 0.307490
vt 0.034824 0.319817
vt 0.031329 0.318459
vt 0.031329 0.306132
vt 0.560947 0.550371
vt 0.214196 0.403644
vt 0.226249 0.403642
vt 0.226249 0.406030
vt 0.217157 0.406031
vt 0.226250 0.418217
vt 0.203113 0.418214
vt 0.214196 0.408418
vt 0.226250 0.408420
vt 0.226250 0.428015
vt 0.214196 0.428013
vt 0.226250 0.430403
vt 0.217157 0.430401
vt 0.171658 0.382186
vt 0.171658 0.394504
vt 0.168163 0.395872
vt 0.168163 0.383554
vt 0.203113 0.393847
vt 0.226250 0.393843
vt 0.214196 0.384046
vt 0.226250 0.384045
vt 0.046473 0.319817
vt 0.046473 0.307490
vt 0.049968 0.306132
vt 0.049968 0.318459
vt 0.031329 0.303006
vt 0.034824 0.304365
vt 0.183308 0.394504
vt 0.183308 0.382186
vt 0.186803 0.383554
vt 0.186803 0.395872
vt 0.183308 0.397629
vt 0.183308 0.403286
vt 0.171658 0.403286
vt 0.171658 0.397629
vt 0.186803 0.398997
vt 0.186803 0.403286
vt 0.168163 0.403286
vt 0.168163 0.398997
vt 0.046473 0.298747
vt 0.046473 0.304365
vt 0.034824 0.298747
vt 0.031329 0.298747
vt 0.049968 0.298747
vt 0.049968 0.303006
vt 0.217157 0.381658
vt 0.226250 0.381657
vt 0.680017 0.685921
vt 0.684770 0.593319
vt 0.692722 0.600143
vt 0.688310 0.686114
vt 0.361958 0.537479
vt 0.371421 0.542157
vt 0.366301 0.641907
vt 0.357006 0.633964
vt 0.657263 0.543512
vt 0.665560 0.543319
vt 0.669992 0.629485
vt 0.662026 0.636112
vt 0.392674 0.607862
vt 0.397817 0.707838
vt 0.388366 0.712519
vt 0.383403 0.616036
vt 0.374881 0.662439
vt 0.375528 0.649824
vt 0.007186 0.544821
vt 0.053661 0.584534
vt 0.050617 0.643832
vt 0.004336 0.600348
vt 0.401917 0.600173
vt 0.401269 0.587559
vt 0.677982 0.622440
vt 0.678475 0.632011
vt 0.642972 0.677704
vt 0.640270 0.677704
vt 0.640270 0.614185
vt 0.642971 0.614185
vt 0.374794 0.671418
vt 0.374741 0.676959
vt 0.365531 0.669744
vt 0.365294 0.663200
vt 0.001756 0.650628
vt 0.000000 0.684836
vt 0.049810 0.723718
vt 0.401540 0.607664
vt 0.404241 0.607713
vt 0.404241 0.610887
vt 0.401540 0.610902
vt 0.391924 0.579940
vt 0.381963 0.588034
vt 0.672111 0.646759
vt 0.678920 0.640678
vt 0.679224 0.646574
vt 0.662683 0.659591
vt 0.670639 0.653550
vt 0.401155 0.572930
vt 0.401216 0.578580
vt 0.391687 0.586511
vt 0.640270 0.584240
vt 0.642971 0.584240
vt 0.642971 0.598412
vt 0.640270 0.598363
vt 0.685448 0.569933
vt 0.693386 0.576152
vt 0.355569 0.661967
vn -0.236700 0.014200 -0.971500
vn -0.082200 0.312500 0.946400
vn -0.236700 0.014200 0.971500
vn -0.315100 0.116500 0.941900
vn 1.000000 0.000000 0.000000
vn 0.999500 -0.029800 0.005600
vn 0.971000 -0.239300 0.000000
vn 0.965000 -0.262100 0.000000
vn 0.110800 -0.031800 0.993300
vn 0.081300 -0.002600 0.996700
vn -0.236800 0.000000 -0.971600
vn -0.236800 0.000000 0.971600
vn 0.081400 -0.002800 -0.996700
vn 0.110800 -0.031800 -0.993300
vn 0.124800 0.077600 -0.989100
vn -0.327300 0.381300 0.864600
vn 0.124800 0.077600 0.989100
vn 0.081000 0.000000 0.996700
vn -0.315100 0.116500 -0.941900
vn -0.327300 0.381300 -0.864600
vn -0.000000 0.000000 1.000000
vn -1.000000 0.000000 -0.000000
vn 0.081000 0.000000 -0.996700
vn -0.082200 0.312500 -0.946400
vn 0.000000 0.000000 -1.000000
vn 0.511200 0.661400 0.548900
vn -0.511200 0.661400 0.548900
vn 0.511200 0.661400 -0.548900
vn 0.546100 0.644700 0.535000
vn -0.511200 0.661400 -0.548900
vn -0.646400 0.763000 -0.000000
vn -0.546100 0.644700 0.535000
vn -0.546100 0.644700 -0.535000
vn 0.546100 0.644700 -0.535000
vn 0.646400 0.763000 0.000000
vn 0.084300 -0.003800 0.996400
vn 0.999600 -0.028100 0.010100
vn -0.262300 0.020300 -0.964800
vn 0.091800 -0.004200 -0.995800
vn 0.084000 -0.003800 -0.996500
vn 0.999600 -0.028100 0.004500
vn 0.092000 -0.004200 0.995800
vn -0.262200 0.020200 0.964800
usemtl Material
s off
f 76/1/1 16/2/1 75/3/1
f 23/4/2 6/5/2 18/6/2 10/7/2 24/8/2 30/9/2
f 19/10/3 72/11/3 70/12/3
f 20/13/4 21/14/4 13/15/4 12/16/4
f 22/17/5 2/18/5 6/19/5 23/20/5
f 68/21/5 3/22/5 7/23/5 66/24/5
f 3/25/6 74/26/6 71/27/6 7/28/6
f 4/29/7 5/30/7 9/31/7 8/32/7
f 5/30/8 1/33/8 9/31/8
f 8/34/9 9/35/9 21/36/9 20/37/9
f 7/38/10 71/39/10 72/40/10 19/41/10
f 16/42/11 64/43/11 62/44/11 73/45/11 75/46/11
f 62/47/12 63/48/12 19/49/12 70/50/12 73/51/12
f 74/52/13 3/53/13 16/54/13 76/55/13
f 5/56/14 4/57/14 15/58/14 14/59/14
f 1/60/15 5/56/15 14/59/15
f 13/15/16 21/14/16 1/61/16
f 1/62/17 21/36/17 9/35/17
f 7/38/18 19/41/18 63/63/18
f 14/64/19 15/65/19 12/66/19 13/67/19
f 13/67/20 1/68/20 14/64/20
f 26/69/5 22/17/5 23/20/5 27/70/5
f 32/71/21 30/9/21 24/8/21 28/72/21
f 10/73/22 25/74/22 24/75/22
f 3/53/23 64/76/23 16/54/23
f 2/77/24 22/78/24 31/79/24 25/80/24 10/81/24 17/82/24
f 24/75/22 25/74/22 29/83/22 28/84/22
f 31/79/25 33/85/25 29/86/25 25/80/25
f 22/78/25 26/87/25 33/85/25 31/79/25
f 27/88/26 32/89/26 39/90/26 37/91/26
f 27/92/21 23/4/21 30/9/21 32/71/21
f 44/93/25 41/94/25 53/95/25 50/96/25
f 34/97/21 39/98/21 38/99/21 35/100/21
f 36/101/21 37/102/21 39/98/21 34/97/21
f 37/102/21 36/101/21 58/103/21 59/104/21
f 32/105/27 28/106/27 38/107/27 39/108/27
f 45/109/25 40/110/25 41/94/25 44/93/25
f 43/111/25 42/112/25 40/110/25 45/109/25
f 33/113/28 26/114/28 43/115/28 45/116/28
f 27/88/29 37/91/29 59/117/29 57/118/29
f 29/119/30 33/120/30 45/121/30 44/122/30
f 47/123/22 49/124/22 48/125/22 46/126/22
f 49/124/22 47/123/22 50/127/22 53/128/22
f 46/126/22 48/125/22 51/129/22 52/130/22
f 28/106/31 29/119/31 47/123/31 46/126/31
f 35/100/21 38/99/21 52/96/21 51/95/21
f 38/107/32 28/106/32 46/126/32 52/130/32
f 29/119/33 44/122/33 50/127/33 47/123/33
f 54/131/5 56/132/5 57/118/5 55/133/5
f 55/133/5 57/118/5 59/117/5 58/134/5
f 56/132/5 54/131/5 60/135/5 61/136/5
f 42/112/25 43/111/25 61/137/25 60/138/25
f 43/115/34 26/114/34 56/132/34 61/136/34
f 26/114/35 27/88/35 57/118/35 56/132/35
f 6/139/18 66/140/18 67/141/18 18/142/18
f 10/143/12 18/144/12 67/145/12 65/146/12
f 2/147/23 17/148/23 69/149/23 68/150/23
f 69/151/11 17/152/11 10/153/11 65/154/11
f 7/155/18 63/48/18 67/145/18 66/156/18
f 65/157/12 67/158/12 63/159/12 62/160/12
f 68/161/23 69/151/23 64/43/23 3/162/23
f 64/76/11 69/149/11 65/163/11 62/164/11
f 6/165/5 2/166/5 68/167/5 66/168/5
f 71/169/36 79/170/36 80/171/36 72/172/36
f 73/173/12 70/12/12 11/174/12
f 72/11/3 80/175/3 11/174/3 70/12/3
f 77/176/37 79/177/37 71/178/37 74/179/37
f 15/65/38 78/180/38 11/181/38 12/66/38
f 75/182/11 73/183/11 11/184/11
f 4/57/39 77/185/39 78/186/39 15/58/39
f 77/187/40 74/188/40 76/189/40 78/180/40
f 78/186/1 76/55/1 75/182/1 11/184/1
f 4/190/41 8/191/41 79/192/41 77/193/41
f 79/194/42 8/34/42 20/37/42 80/195/42
f 80/171/43 20/13/43 12/16/43 11/196/43
