<svg viewBox="0 0 123 123" fill="none" xmlns="http://www.w3.org/2000/svg">
	<g>
		<path fill-rule="evenodd" clip-rule="evenodd"
			d="M64.4121 99.5603H98.0772C108.587 99.5603 117.106 91.0392 117.106 80.5265V59.679C115.852 60.8833 114.516 62.0023 113.106 63.027C106.831 67.5886 99.11 70.2782 90.7591 70.2782C69.7415 70.2782 52.7012 53.236 52.7012 32.2107C52.7012 26.3009 54.0477 20.7051 56.4511 15.7139C57.1164 14.3322 57.8628 12.9968 58.684 11.7139H19.0361C8.52615 11.7139 0.00720215 20.235 0.00720215 30.7476V80.5265C0.00720215 91.0392 8.52615 99.5603 19.0361 99.5603H23.4265V115.666C23.4265 121.698 30.3123 125.143 35.1374 121.522L64.4121 99.5603ZM52.0597 15.7139H19.0361C10.7362 15.7139 4.0072 22.4432 4.0072 30.7476V80.5265C4.0072 88.831 10.7362 95.5603 19.0361 95.5603H27.4265V115.666C27.4265 118.404 30.5509 119.963 32.7367 118.323L63.0785 95.5603H98.0772C106.377 95.5603 113.106 88.831 113.106 80.5265V67.8537C106.632 71.9231 98.969 74.2782 90.7591 74.2782C67.5316 74.2782 48.7012 55.4443 48.7012 32.2107C48.7012 26.36 49.8975 20.7821 52.0597 15.7139Z"
			fill="currentColor" />
		<path fill-rule="evenodd" clip-rule="evenodd"
			d="M90.8047 60.4211C106.379 60.4211 119.007 47.7917 119.007 32.2106C119.007 16.6294 106.379 3.99999 90.8047 3.99999C75.2299 3.99999 62.6022 16.6294 62.6022 32.2106C62.6022 47.7917 75.2299 60.4211 90.8047 60.4211ZM123.007 32.2106C123.007 49.9999 108.59 64.4211 90.8047 64.4211C73.0198 64.4211 58.6022 49.9999 58.6022 32.2106C58.6022 14.4212 73.0198 -1.14441e-05 90.8047 -1.14441e-05C108.59 -1.14441e-05 123.007 14.4212 123.007 32.2106Z"
			fill="currentColor" />
		<path
			d="M87.8315 14.6424C87.8315 13.0256 89.1428 11.7139 90.7592 11.7139C92.3756 11.7139 93.6869 13.0232 93.6869 14.6424V38.0676C93.6869 39.6844 92.3756 40.996 90.7592 40.996C89.1428 40.996 87.8315 39.6844 87.8315 38.0676V14.6424Z"
			fill="currentColor" />
		<path
			d="M94.4194 49.779C94.4194 51.8018 92.7814 53.4401 90.7592 53.4401C88.7393 53.4401 87.1013 51.8018 87.0989 49.779C87.0989 47.7562 88.7369 46.1178 90.7592 46.1178C92.7814 46.1178 94.4194 47.7562 94.4194 49.779Z"
			fill="currentColor" />
	</g>
</svg>