<svg  viewBox="0 0 123 123" fill="none" xmlns="http://www.w3.org/2000/svg"
	preserveAspectRatio="xMidYMid meet">
	<path fill-rule="evenodd" clip-rule="evenodd" fill="currentColor"
		d="M68.08 63.81H75.94H77.94L61.62 101.61L45 63.66L56.13 63.73L56.52 64.33C56.64 64.51 56.77 64.69 56.91 64.87C57.0463 65.0423 57.1932 65.206 57.35 65.36C57.9259 65.9375 58.6102 66.3957 59.3635 66.7083C60.1168 67.0209 60.9244 67.1819 61.74 67.1819C62.5556 67.1819 63.3632 67.0209 64.1165 66.7083C64.8698 66.3957 65.5541 65.9375 66.13 65.36C66.28 65.21 66.42 65.05 66.55 64.9C66.6836 64.7411 66.8072 64.5742 66.92 64.4L67.32 63.8L68.08 63.81ZM73.93 66.5H68.75L68.66 66.61C68.4732 66.8448 68.2728 67.0685 68.06 67.28C66.3924 68.9379 64.1365 69.8685 61.785 69.8685C59.4335 69.8685 57.1776 68.9379 55.51 67.28C55.2901 67.0587 55.0831 66.825 54.89 66.58L54.76 66.42H49.13L61.64 95L73.93 66.5Z"
		fill="currentColor" />
</svg>