<svg viewBox="0 0 123 123" fill="none" xmlns="http://www.w3.org/2000/svg">
	<path fill-rule="evenodd" clip-rule="evenodd"
		d="M40 14H104C106.209 14 108 15.7909 108 18V82C108 84.2091 106.209 86 104 86H40C37.7909 86 36 84.2091 36 82V18C36 15.7909 37.7909 14 40 14ZM32 18C32 13.5817 35.5817 10 40 10H104C108.418 10 112 13.5817 112 18V82C112 86.4183 108.418 90 104 90H89V105C89 109.418 85.4183 113 81 113H17C12.5817 113 9 109.418 9 105V41C9 36.5817 12.5817 33 17 33H32V18ZM32 37H17C14.7909 37 13 38.7909 13 41V105C13 107.209 14.7909 109 17 109H81C83.2091 109 85 107.209 85 105V90H40C35.5817 90 32 86.4183 32 82V37Z"
		fill="currentColor" />
	<path fill-rule="evenodd" clip-rule="evenodd"
		d="M73 73C76.866 73 80 69.866 80 66L80 56H90C93.866 56 97 52.866 97 49C97 45.134 93.866 42 90 42H80L80 32C80 28.134 76.866 25 73 25C69.134 25 66 28.134 66 32L66 42H56C52.134 42 49 45.134 49 49C49 52.866 52.134 56 56 56H66L66 66C66 69.866 69.134 73 73 73Z"
		fill="currentColor" />
</svg>