<svg viewBox="0 0 123 123" fill="none" xmlns="http://www.w3.org/2000/svg">
	<path
		d="M64.3504 99.7057L28.9466 89.3392C26.4561 88.61 25.0284 85.9999 25.7576 83.5094L36.3955 47.1789L13.1899 53.9836C10.3236 54.824 8.68136 57.829 9.52185 60.6953L22.8746 106.232C23.715 109.098 26.72 110.74 29.5863 109.9L64.3504 99.7057Z"
		fill="currentColor" />
	<path
		d="M67.8197 43.7824L65.8472 41.5249L67.4973 39.2291L68.1227 39.1891C68.314 39.1769 68.4927 39.0896 68.6199 38.9462L69.545 37.9036C69.471 39.086 69.3755 40.2671 69.2586 41.446C69.1568 42.4732 69.0386 43.4988 68.9043 44.5223L67.8197 43.7824Z"
		fill="currentColor" />
	<path
		d="M75.4663 46.6847L70.9657 38.4571C70.8953 39.5025 70.8085 40.5468 70.7051 41.5895C70.5627 43.0257 70.3889 44.4588 70.1839 45.8874C70.1483 46.1357 69.9871 46.3482 69.7574 46.4493C69.5278 46.5504 69.2622 46.526 69.055 46.3846L66.9239 44.9309C66.873 44.8962 66.8267 44.8551 66.7862 44.8087L64.9712 42.7314C64.8179 42.8916 64.5978 42.9745 64.3734 42.9519C64.1149 42.9259 63.8899 42.7639 63.7834 42.5269L63.6439 42.2168L63.1652 44.9947C63.1578 45.0375 63.1466 45.0796 63.1317 45.1204L62.2332 47.5824L62.3304 50.3787L66.5347 50.9094L72.3003 48.1043C72.3561 48.0772 72.4151 48.0573 72.4759 48.0452L74.534 47.6342L75.4663 46.6847Z"
		fill="currentColor" />
	<path
		d="M60.8791 50.4687L60.7757 47.4914C60.7724 47.398 60.7872 47.3048 60.8193 47.217L61.7439 44.6835L62.4007 40.8719L55.8189 43.3204L50.5413 47.4417L47.1782 46.4569L39.8826 71.3729L90.9002 86.3114L98.1958 61.3954L91.3046 59.3776L82.2477 42.8209L78.8008 44.3261L74.8957 48.3031L72.6182 48.7579L66.0123 51.9718L60.8791 50.4687Z"
		fill="currentColor" />
	<path fill-rule="evenodd" clip-rule="evenodd"
		d="M49.9358 17.6571C49.2881 17.4674 48.6093 17.8387 48.4197 18.4864L29.0943 84.4864C28.9046 85.1341 29.2759 85.8129 29.9236 86.0025L90.8971 103.856C91.5448 104.046 92.2236 103.674 92.4132 103.027L111.739 37.0268C111.928 36.3791 111.557 35.7003 110.909 35.5107L49.9358 17.6571ZM52.3457 23.6365C52.4585 23.2513 52.8622 23.0305 53.2474 23.1433L105.66 38.4902C106.045 38.603 106.266 39.0067 106.153 39.3919L92.0909 87.4173C91.9781 87.8025 91.5744 88.0233 91.1892 87.9105L38.7766 72.5637C38.3914 72.4509 38.1706 72.0472 38.2834 71.662L52.3457 23.6365Z"
		fill="currentColor" />
</svg>