<svg viewBox="0 0 123 123" fill="none" xmlns="http://www.w3.org/2000/svg">
	<g>
		<path
			d="M100.108 84.1171C100.149 72.7165 100.107 36.1165 100.106 35.7532C100.127 30.5317 96.1501 26.4254 91.0519 26.405H91.0137C89.007 26.405 87.1439 27.0448 85.6195 28.1306V19.781C85.6295 17.2946 84.6871 14.9557 82.9656 13.1958C81.2323 11.4238 78.9079 10.4424 76.4202 10.4325H76.382C74.3956 10.4325 72.5512 11.0661 71.039 12.1427V9.34799C71.049 6.86104 70.0901 4.51906 68.3388 2.75336C66.5872 0.987917 64.2531 0.010198 61.7661 -8.34465e-06H61.7279C56.5716 -8.34465e-06 52.3598 4.16001 52.3394 9.281V12.0289C50.8351 10.9564 49.0024 10.322 47.0284 10.3142H46.9904C41.8043 10.3142 37.5684 14.4742 37.5477 19.5955V40.2178C36.0338 39.1381 34.1864 38.499 32.1967 38.4909H32.1585C27.0456 38.4909 22.8691 42.6509 22.8484 47.7758C22.8487 48.0315 22.8921 73.4784 22.8484 84.3534C22.8482 84.4628 22.8573 84.5711 22.8756 84.6776C23.0465 105.838 40.3893 123 61.6821 123C72.0031 123 81.6759 119.011 88.9193 111.769C96.1627 104.526 100.152 94.8529 100.152 84.5321C100.152 84.3895 100.137 84.2508 100.108 84.1171ZM76.4042 14.358C77.8328 14.3638 79.1665 14.9259 80.1594 15.9408C81.1549 16.9585 81.7 18.3168 81.694 19.7732V59.2784L71.039 59.2444V19.7219C71.0511 16.7644 73.448 14.358 76.4042 14.358ZM61.6821 119.074C42.4481 119.074 26.7999 103.502 26.7999 84.3612C26.7999 84.2566 26.7915 84.154 26.7753 84.0537C26.8171 73 26.7745 48.0226 26.7742 47.7803C26.786 44.8228 29.2015 42.4164 32.181 42.4164C35.1285 42.4282 37.5362 44.8338 37.548 47.7711V78.0895C37.548 79.1704 38.4218 80.0479 39.5029 80.0523C44.9604 80.0743 50.0607 82.2237 53.8643 86.1047C57.6621 89.98 59.7416 95.1379 59.7196 100.628C59.7152 101.712 60.5906 102.595 61.6746 102.599C62.763 102.599 63.641 101.725 63.6452 100.644C63.6716 94.1138 61.1935 87.9746 56.6679 83.3568C52.582 79.1879 47.2448 76.6913 41.4735 76.2116V19.6033C41.4853 16.6958 44.0118 14.2395 47.0127 14.2395C49.938 14.2512 52.3276 16.6565 52.3394 19.5934V45.4391C52.3394 46.523 53.2182 47.4018 54.3021 47.4018C55.3861 47.4018 56.2649 46.523 56.2649 45.4391V9.28885C56.2767 6.33135 58.7275 3.92552 61.7502 3.92552C63.1888 3.93128 64.5386 4.49682 65.5517 5.51798C66.5647 6.53914 67.1193 7.89371 67.1135 9.33988V59.2316L56.2646 59.197V53.2904C56.2646 52.2064 55.3858 51.3276 54.3019 51.3276C53.2179 51.3276 52.3391 52.2064 52.3391 53.2904V59.185L50.3826 59.1787C49.2953 59.1787 48.417 60.0533 48.4136 61.1352C48.4102 62.2191 49.2861 63.1008 50.3701 63.1042L83.4361 63.2094C83.5086 63.2175 83.5822 63.2225 83.6567 63.2225C83.7282 63.2225 83.7988 63.2181 83.8685 63.2107L87.576 63.2225C88.6634 63.2225 89.5416 62.3479 89.545 61.266C89.5484 60.1821 88.6725 59.3004 87.5886 59.297L85.6195 59.2907V35.6938C85.6313 32.7363 88.0512 30.3302 91.036 30.3302C93.933 30.3417 96.1928 32.7169 96.1808 35.7475C96.181 36.1251 96.2245 73.6482 96.1808 84.5238C96.1802 84.6651 96.1949 84.8048 96.2239 84.9409C96.0046 103.801 80.5938 119.074 61.6821 119.074Z"
			fill="currentColor" />
	</g>
</svg>