# Blender v2.76 (sub 0) OBJ File: 'Swords.blend'
# www.blender.org
mtllib BoardingAxe.mtl
o BoardingAxe
v 0.000001 1.036024 -0.800000
v 0.000001 27.479561 -1.040000
v 0.692821 1.036024 -0.400000
v 0.831385 27.479561 -0.520000
v 0.692821 1.036024 0.400000
v 0.831385 27.479561 0.520000
v 0.000001 1.036024 0.800000
v 0.000001 27.479561 1.040000
v -0.692819 1.036024 0.400000
v -0.831384 27.479561 0.520000
v -0.692819 1.036024 -0.400000
v -0.831384 27.479561 -0.520000
v 0.000001 0.000000 -0.800000
v 0.692821 0.000000 -0.400000
v 0.692821 0.000000 0.400000
v 0.000001 0.000000 0.800000
v -0.692820 0.000000 0.400000
v -0.692820 0.000000 -0.400000
v 0.000001 18.951963 -0.800000
v 0.692821 19.357372 -0.400000
v 0.692821 19.357372 0.400000
v 0.000001 18.951963 0.800000
v -0.692819 19.357372 0.400000
v -0.692819 19.357372 -0.400000
v 0.000001 19.370852 -1.040000
v 0.831385 19.776260 -0.520000
v 0.831385 19.776260 0.520000
v 0.000001 19.370852 1.040000
v -0.831384 19.776260 0.520000
v -0.831384 19.776260 -0.520000
v 0.831385 25.887177 -0.520000
v 0.831385 25.887177 0.520000
v -0.831384 25.624472 0.520000
v -0.831384 25.624472 -0.520000
v 5.507543 25.861977 0.000000
v 5.507543 25.643932 0.000000
v 1.234200 26.033125 0.250000
v 3.169464 26.033125 0.200000
v 4.338503 25.875015 0.150000
v 4.338503 26.749823 0.150000
v 3.169464 27.187666 0.200000
v 1.234201 27.260639 0.250000
v 4.338504 26.749823 -0.150000
v 3.169464 27.187666 -0.200000
v 1.234201 27.260639 -0.250000
v 1.234201 26.033125 -0.250000
v 3.169464 26.033125 -0.200000
v 4.338504 25.875015 -0.150000
v -5.305647 28.075514 -0.000000
v -4.612396 23.642019 -0.000000
v -1.326632 25.794744 0.250000
v -2.624592 25.369064 0.200000
v -3.995525 24.529865 0.150000
v -3.995525 24.529865 -0.150000
v -2.624592 25.369064 -0.200000
v -1.326632 25.794744 -0.250000
v -1.326632 27.163342 0.250000
v -2.624592 27.224154 0.200000
v -4.216436 27.502237 0.150000
v -1.326632 27.163342 -0.250000
v -2.624592 27.224154 -0.200000
v -4.216436 27.502237 -0.150000
v 0.415693 28.124332 -0.260000
v 0.000001 28.124332 -0.520000
v 0.415693 28.124332 0.260000
v 0.000001 28.124332 0.520000
v -0.415691 28.124332 0.260000
v -0.415691 28.124332 -0.260000
v 0.000001 0.759751 -1.120000
v 0.000001 0.276273 -1.120000
v -0.969948 0.276273 -0.560000
v -0.969948 0.759751 -0.560000
v -0.969948 0.759751 0.560000
v -0.969948 0.276273 0.560000
v 0.000001 0.276273 1.120000
v 0.000001 0.759751 1.120000
v 0.969949 0.759751 0.560000
v 0.969949 0.276273 0.560000
v 0.969949 0.276273 -0.560000
v 0.969949 0.759751 -0.560000
v -1.326632 26.250944 -0.250000
v -1.326632 26.707142 -0.250000
v -2.624592 25.987427 -0.200000
v -2.624592 26.605789 -0.200000
v -4.512551 25.504988 -0.150000
v -4.512551 26.480110 -0.150000
v -1.326632 26.707142 0.250000
v -1.326632 26.250942 0.250000
v -2.624592 26.605791 0.200000
v -2.624592 25.987427 0.200000
v -4.512551 26.480112 0.150000
v -4.512551 25.504990 0.150000
v -5.673844 26.597683 -0.000000
v -5.595518 25.119850 -0.000000
vt 0.559824 0.580188
vt 0.549312 0.527296
vt 0.554861 0.526235
vt 0.556925 0.536621
vt 0.564848 0.576482
vt 0.640089 0.646746
vt 0.632167 0.686606
vt 0.630102 0.696993
vt 0.624553 0.695932
vt 0.635066 0.643040
vt 0.619097 0.694869
vt 0.621502 0.682768
vt 0.629084 0.644622
vt 0.626538 0.700668
vt 0.623764 0.700137
vt 0.553842 0.578606
vt 0.546261 0.540460
vt 0.543856 0.528359
vt 0.844762 0.898984
vt 0.851729 0.895010
vt 0.851594 0.897281
vt 0.846617 0.900119
vt 0.856571 0.900119
vt 0.856571 0.905795
vt 0.851594 0.908633
vt 0.846617 0.905795
vt 0.851729 0.910904
vt 0.844762 0.906930
vt 0.858697 0.898984
vt 0.858697 0.906930
vt 0.837273 0.797450
vt 0.829209 0.797450
vt 0.830361 0.795586
vt 0.836121 0.795586
vt 0.665600 0.781226
vt 0.665600 0.911074
vt 0.659840 0.911074
vt 0.659840 0.781226
vt 0.568578 0.964010
vt 0.543223 0.836439
vt 0.548641 0.838316
vt 0.573435 0.963065
vt 0.653755 0.774828
vt 0.628960 0.899577
vt 0.623542 0.901454
vt 0.648898 0.773883
vt 0.658688 0.775773
vt 0.633332 0.903344
vt 0.673376 0.773883
vt 0.673376 0.903732
vt 0.667616 0.903732
vt 0.667616 0.773883
vt 0.553013 0.834549
vt 0.578368 0.962120
vt 0.669953 0.651078
vt 0.670763 0.653816
vt 0.663748 0.653816
vt 0.664557 0.651078
vt 0.555313 0.581161
vt 0.560389 0.582920
vt 0.635630 0.640308
vt 0.630555 0.642066
vt 0.639726 0.643837
vt 0.677238 0.644200
vt 0.678047 0.646937
vt 0.671032 0.646937
vt 0.671842 0.644200
vt 0.564484 0.579391
vt 0.678047 0.687509
vt 0.671032 0.687509
vt 0.670763 0.692643
vt 0.663748 0.692643
vt 0.190204 0.594106
vt 0.188866 0.594106
vt 0.189535 0.589048
vt 0.171505 0.682909
vt 0.172256 0.679135
vt 0.177580 0.679126
vt 0.177393 0.680066
vt 0.324317 0.546805
vt 0.322192 0.536111
vt 0.325254 0.537052
vt 0.326892 0.545296
vt 0.338543 0.534997
vt 0.340084 0.542750
vt 0.347098 0.536399
vt 0.348266 0.542274
vt 0.456243 0.597332
vt 0.449021 0.597332
vt 0.450896 0.594514
vt 0.454368 0.594514
vt 0.451243 0.581301
vt 0.454021 0.581301
vt 0.451590 0.573393
vt 0.453674 0.573393
vt 0.456243 0.565519
vt 0.449021 0.565519
vt 0.450896 0.562587
vt 0.454368 0.562587
vt 0.451243 0.549395
vt 0.454021 0.549395
vt 0.451590 0.541067
vt 0.453674 0.541067
vt 0.399658 0.711920
vt 0.401784 0.701226
vt 0.404359 0.702735
vt 0.402720 0.710979
vt 0.417551 0.705281
vt 0.416010 0.713035
vt 0.425733 0.705757
vt 0.424565 0.711632
vt 0.084065 0.583192
vt 0.087164 0.586962
vt 0.085234 0.591313
vt 0.079663 0.585768
vt 0.122492 0.574116
vt 0.121742 0.570342
vt 0.127630 0.573184
vt 0.127817 0.574125
vt 0.310861 0.538299
vt 0.313337 0.550757
vt 0.309760 0.550265
vt 0.309151 0.547202
vt 0.308542 0.544138
vt 0.307933 0.541074
vt 0.301488 0.554831
vt 0.300663 0.550679
vt 0.293271 0.562271
vt 0.288446 0.556402
vt 0.456243 0.628222
vt 0.449021 0.628222
vt 0.450896 0.625151
vt 0.454368 0.625151
vt 0.451243 0.616293
vt 0.454021 0.616293
vt 0.451590 0.605243
vt 0.453674 0.605243
vt 0.390804 0.697274
vt 0.388328 0.709732
vt 0.385400 0.706957
vt 0.386009 0.703893
vt 0.386618 0.700830
vt 0.387227 0.697766
vt 0.376479 0.705658
vt 0.377304 0.701505
vt 0.365265 0.705431
vt 0.364611 0.698178
vt 0.456243 0.680889
vt 0.449021 0.680889
vt 0.450896 0.677586
vt 0.454368 0.677586
vt 0.451243 0.668527
vt 0.454021 0.668527
vt 0.451590 0.658777
vt 0.453674 0.658777
vt 0.190204 0.614566
vt 0.188866 0.614566
vt 0.189535 0.609485
vt 0.192457 0.675514
vt 0.191139 0.675287
vt 0.192457 0.671687
vt 0.127817 0.673792
vt 0.132992 0.674266
vt 0.133412 0.678926
vt 0.128161 0.680478
vt 0.190204 0.573341
vt 0.188866 0.573341
vt 0.189535 0.567727
vt 0.683979 0.681591
vt 0.683979 0.684829
vt 0.681013 0.686223
vt 0.678047 0.684378
vt 0.678047 0.681140
vt 0.681013 0.679747
vt 0.545794 0.523623
vt 0.548522 0.523091
vt 0.621036 0.699605
vt 0.682524 0.686223
vt 0.682524 0.693135
vt 0.678047 0.691407
vt 0.678047 0.687951
vt 0.687002 0.686223
vt 0.687002 0.693135
vt 0.682524 0.691407
vt 0.682524 0.687951
vt 0.551297 0.522560
vt 0.856573 0.921353
vt 0.856573 0.915714
vt 0.858698 0.914797
vt 0.858698 0.922691
vt 0.848264 0.963380
vt 0.848254 0.956447
vt 0.851735 0.956447
vt 0.851746 0.963380
vt 0.846619 0.921429
vt 0.851596 0.924210
vt 0.851730 0.926691
vt 0.844762 0.922797
vt 0.844762 0.956550
vt 0.844772 0.949617
vt 0.848254 0.949617
vt 0.848243 0.956550
vt 0.836121 0.802928
vt 0.830361 0.802928
vt 0.829209 0.800877
vt 0.837273 0.800877
vt 0.855223 0.949617
vt 0.855223 0.957564
vt 0.851746 0.957564
vt 0.851746 0.949617
vt 0.851596 0.912933
vt 0.846619 0.915790
vt 0.844762 0.914904
vt 0.844772 0.963380
vt 0.134997 0.661938
vt 0.136927 0.666289
vt 0.133828 0.670059
vt 0.129427 0.667482
vt 0.378955 0.693200
vt 0.378129 0.697352
vt 0.365913 0.691629
vt 0.370737 0.685760
vt 0.299012 0.542373
vt 0.299837 0.546526
vt 0.287145 0.549854
vt 0.287798 0.542600
vt 0.083648 0.574325
vt 0.083229 0.578985
vt 0.078053 0.579459
vt 0.078398 0.572773
vn 0.530300 0.000000 -0.847800
vn 0.530300 0.000000 0.847800
vn -0.530300 0.000000 0.847800
vn 0.437700 0.564400 0.699900
vn -0.530300 0.000000 -0.847800
vn -0.353000 -0.708200 -0.611400
vn 0.000000 -1.000000 0.000000
vn -0.353000 -0.708200 0.611400
vn 0.706000 -0.708200 0.000000
vn -0.706000 -0.708200 0.000000
vn 0.353000 -0.708200 -0.611400
vn 0.353000 -0.708200 0.611400
vn -1.000000 0.000000 0.000000
vn -0.500000 0.000000 -0.866000
vn -0.500000 0.000000 0.866000
vn 0.500000 0.000000 0.866000
vn 1.000000 0.000000 0.000000
vn 0.500000 0.000000 -0.866000
vn -0.949400 -0.314100 0.000000
vn -0.619500 -0.394200 -0.678900
vn -0.619500 -0.394200 0.678900
vn 0.619500 -0.394200 0.678900
vn 0.949400 -0.314100 0.000000
vn 0.619500 -0.394200 -0.678900
vn -0.193900 -0.981000 0.000000
vn 0.127300 0.000000 0.991900
vn 0.556800 0.000000 -0.830700
vn 0.025800 0.000000 -0.999700
vn 0.042700 0.000000 -0.999100
vn 0.340700 -0.940200 -0.000000
vn -0.134000 -0.991000 0.000000
vn 0.477500 0.878600 0.000000
vn 0.037700 0.999300 -0.000000
vn 0.350700 0.936500 -0.000000
vn 0.556800 -0.000000 0.830700
vn 0.025800 0.000000 0.999700
vn 0.042700 0.000000 0.999100
vn -0.119800 -0.073300 -0.990100
vn 0.127300 0.000000 -0.991900
vn -0.478700 0.000000 -0.878000
vn -0.038500 0.000000 -0.999300
vn -0.027100 -0.008800 -0.999600
vn -0.538200 0.842800 0.000000
vn 0.046800 0.998900 0.000000
vn 0.172100 0.985100 0.000000
vn -0.478700 0.000000 0.878000
vn -0.038500 0.000000 0.999300
vn -0.028500 0.005100 0.999600
vn -0.325100 -0.945700 0.000000
vn 0.311600 -0.950200 0.000000
vn 0.522100 -0.852900 0.000000
vn 0.465800 0.884900 0.000000
vn 0.821200 -0.570600 0.000000
vn -0.122300 0.032500 0.992000
vn 0.604800 0.796400 0.000000
vn 0.000000 1.000000 0.000000
vn -0.437700 0.564400 -0.699900
vn -0.437700 0.564400 0.699900
vn 0.840500 0.541900 -0.000000
vn -0.840500 0.541900 0.000000
vn 0.437700 0.564400 -0.699900
vn 0.353000 0.708200 0.611400
vn 0.353000 0.708200 -0.611400
vn -0.706000 0.708200 0.000000
vn 0.706000 0.708200 0.000000
vn -0.353000 0.708200 0.611400
vn -0.353000 0.708200 -0.611400
vn -0.119800 -0.073300 0.990100
vn -0.132000 -0.004200 0.991200
vn -0.027100 -0.008800 0.999600
vn -0.026500 0.000000 0.999600
vn -0.028500 0.005100 -0.999600
vn -0.026500 0.000000 -0.999600
vn -0.122300 0.032500 -0.992000
vn -0.132000 -0.004200 -0.991200
usemtl Material
s off
f 25/1/1 2/2/1 4/3/1 31/4/1 26/5/1
f 27/6/2 32/7/2 6/8/2 8/9/2 28/10/2
f 28/10/3 8/9/3 10/11/3 33/12/3 29/13/3
f 8/9/4 6/8/4 65/14/4 66/15/4
f 30/16/5 34/17/5 12/18/5 2/2/5 25/1/5
f 71/19/6 70/20/6 13/21/6 18/22/6
f 13/21/7 14/23/7 15/24/7 16/25/7 17/26/7 18/22/7
f 75/27/8 74/28/8 17/26/8 16/25/8
f 79/29/9 78/30/9 15/24/9 14/23/9
f 74/31/10 71/32/10 18/33/10 17/34/10
f 70/20/11 79/29/11 14/23/11 13/21/11
f 78/30/12 75/27/12 16/25/12 15/24/12
f 9/35/13 23/36/13 24/37/13 11/38/13
f 11/39/14 24/40/14 19/41/14 1/42/14
f 7/43/15 22/44/15 23/45/15 9/46/15
f 5/47/16 21/48/16 22/44/16 7/43/16
f 3/49/17 20/50/17 21/51/17 5/52/17
f 1/42/18 19/41/18 20/53/18 3/54/18
f 23/55/19 29/56/19 30/57/19 24/58/19
f 24/59/20 30/16/20 25/1/20 19/60/20
f 22/61/21 28/10/21 29/13/21 23/62/21
f 21/63/22 27/6/22 28/10/22 22/61/22
f 20/64/23 26/65/23 27/66/23 21/67/23
f 19/60/24 25/1/24 26/5/24 20/68/24
f 26/65/17 31/69/17 32/70/17 27/66/17
f 29/56/13 33/71/13 34/72/13 30/57/13
f 39/73/25 48/74/25 36/75/25
f 40/76/26 39/77/26 36/78/26 35/79/26
f 31/80/27 4/81/27 45/82/27 46/83/27
f 46/83/28 45/82/28 44/84/28 47/85/28
f 47/85/29 44/84/29 43/86/29 48/87/29
f 32/88/30 31/89/30 46/90/30 37/91/30
f 37/91/7 46/90/7 47/92/7 38/93/7
f 38/93/31 47/92/31 48/94/31 39/95/31
f 4/96/32 6/97/32 42/98/32 45/99/32
f 45/99/33 42/98/33 41/100/33 44/101/33
f 44/101/34 41/100/34 40/102/34 43/103/34
f 6/104/35 32/105/35 37/106/35 42/107/35
f 42/107/36 37/106/36 38/108/36 41/109/36
f 41/109/37 38/108/37 39/110/37 40/111/37
f 85/112/38 54/113/38 50/114/38 94/115/38
f 48/116/39 43/117/39 35/118/39 36/119/39
f 12/120/40 34/121/40 56/122/40 81/123/40 82/124/40 60/125/40
f 81/123/41 56/122/41 55/126/41 83/127/41
f 83/127/42 55/126/42 54/128/42 85/129/42
f 10/130/43 12/131/43 60/132/43 57/133/43
f 57/133/44 60/132/44 61/134/44 58/135/44
f 58/135/45 61/134/45 62/136/45 59/137/45
f 33/138/46 10/139/46 57/140/46 87/141/46 88/142/46 51/143/46
f 87/141/47 57/140/47 58/144/47 89/145/47
f 89/145/48 58/144/48 59/146/48 91/147/48
f 34/148/49 33/149/49 51/150/49 56/151/49
f 56/151/50 51/150/50 52/152/50 55/153/50
f 55/153/51 52/152/51 53/154/51 54/155/51
f 59/156/52 62/157/52 49/158/52
f 54/159/53 53/160/53 50/161/53
f 93/162/54 91/163/54 59/164/54 49/165/54
f 43/166/55 40/167/55 35/168/55
f 63/169/56 64/170/56 68/171/56 67/172/56 66/173/56 65/174/56
f 2/2/57 12/18/57 68/175/57 64/176/57
f 10/11/58 8/9/58 66/15/58 67/177/58
f 6/178/59 4/179/59 63/180/59 65/181/59
f 12/182/60 10/183/60 67/184/60 68/185/60
f 4/3/61 2/2/61 64/176/61 63/186/61
f 5/187/62 7/188/62 76/189/62 77/190/62
f 77/191/16 76/192/16 75/193/16 78/194/16
f 1/195/63 3/196/63 80/197/63 69/198/63
f 69/199/18 80/200/18 79/201/18 70/202/18
f 9/203/64 11/204/64 72/205/64 73/206/64
f 73/206/13 72/205/13 71/32/13 74/31/13
f 3/196/65 5/187/65 77/190/65 80/197/65
f 80/207/17 77/208/17 78/209/17 79/210/17
f 7/188/66 9/211/66 73/27/66 76/189/66
f 76/192/15 73/201/15 74/210/15 75/193/15
f 11/212/67 1/195/67 69/198/67 72/213/67
f 72/214/14 69/199/14 70/202/14 71/191/14
f 50/215/68 53/216/68 92/217/68 94/218/68
f 94/218/69 92/217/69 91/163/69 93/162/69
f 52/219/70 90/220/70 92/221/70 53/222/70
f 90/220/71 89/145/71 91/147/71 92/221/71
f 51/143/47 88/142/47 90/220/47 52/219/47
f 88/142/47 87/141/47 89/145/47 90/220/47
f 61/223/72 84/224/72 86/225/72 62/226/72
f 84/224/73 83/127/73 85/129/73 86/225/73
f 60/125/41 82/124/41 84/224/41 61/223/41
f 82/124/41 81/123/41 83/127/41 84/224/41
f 62/227/74 86/228/74 93/229/74 49/230/74
f 86/228/75 85/112/75 94/115/75 93/229/75
