# Blender v2.76 (sub 0) OBJ File: 'Swords.blend'
# www.blender.org
mtllib LongswordScabbard.mtl
o LongSwordCScabbard_Cube.002
v -0.959560 -0.000000 0.370000
v 0.959568 -0.000000 0.370000
v -0.799633 3.052760 0.200000
v -0.522360 17.329124 0.203750
v 0.000416 18.671000 0.203750
v 1.291241 18.671000 0.203750
v 0.882111 17.329124 0.203750
v 0.799641 3.052760 0.200000
v -0.959560 -0.000000 0.000000
v 0.959568 -0.000000 0.000000
v -0.799633 13.496807 0.200000
v 0.799641 13.496807 0.200000
v 1.535272 19.857786 0.203750
v 1.351232 19.857786 0.203750
v -0.319851 -0.000000 0.500000
v 0.319859 -0.000000 0.500000
v 0.430691 18.671000 0.368750
v 0.860966 18.671000 0.368750
v -0.054203 17.329124 0.368750
v 0.413954 17.329124 0.368750
v -0.266542 3.052760 0.350000
v 0.266549 3.052760 0.350000
v -0.319851 -0.000000 0.000000
v 0.319859 -0.000000 0.000000
v -0.266542 13.496807 0.350000
v 0.266549 13.496807 0.350000
v -0.433208 17.083324 0.200000
v 0.859708 17.083324 0.200000
v 0.428736 17.083324 0.350000
v -0.002236 17.083324 0.350000
v 0.959568 2.836054 0.370000
v -0.959560 2.836054 0.370000
v 0.959568 2.836054 0.000000
v -0.959560 2.836054 0.000000
v 0.319859 2.836054 0.500000
v -0.319851 2.836054 0.500000
v -0.959560 -0.000000 -0.370000
v 0.959568 -0.000000 -0.370000
v -0.799633 3.052760 -0.200000
v -0.522360 17.329124 -0.203750
v 0.000416 18.671000 -0.203750
v 1.291241 18.671000 -0.203750
v 0.882111 17.329124 -0.203750
v 0.799641 3.052760 -0.200000
v 1.291241 18.671000 0.000000
v 0.882111 17.329124 0.000000
v 0.799641 3.052760 0.000000
v 0.000416 18.671000 0.000000
v -0.522360 17.329124 0.000000
v -0.799633 3.052760 0.000000
v -0.799633 13.496807 -0.200000
v 0.799641 13.496807 -0.200000
v -0.799633 13.496807 0.000000
v 0.799641 13.496807 0.000000
v 1.535272 19.857786 -0.203750
v 1.351232 19.857786 -0.203750
v -0.319851 -0.000000 -0.500000
v 0.319859 -0.000000 -0.500000
v 0.430691 18.671000 -0.368750
v 0.860966 18.671000 -0.368750
v -0.054203 17.329124 -0.368750
v 0.413954 17.329124 -0.368750
v -0.266542 3.052760 -0.350000
v 0.266549 3.052760 -0.350000
v 1.535272 19.857786 0.000000
v 1.351232 19.857786 0.000000
v -0.266542 13.496807 -0.350000
v 0.266549 13.496807 -0.350000
v -0.433208 17.083324 -0.200000
v 0.859708 17.083324 -0.200000
v -0.433208 17.083324 0.000000
v 0.859708 17.083324 0.000000
v 0.428736 17.083324 -0.350000
v -0.002236 17.083324 -0.350000
v 0.959568 2.836054 -0.370000
v -0.959560 2.836054 -0.370000
v 0.319859 2.836054 -0.500000
v -0.319851 2.836054 -0.500000
vt 0.342280 0.441097
vt 0.351758 0.441097
vt 0.351758 0.465676
vt 0.342280 0.465676
vt 0.386083 0.440857
vt 0.402708 0.440995
vt 0.400671 0.465676
vt 0.384046 0.465537
vt 0.378651 0.302814
vt 0.390024 0.302887
vt 0.402385 0.314706
vt 0.390046 0.314623
vt 0.131908 0.343105
vt 0.145865 0.343209
vt 0.138363 0.434099
vt 0.124407 0.433995
vt 0.367685 0.302697
vt 0.351758 0.292142
vt 0.356449 0.292192
vt 0.328447 0.451755
vt 0.328543 0.453875
vt 0.323324 0.453875
vt 0.323324 0.451755
vt 0.081437 0.343924
vt 0.086560 0.343924
vt 0.086560 0.434438
vt 0.081437 0.434438
vt 0.067604 0.415520
vt 0.062481 0.415520
vt 0.062481 0.324573
vt 0.067604 0.324573
vt 0.328543 0.465676
vt 0.323324 0.465676
vt 0.357125 0.302537
vt 0.308627 0.447356
vt 0.313846 0.447356
vt 0.313846 0.448959
vt 0.308627 0.448959
vt 0.288230 0.460104
vt 0.301038 0.460104
vt 0.301038 0.465676
vt 0.291560 0.465676
vt 0.067604 0.446833
vt 0.062481 0.446833
vt 0.081437 0.312789
vt 0.086560 0.312789
vt 0.127748 0.311822
vt 0.139102 0.311898
vt 0.106149 0.311548
vt 0.116764 0.311705
vt 0.118322 0.342960
vt 0.105104 0.342776
vt 0.291560 0.448959
vt 0.301038 0.448959
vt 0.301038 0.454531
vt 0.288230 0.454531
vt 0.342280 0.315560
vt 0.347499 0.315560
vt 0.347403 0.317710
vt 0.342280 0.317710
vt 0.110820 0.433850
vt 0.097603 0.433665
vt 0.378114 0.314496
vt 0.366589 0.314325
vt 0.353795 0.440475
vt 0.369779 0.440683
vt 0.367742 0.465364
vt 0.351758 0.465156
vt 0.342280 0.303572
vt 0.347499 0.303572
vt 0.388591 0.316743
vt 0.377607 0.316626
vt 0.366992 0.316469
vt 0.399945 0.316820
vt 0.347499 0.293073
vt 0.342280 0.293073
vt 0.308627 0.435589
vt 0.313846 0.435589
vt 0.371663 0.438772
vt 0.385250 0.438916
vt 0.358446 0.438587
vt 0.399206 0.439021
vt 0.342280 0.439360
vt 0.347403 0.439360
vt 0.441578 0.316976
vt 0.439472 0.292284
vt 0.455848 0.292136
vt 0.457954 0.316829
vt 0.434115 0.455046
vt 0.445535 0.443241
vt 0.457516 0.443141
vt 0.445127 0.454956
vt 0.187282 0.404902
vt 0.179526 0.313971
vt 0.193171 0.313853
vt 0.200927 0.404784
vt 0.411420 0.465630
vt 0.406708 0.465676
vt 0.423098 0.455155
vt 0.337061 0.315560
vt 0.337061 0.303572
vt 0.076314 0.434438
vt 0.076314 0.343924
vt 0.057358 0.415520
vt 0.057358 0.324573
vt 0.318105 0.465676
vt 0.318105 0.453875
vt 0.412075 0.455282
vt 0.337061 0.293073
vt 0.057358 0.446833
vt 0.076314 0.312789
vt 0.183178 0.436195
vt 0.194208 0.436102
vt 0.161102 0.436429
vt 0.159977 0.405187
vt 0.173632 0.405036
vt 0.172143 0.436303
vt 0.313846 0.327572
vt 0.323324 0.327572
vt 0.323324 0.329495
vt 0.318201 0.329495
vt 0.332802 0.327572
vt 0.328447 0.329495
vt 0.303408 0.448959
vt 0.303408 0.447356
vt 0.152221 0.314256
vt 0.165876 0.314105
vt 0.421555 0.443495
vt 0.433547 0.443359
vt 0.408814 0.317313
vt 0.406708 0.292621
vt 0.423092 0.292445
vt 0.425198 0.317137
vt 0.303408 0.435589
vt 0.432986 0.441225
vt 0.444021 0.441116
vt 0.421945 0.441350
vt 0.455051 0.441024
vt 0.337157 0.317710
vt 0.318201 0.451755
vt 0.426719 0.319027
vt 0.440369 0.318892
vt 0.413064 0.319178
vt 0.454014 0.318774
vt 0.332802 0.441097
vt 0.337157 0.439360
vt 0.332802 0.465676
vt 0.332802 0.302876
vt 0.323324 0.302876
vt 0.313846 0.302876
vt 0.310516 0.448959
vt 0.313846 0.454531
vt 0.313846 0.460104
vt 0.310516 0.465676
vn 1.000000 0.000000 0.000000
vn -0.199100 0.000000 0.980000
vn -0.341900 0.128400 0.930900
vn -0.270900 0.000000 0.962600
vn 0.000000 0.137700 0.990500
vn -0.940100 -0.341000 0.000000
vn -1.000000 0.000000 0.000000
vn -0.931800 0.363000 0.000000
vn 0.357100 -0.073400 0.931200
vn 0.000000 1.000000 0.000000
vn 0.000000 -1.000000 0.000000
vn -0.994800 0.101600 0.000000
vn 0.999900 -0.016700 0.000000
vn -0.297000 0.026100 0.954500
vn 0.297100 -0.009200 0.954800
vn 0.000000 0.000000 1.000000
vn -0.331600 0.377400 0.864700
vn 0.995900 -0.090800 0.000000
vn 0.270900 0.000000 0.962600
vn 0.342700 -0.109300 0.933100
vn 0.199100 0.000000 0.980000
vn 0.956500 -0.291600 0.000000
vn 0.000000 -0.076100 0.997100
vn 0.330300 -0.048300 0.942700
vn -0.327500 -0.136800 0.934900
vn 0.979500 -0.201400 0.000000
vn -0.660000 0.751200 0.000000
vn 0.000000 0.569100 0.822200
vn 0.178500 0.639800 0.747600
vn -0.178500 0.639800 0.747600
vn 0.804600 0.593800 0.000000
vn -0.199100 0.000000 -0.980000
vn -0.341900 0.128400 -0.930900
vn -0.270900 0.000000 -0.962600
vn 0.000000 0.137700 -0.990500
vn 0.357100 -0.073400 -0.931200
vn -0.297000 0.026100 -0.954500
vn 0.297100 -0.009200 -0.954800
vn 0.000000 0.000000 -1.000000
vn -0.804600 0.593800 0.000000
vn -0.331600 0.377400 -0.864700
vn 0.270900 0.000000 -0.962600
vn 0.342700 -0.109300 -0.933100
vn 0.199100 0.000000 -0.980000
vn 0.000000 -0.076100 -0.997100
vn 0.330300 -0.048300 -0.942700
vn -0.327500 -0.136800 -0.934900
vn 0.000000 0.569100 -0.822200
vn 0.178500 0.639800 -0.747600
vn -0.178500 0.639800 -0.747600
usemtl Material
s off
f 33/1/1 31/2/1 2/3/1 10/4/1
f 36/5/2 32/6/2 1/7/2 15/8/2
f 17/9/3 5/10/3 4/11/3 19/12/3
f 25/13/4 11/14/4 3/15/4 21/16/4
f 17/9/5 18/17/5 13/18/5 14/19/5
f 27/20/6 4/21/6 49/22/6 71/23/6
f 54/24/1 12/25/1 8/26/1 47/27/1
f 11/28/7 53/29/7 50/30/7 3/31/7
f 4/21/8 5/32/8 48/33/8 49/22/8
f 18/17/9 6/34/9 13/18/9
f 66/35/10 14/36/10 13/37/10 65/38/10
f 16/39/11 24/40/11 10/41/11 2/42/11
f 27/43/12 71/44/12 53/29/12 11/28/12
f 72/45/13 28/46/13 12/25/13 54/24/13
f 30/47/14 27/48/14 11/14/14 25/13/14
f 28/49/15 29/50/15 26/51/15 12/52/15
f 29/50/16 30/47/16 25/13/16 26/51/16
f 1/53/11 9/54/11 23/55/11 15/56/11
f 15/56/11 23/55/11 24/40/11 16/39/11
f 5/10/17 17/9/17 14/19/17
f 46/57/18 7/58/18 28/59/18 72/60/18
f 12/52/19 26/51/19 22/61/19 8/62/19
f 26/51/16 25/13/16 21/16/16 22/61/16
f 6/34/20 18/17/20 20/63/20 7/64/20
f 18/17/16 17/9/16 19/12/16 20/63/16
f 31/65/21 35/66/21 16/67/21 2/68/21
f 35/66/16 36/5/16 15/8/16 16/67/16
f 7/58/22 46/57/22 45/69/22 6/70/22
f 20/63/23 19/12/23 30/71/23 29/72/23
f 7/64/24 20/63/24 29/72/24 28/73/24
f 19/12/25 4/11/25 27/74/25 30/71/25
f 13/75/26 6/70/26 45/69/26 65/76/26
f 66/35/27 48/77/27 5/78/27 14/36/27
f 22/79/28 21/80/28 36/5/28 35/66/28
f 8/81/29 22/79/29 35/66/29 31/65/29
f 21/80/30 3/82/30 32/6/30 36/5/30
f 47/83/31 8/84/31 31/2/31 33/1/31
f 78/85/32 57/86/32 37/87/32 76/88/32
f 59/89/33 61/90/33 40/91/33 41/92/33
f 67/93/34 63/94/34 39/95/34 51/96/34
f 59/89/35 56/97/35 55/98/35 60/99/35
f 45/69/22 46/57/22 43/100/22 42/101/22
f 54/24/1 47/27/1 44/102/1 52/103/1
f 51/104/7 39/105/7 50/30/7 53/29/7
f 41/106/8 40/107/8 49/22/8 48/33/8
f 60/99/36 55/98/36 42/108/36
f 65/76/26 45/69/26 42/101/26 55/109/26
f 69/110/12 51/104/12 53/29/12 71/44/12
f 72/45/13 54/24/13 52/103/13 70/111/13
f 74/112/37 67/93/37 51/96/37 69/113/37
f 70/114/38 52/115/38 68/116/38 73/117/38
f 73/117/39 68/116/39 67/93/39 74/112/39
f 76/118/40 34/119/40 50/120/40 39/121/40
f 32/122/40 3/123/40 50/120/40 34/119/40
f 41/92/41 56/97/41 59/89/41
f 55/124/10 56/125/10 66/35/10 65/38/10
f 52/115/42 44/126/42 64/127/42 68/116/42
f 68/116/39 64/127/39 63/94/39 67/93/39
f 42/108/43 43/128/43 62/129/43 60/99/43
f 60/99/39 62/129/39 61/90/39 59/89/39
f 75/130/44 38/131/44 58/132/44 77/133/44
f 77/133/39 58/132/39 57/86/39 78/85/39
f 48/77/27 66/35/27 56/125/27 41/134/27
f 62/129/45 73/135/45 74/136/45 61/90/45
f 43/128/46 70/137/46 73/135/46 62/129/46
f 61/90/47 74/136/47 69/138/47 40/91/47
f 46/57/18 72/60/18 70/139/18 43/100/18
f 40/107/6 69/140/6 71/23/6 49/22/6
f 64/141/48 77/133/48 78/85/48 63/142/48
f 44/143/49 75/130/49 77/133/49 64/141/49
f 63/142/50 78/85/50 76/88/50 39/144/50
f 33/1/31 75/145/31 44/146/31 47/83/31
f 10/4/1 38/147/1 75/145/1 33/1/1
f 1/148/7 32/122/7 34/119/7 9/149/7
f 34/119/7 76/118/7 37/150/7 9/149/7
f 23/55/11 9/54/11 37/151/11 57/152/11
f 24/40/11 23/55/11 57/152/11 58/153/11
f 10/41/11 24/40/11 58/153/11 38/154/11
