# Blender v2.76 (sub 0) OBJ File: 'Swords.blend'
# www.blender.org
mtllib WarHammer.mtl
o BoardingAxe.001
v 0.000001 1.036024 -0.800000
v 0.000001 31.207455 -1.040000
v 0.692821 1.036024 -0.400000
v 0.831385 31.207455 -0.520000
v 0.692821 1.036024 0.400000
v 0.831385 31.207455 0.520000
v 0.000001 1.036024 0.800000
v 0.000001 31.207455 1.040000
v -0.692819 1.036024 0.400000
v -0.831384 31.207455 0.520000
v -0.692819 1.036024 -0.400000
v -0.831384 31.207455 -0.520000
v 0.000001 22.679857 -0.800000
v 0.692821 23.085266 -0.400000
v 0.692821 23.085266 0.400000
v 0.000001 22.679857 0.800000
v -0.692819 23.085266 0.400000
v -0.692819 23.085266 -0.400000
v 0.000001 23.098745 -1.040000
v 0.831385 23.504154 -0.520000
v 0.831385 23.504154 0.520000
v 0.000001 23.098745 1.040000
v -0.831384 23.504154 0.520000
v -0.831384 23.504154 -0.520000
v 0.000001 28.768330 -1.040000
v -6.628873 31.983240 0.850781
v 0.831385 28.768330 -0.520000
v -6.628873 31.983240 -1.701562
v -6.628873 27.992546 -1.701562
v 0.000001 28.768330 1.040000
v -6.628873 27.992546 0.850781
v -6.628873 27.992546 -0.850781
v -6.628873 27.992546 1.701562
v -6.628873 31.983240 -0.850781
v -6.628873 31.983240 1.701562
v -0.831384 28.768330 0.520000
v -0.831384 28.768330 -0.520000
v 0.831385 28.768330 0.520000
v 0.415693 31.852226 -0.260000
v 0.000001 31.852226 -0.520000
v 0.415693 31.852226 0.260000
v 0.000001 31.852226 0.520000
v -0.415691 31.852226 0.260000
v -0.415691 31.852226 -0.260000
v 0.000001 0.759751 -1.120000
v 0.000001 0.276273 -1.120000
v -0.969948 0.276273 -0.560000
v -0.969948 0.759751 -0.560000
v -0.969948 0.759751 0.560000
v -0.969948 0.276273 0.560000
v 0.000001 0.276273 1.120000
v 0.000001 0.759751 1.120000
v 0.969949 0.759751 0.560000
v 0.969949 0.276273 0.560000
v 0.969949 0.276273 -0.560000
v 0.969949 0.759751 -0.560000
v -1.368928 31.207455 0.520000
v -2.929286 31.389748 0.597727
v -1.368928 28.768330 -1.040000
v -2.929286 28.586037 -1.195453
v -2.929286 31.389748 -0.597727
v -1.368928 31.207455 -0.520000
v -1.368928 31.207455 -1.040000
v -2.929286 31.389748 -1.195453
v -2.929286 28.586037 1.195453
v -1.368927 28.768330 1.040000
v -2.929286 28.586037 -0.597727
v -1.368928 28.768330 -0.520000
v -1.368928 31.207455 1.040000
v -2.929286 31.389748 1.195453
v -1.368928 28.768330 0.520000
v -2.929286 28.586037 0.597727
v -2.269378 30.905102 0.391082
v -2.269378 29.070683 -0.782164
v -2.269378 30.905102 -0.391082
v -2.269378 30.905102 -0.782164
v -2.269378 29.070683 0.782164
v -2.269378 29.070683 -0.391082
v -2.269378 30.905102 0.782164
v -2.269378 29.070683 0.391082
v -6.628873 30.653009 -0.850781
v -6.628873 29.322777 -0.850781
v -6.628873 30.653009 0.850781
v -6.628873 29.322777 0.850781
v -6.628873 30.653009 1.701562
v -6.628873 29.322777 1.701562
v -6.628873 29.322777 -1.701562
v -6.628873 30.653008 -1.701562
v -6.628873 28.657661 -0.850781
v -6.628873 28.657661 0.850781
v -6.628873 28.657661 1.701562
v -6.628873 31.318123 -1.701562
v -6.628873 31.318125 -0.850781
v -6.628873 31.318125 0.850781
v -6.628873 31.318125 1.701562
v -6.628873 28.657661 -1.701562
v -7.299846 27.992546 1.701562
v -7.299846 27.992546 -1.701562
v -7.299846 31.983240 -1.701562
v -7.299846 31.983240 1.701562
v -7.299846 29.987892 -0.000000
v 1.784622 29.331112 0.750109
v 1.784622 29.331112 0.375055
v 1.784622 31.207455 0.750109
v 1.784622 31.207455 -0.750109
v 1.784622 29.331112 -0.750109
v 1.784622 31.207455 0.375055
v 1.784622 31.207455 -0.375054
v 1.784622 29.331112 -0.375054
v 3.244813 29.599487 0.585041
v 3.244813 29.599487 0.292520
v 3.244813 31.091183 0.585041
v 3.244813 31.091183 -0.585040
v 3.244813 29.599487 -0.585040
v 3.244813 31.091183 0.292520
v 3.244813 31.091183 -0.292520
v 3.244813 29.599487 -0.292520
v 4.446428 29.608353 0.401836
v 4.446428 29.608353 0.200918
v 4.446428 30.854160 0.401836
v 4.446428 30.854160 -0.401836
v 4.446428 29.608353 -0.401836
v 4.446428 30.854160 0.200918
v 4.446429 30.854160 -0.200918
v 4.446428 29.608353 -0.200918
v 5.343837 29.570305 0.256842
v 5.343837 29.570305 0.128421
v 5.343837 30.405476 0.256842
v 5.343837 30.405476 -0.256841
v 5.343837 29.570305 -0.256841
v 5.343837 30.405476 0.128421
v 5.343838 30.405476 -0.128421
v 5.343837 29.570305 -0.128421
v 6.515033 29.455528 0.000000
vt 0.843581 0.697163
vt 0.843581 0.667674
vt 0.850894 0.665403
vt 0.850894 0.697163
vt 0.404832 0.601454
vt 0.399413 0.601454
vt 0.394825 0.578960
vt 0.402538 0.578960
vt 0.837786 0.624122
vt 0.837786 0.628984
vt 0.832352 0.626770
vt 0.832352 0.624339
vt 0.880626 0.541811
vt 0.880626 0.571298
vt 0.871863 0.571298
vt 0.871863 0.541811
vt 0.639158 0.955786
vt 0.639157 0.824744
vt 0.646310 0.824744
vt 0.646310 0.955786
vt 0.621587 0.790978
vt 0.621587 0.922030
vt 0.615676 0.919620
vt 0.615676 0.790978
vt 0.630501 0.955808
vt 0.630501 0.827166
vt 0.636412 0.824756
vt 0.636412 0.955808
vt 0.624058 0.955808
vt 0.624058 0.824756
vt 0.655966 0.790978
vt 0.655966 0.921882
vt 0.648813 0.921882
vt 0.648813 0.790978
vt 0.609233 0.922030
vt 0.609233 0.790978
vt 0.872874 0.573635
vt 0.879615 0.573635
vt 0.856313 0.665327
vt 0.857553 0.667674
vt 0.850743 0.663056
vt 0.864715 0.575918
vt 0.864866 0.573571
vt 0.871526 0.571300
vt 0.870286 0.573647
vt 0.858642 0.573647
vt 0.857553 0.571300
vt 0.888716 0.665188
vt 0.889727 0.667495
vt 0.880963 0.667495
vt 0.881975 0.665188
vt 0.844670 0.665327
vt 0.871526 0.541811
vt 0.864866 0.541811
vt 0.880963 0.696950
vt 0.889727 0.696950
vt 0.415669 0.601454
vt 0.417963 0.578960
vt 0.399413 0.636802
vt 0.404832 0.636802
vt 0.402538 0.659124
vt 0.394825 0.659124
vt 0.415669 0.636802
vt 0.421088 0.636802
vt 0.425676 0.659124
vt 0.417963 0.659124
vt 0.421088 0.601454
vt 0.425676 0.578960
vt 0.857553 0.541811
vt 0.295963 0.678756
vt 0.295963 0.682764
vt 0.280538 0.682764
vt 0.280538 0.678756
vt 0.857553 0.697163
vt 0.897513 0.629316
vt 0.893801 0.628122
vt 0.893801 0.625381
vt 0.897513 0.623833
vt 0.901226 0.625027
vt 0.901226 0.627769
vt 0.832352 0.624556
vt 0.832352 0.628984
vt 0.826919 0.626553
vt 0.826919 0.624339
vt 0.837786 0.619695
vt 0.832352 0.622126
vt 0.906819 0.623833
vt 0.906819 0.629659
vt 0.901226 0.628202
vt 0.901226 0.625290
vt 0.912294 0.623833
vt 0.912294 0.629659
vt 0.906819 0.628202
vt 0.906819 0.625290
vt 0.832352 0.619695
vt 0.826919 0.621909
vt 0.785515 0.837192
vt 0.776164 0.833594
vt 0.776431 0.830715
vt 0.789523 0.835753
vt 0.899398 0.854763
vt 0.899398 0.845686
vt 0.905940 0.845686
vt 0.905940 0.854763
vt 0.776164 0.847987
vt 0.785515 0.844389
vt 0.789523 0.845828
vt 0.776431 0.850866
vt 0.815986 0.839792
vt 0.815986 0.830715
vt 0.822529 0.830715
vt 0.822529 0.839792
vt 0.872334 0.955086
vt 0.883160 0.955086
vt 0.885325 0.957601
vt 0.870169 0.957601
vt 0.885325 0.961950
vt 0.870169 0.961950
vt 0.942174 0.837360
vt 0.942174 0.847436
vt 0.935639 0.847436
vt 0.935639 0.837360
vt 0.766813 0.837192
vt 0.763340 0.835753
vt 0.899398 0.837360
vt 0.905940 0.837360
vt 0.766813 0.844389
vt 0.763340 0.845828
vt 0.815986 0.848118
vt 0.822529 0.848118
vt 0.675764 0.610222
vt 0.685192 0.610222
vt 0.685192 0.613462
vt 0.675764 0.613462
vt 0.406705 0.632804
vt 0.413796 0.632804
vt 0.586263 0.600618
vt 0.608375 0.600618
vt 0.608375 0.608845
vt 0.586263 0.608845
vt 0.318776 0.628070
vt 0.335406 0.628070
vt 0.339800 0.632222
vt 0.314383 0.632222
vt 0.550085 0.600618
vt 0.572197 0.600618
vt 0.572197 0.608845
vt 0.550085 0.608845
vt 0.282599 0.628070
vt 0.299229 0.628070
vt 0.303622 0.632222
vt 0.278205 0.632222
vt 0.689906 0.605212
vt 0.685192 0.600214
vt 0.685192 0.596983
vt 0.689906 0.596983
vt 0.417341 0.605630
vt 0.413796 0.605630
vt 0.689906 0.613462
vt 0.417341 0.632804
vt 0.671050 0.605212
vt 0.671050 0.613462
vt 0.403160 0.632804
vt 0.675764 0.600214
vt 0.675764 0.596983
vt 0.406705 0.605630
vt 0.671050 0.596983
vt 0.403160 0.605630
vt 0.673388 0.591701
vt 0.676933 0.591701
vt 0.684023 0.591701
vt 0.676933 0.618875
vt 0.673388 0.618875
vt 0.687569 0.618875
vt 0.684023 0.618875
vt 0.687569 0.591701
vt 0.569456 0.614141
vt 0.552826 0.614141
vt 0.605634 0.614141
vt 0.589004 0.614141
vt 0.303676 0.678756
vt 0.295963 0.674748
vt 0.303676 0.674748
vt 0.295963 0.666732
vt 0.303676 0.666732
vt 0.295963 0.662724
vt 0.280538 0.666732
vt 0.280538 0.662724
vt 0.272825 0.666732
vt 0.272825 0.662724
vt 0.280538 0.674748
vt 0.272825 0.674748
vt 0.295963 0.658716
vt 0.280538 0.658716
vt 0.345180 0.654683
vt 0.339150 0.654683
vt 0.315032 0.654683
vt 0.309002 0.654683
vt 0.303676 0.662724
vt 0.272825 0.678756
vt 0.302973 0.654683
vt 0.278855 0.654683
vt 0.272825 0.654683
vt 0.163599 0.647981
vt 0.171312 0.647981
vt 0.163599 0.652024
vt 0.194450 0.647981
vt 0.194450 0.652024
vt 0.186737 0.647981
vt 0.194450 0.567816
vt 0.186737 0.567816
vt 0.194450 0.563783
vt 0.171312 0.567816
vt 0.163599 0.567816
vt 0.163599 0.563783
vt 0.077777 0.643540
vt 0.083806 0.643540
vt 0.077777 0.647572
vt 0.096029 0.647572
vt 0.096029 0.657827
vt 0.089991 0.652700
vt 0.064737 0.655588
vt 0.064737 0.663605
vt 0.057025 0.659645
vt 0.049312 0.663605
vt 0.049312 0.655588
vt 0.107925 0.643540
vt 0.113954 0.643540
vt 0.113954 0.647572
vt 0.041599 0.643540
vt 0.047629 0.643540
vt 0.041599 0.647572
vt 0.071747 0.643540
vt 0.100771 0.660051
vt 0.105512 0.657565
vt 0.105512 0.664095
vt 0.041599 0.667613
vt 0.049312 0.671621
vt 0.041599 0.671670
vt 0.072450 0.667613
vt 0.072450 0.671670
vt 0.064737 0.671621
vt 0.096029 0.661609
vt 0.100771 0.657565
vt 0.100771 0.664095
vt 0.653258 0.643277
vt 0.648544 0.648275
vt 0.651172 0.637547
vt 0.654572 0.637547
vt 0.700618 0.635198
vt 0.695904 0.640208
vt 0.698532 0.629428
vt 0.701932 0.629428
vt 0.714760 0.600915
vt 0.710046 0.595918
vt 0.708732 0.590188
vt 0.712132 0.590188
vt 0.710046 0.635198
vt 0.708732 0.629428
vt 0.700618 0.595918
vt 0.701932 0.590188
vt 0.714760 0.640208
vt 0.712132 0.629428
vt 0.591365 0.589763
vt 0.608375 0.589763
vt 0.550085 0.589763
vt 0.567095 0.589763
vt 0.456777 0.609689
vt 0.453377 0.609689
vt 0.454873 0.600861
vt 0.457525 0.600861
vt 0.321940 0.609264
vt 0.304930 0.609264
vt 0.305985 0.600414
vt 0.319507 0.600414
vt 0.466977 0.648929
vt 0.463577 0.648929
vt 0.462829 0.640118
vt 0.465480 0.640118
vt 0.456777 0.648929
vt 0.457525 0.640118
vt 0.453377 0.648929
vt 0.454873 0.640118
vt 0.363220 0.609264
vt 0.346210 0.609264
vt 0.348643 0.600414
vt 0.362166 0.600414
vt 0.463577 0.609689
vt 0.462829 0.600861
vt 0.466977 0.609689
vt 0.465480 0.600861
vt 0.432184 0.662404
vt 0.426880 0.662404
vt 0.427711 0.655163
vt 0.431354 0.655163
vt 0.424229 0.662404
vt 0.425889 0.655163
vt 0.331521 0.622701
vt 0.317998 0.622701
vt 0.318079 0.615397
vt 0.329373 0.615397
vt 0.432184 0.623148
vt 0.426880 0.623148
vt 0.427711 0.615823
vt 0.431354 0.615823
vt 0.434836 0.623148
vt 0.433175 0.615823
vt 0.424229 0.623148
vt 0.425889 0.615823
vt 0.288863 0.622701
vt 0.275340 0.622701
vt 0.277489 0.615397
vt 0.288783 0.615397
vt 0.434836 0.662404
vt 0.433175 0.655163
vt 0.281556 0.609939
vt 0.289128 0.609939
vt 0.430696 0.649756
vt 0.431861 0.649756
vt 0.428368 0.649756
vt 0.427204 0.649756
vt 0.317734 0.609939
vt 0.325305 0.609939
vt 0.428368 0.610235
vt 0.430696 0.610235
vt 0.431861 0.610235
vt 0.427204 0.610235
vt 0.217350 0.621378
vt 0.216186 0.621378
vt 0.215022 0.613928
vt 0.213857 0.621378
vt 0.110794 0.621082
vt 0.103223 0.621082
vt 0.102183 0.613928
vt 0.213857 0.660900
vt 0.212693 0.660900
vt 0.215022 0.653847
vt 0.216186 0.660900
vt 0.217350 0.660900
vt 0.074617 0.621082
vt 0.067046 0.621082
vt 0.075657 0.613928
vt 0.212693 0.621378
vn 0.530300 0.000000 -0.847800
vn 0.158400 0.987400 0.000000
vn 0.437700 0.564400 0.699900
vn -1.000000 0.000000 0.000000
vn -0.500000 0.000000 -0.866000
vn -0.500000 0.000000 0.866000
vn 0.500000 0.000000 0.866000
vn 1.000000 0.000000 0.000000
vn 0.500000 0.000000 -0.866000
vn -0.949400 -0.314100 0.000000
vn -0.619500 -0.394200 -0.678900
vn -0.619500 -0.394200 0.678900
vn 0.619500 -0.394200 0.678900
vn 0.949400 -0.314100 0.000000
vn 0.619500 -0.394200 -0.678900
vn -0.530300 0.000000 0.847800
vn 0.158400 -0.987400 0.000000
vn 0.530300 0.000000 0.847800
vn -0.530300 0.000000 -0.847800
vn 0.000000 1.000000 -0.000000
vn -0.437700 0.564400 -0.699900
vn -0.437700 0.564400 0.699900
vn 0.840500 0.541900 -0.000000
vn -0.840500 0.541900 0.000000
vn 0.437700 0.564400 -0.699900
vn 0.353000 0.708200 0.611400
vn 0.353000 0.708200 -0.611400
vn -0.706000 0.708200 0.000000
vn 0.706000 0.708200 0.000000
vn -0.353000 0.708200 0.611400
vn -0.353000 0.708200 -0.611400
vn 0.000000 -1.000000 0.000000
vn 0.591900 -0.806000 0.000000
vn 0.000000 0.000000 1.000000
vn 0.530800 0.000000 0.847500
vn 0.000000 0.000000 -1.000000
vn 0.530800 0.000000 -0.847500
vn 0.591900 0.806000 0.000000
vn -0.318300 0.948000 0.000000
vn -0.318300 -0.948000 0.000000
vn -0.275300 0.000000 -0.961400
vn -0.275300 -0.000000 0.961400
vn 0.135500 0.000000 0.990800
vn 0.135500 0.000000 -0.990800
vn -0.704000 -0.710200 0.000000
vn -0.785200 0.000000 -0.619200
vn -0.785200 0.000000 0.619200
vn -0.704000 0.710200 0.000000
vn -0.615500 -0.620900 -0.485400
vn -0.615500 0.620900 -0.485400
vn -0.615500 0.620900 0.485400
vn -0.615500 -0.620900 0.485400
vn 0.402800 -0.835300 -0.374200
vn 0.508400 -0.861100 -0.000000
vn 0.402800 -0.835300 0.374200
vn 0.160300 0.000000 0.987100
vn 0.160300 0.000000 -0.987100
vn 0.079400 0.996800 0.000000
vn 0.112300 0.000000 -0.993700
vn 0.180800 -0.983500 0.000000
vn 0.112300 0.000000 0.993700
vn 0.007400 -1.000000 0.000000
vn 0.150700 0.000000 0.988600
vn 0.193500 0.981100 0.000000
vn 0.150700 0.000000 -0.988600
vn 0.159500 0.000000 -0.987200
vn -0.042400 -0.999100 0.000000
vn 0.159500 0.000000 0.987200
vn 0.447200 0.894400 0.000000
vn 0.629900 0.776600 0.000000
vn 0.214200 0.000000 0.976800
vn -0.097500 -0.995200 0.000000
vn 0.214200 0.000000 -0.976800
usemtl Material
s off
f 27/1/1 20/2/1 19/3/1 25/4/1
f 61/5/2 64/6/2 28/7/2 34/8/2
f 8/9/3 6/10/3 41/11/3 42/12/3
f 37/13/4 24/14/4 23/15/4 36/16/4
f 9/17/4 17/18/4 18/19/4 11/20/4
f 11/21/5 18/22/5 13/23/5 1/24/5
f 7/25/6 16/26/6 17/27/6 9/28/6
f 5/29/7 15/30/7 16/26/7 7/25/7
f 3/31/8 14/32/8 15/33/8 5/34/8
f 1/24/9 13/23/9 14/35/9 3/36/9
f 17/37/10 23/15/10 24/14/10 18/38/10
f 18/39/11 24/40/11 19/3/11 13/41/11
f 16/42/12 22/43/12 23/44/12 17/45/12
f 15/46/13 21/47/13 22/43/13 16/42/13
f 14/48/14 20/49/14 21/50/14 15/51/14
f 13/41/15 19/3/15 20/2/15 14/52/15
f 36/53/16 23/44/16 22/43/16 30/54/16
f 38/55/8 21/50/8 20/49/8 27/56/8
f 58/57/2 61/5/2 34/8/2 26/58/2
f 60/59/17 67/60/17 32/61/17 29/62/17
f 72/63/17 65/64/17 33/65/17 31/66/17
f 70/67/2 58/57/2 26/58/2 35/68/2
f 30/54/18 22/43/18 21/47/18 38/69/18
f 89/70/4 32/71/4 31/72/4 90/73/4
f 19/3/19 24/40/19 37/74/19 25/4/19
f 67/60/17 72/63/17 31/66/17 32/61/17
f 39/75/20 40/76/20 44/77/20 43/78/20 42/79/20 41/80/20
f 2/81/21 12/82/21 44/83/21 40/84/21
f 10/85/22 8/9/22 42/12/22 43/86/22
f 6/87/23 4/88/23 39/89/23 41/90/23
f 12/91/24 10/92/24 43/93/24 44/94/24
f 4/95/25 2/81/25 40/84/25 39/96/25
f 5/97/26 7/98/26 52/99/26 53/100/26
f 53/101/7 52/102/7 51/103/7 54/104/7
f 1/105/27 3/106/27 56/107/27 45/108/27
f 45/109/9 56/110/9 55/111/9 46/112/9
f 9/113/28 11/114/28 48/115/28 49/116/28
f 49/116/4 48/115/4 47/117/4 50/118/4
f 3/106/29 5/97/29 53/100/29 56/107/29
f 56/119/8 53/120/8 54/121/8 55/122/8
f 7/98/30 9/123/30 49/124/30 52/99/30
f 52/102/6 49/125/6 50/126/6 51/103/6
f 11/127/31 1/105/31 45/108/31 48/128/31
f 48/129/5 45/109/5 46/112/5 47/130/5
f 37/131/32 36/132/32 71/133/32 68/134/32
f 78/135/33 80/136/33 72/63/33 67/60/33
f 30/137/34 8/138/34 69/139/34 66/140/34
f 77/141/35 79/142/35 70/143/35 65/144/35
f 2/145/36 25/146/36 59/147/36 63/148/36
f 76/149/37 74/150/37 60/151/37 64/152/37
f 8/153/20 10/154/20 57/155/20 69/156/20
f 79/157/38 73/158/38 58/57/38 70/67/38
f 36/132/32 30/153/32 66/159/32 71/133/32
f 80/136/33 77/160/33 65/64/33 72/63/33
f 25/161/32 37/131/32 68/134/32 59/162/32
f 74/163/33 78/135/33 67/60/33 60/59/33
f 10/154/20 12/164/20 62/165/20 57/155/20
f 73/158/38 75/166/38 61/5/38 58/57/38
f 12/164/20 2/161/20 63/167/20 62/165/20
f 75/166/38 76/168/38 64/6/38 61/5/38
f 62/165/39 63/167/39 76/169/39 75/170/39
f 57/155/39 62/165/39 75/170/39 73/171/39
f 59/162/40 68/134/40 78/172/40 74/173/40
f 71/133/40 66/159/40 77/174/40 80/175/40
f 69/156/39 57/155/39 73/171/39 79/176/39
f 63/148/41 59/147/41 74/177/41 76/178/41
f 66/140/42 69/139/42 79/179/42 77/180/42
f 68/134/40 71/133/40 80/175/40 78/172/40
f 96/181/4 89/70/4 82/182/4 87/183/4
f 87/183/4 82/182/4 81/184/4 88/185/4
f 93/186/4 81/184/4 83/187/4 94/188/4
f 94/188/4 83/187/4 85/189/4 95/190/4
f 83/187/4 84/191/4 86/192/4 85/189/4
f 34/193/4 93/186/4 94/188/4 26/194/4
f 65/144/43 70/143/43 35/195/43 95/196/43 91/197/43 33/198/43
f 88/185/4 81/184/4 93/186/4 92/199/4
f 82/182/4 89/70/4 90/73/4 84/191/4
f 84/191/4 90/73/4 91/200/4 86/192/4
f 64/152/44 60/151/44 29/198/44 96/201/44 92/202/44 28/203/44
f 29/204/32 32/205/32 98/206/32
f 33/207/32 97/208/32 31/209/32
f 35/210/20 26/211/20 100/212/20
f 34/213/20 28/214/20 99/215/20
f 33/216/34 91/217/34 97/218/34
f 82/219/45 84/220/45 101/221/45
f 81/222/46 82/223/46 101/224/46
f 84/225/47 83/226/47 101/224/47
f 83/226/48 81/222/48 101/224/48
f 95/227/34 35/228/34 100/229/34
f 28/230/36 92/231/36 99/232/36
f 96/233/36 29/216/36 98/218/36
f 32/71/4 89/70/4 96/181/4
f 31/72/4 91/200/4 90/73/4
f 94/188/4 95/190/4 26/194/4
f 93/186/4 34/193/4 92/199/4
f 95/234/49 100/235/49 26/236/49
f 91/237/50 31/238/50 97/239/50
f 96/240/51 98/241/51 32/242/51
f 92/243/52 34/244/52 99/245/52
f 6/246/20 8/247/20 104/248/20 107/249/20
f 27/250/53 25/251/53 106/252/53 109/253/53
f 2/254/20 4/255/20 108/256/20 105/257/20
f 38/258/54 27/250/54 109/253/54 103/259/54
f 4/255/20 6/260/20 107/261/20 108/256/20
f 30/262/55 38/258/55 103/259/55 102/263/55
f 8/138/56 30/137/56 102/264/56 104/265/56
f 25/146/57 2/145/57 105/266/57 106/267/57
f 107/268/58 104/269/58 112/270/58 115/271/58
f 106/272/59 105/273/59 113/274/59 114/275/59
f 102/276/60 103/277/60 111/278/60 110/279/60
f 103/277/60 109/280/60 117/281/60 111/278/60
f 109/280/60 106/282/60 114/283/60 117/281/60
f 104/284/61 102/285/61 110/286/61 112/287/61
f 108/288/58 107/268/58 115/271/58 116/289/58
f 105/290/58 108/288/58 116/289/58 113/291/58
f 111/292/62 117/293/62 125/294/62 119/295/62
f 117/293/62 114/296/62 122/297/62 125/294/62
f 112/298/63 110/299/63 118/300/63 120/301/63
f 116/302/64 115/303/64 123/304/64 124/305/64
f 113/306/64 116/302/64 124/305/64 121/307/64
f 115/303/64 112/308/64 120/309/64 123/304/64
f 114/310/65 113/311/65 121/312/65 122/313/65
f 110/314/62 111/292/62 119/295/62 118/315/62
f 122/313/66 121/312/66 129/316/66 130/317/66
f 118/315/67 119/295/67 127/318/67 126/319/67
f 119/295/67 125/294/67 133/320/67 127/318/67
f 125/294/67 122/297/67 130/321/67 133/320/67
f 120/301/68 118/300/68 126/322/68 128/323/68
f 124/305/69 123/304/69 131/324/69 132/325/69
f 121/307/69 124/305/69 132/325/69 129/326/69
f 123/304/69 120/309/69 128/327/69 131/324/69
f 129/328/70 132/329/70 134/330/70
f 132/329/70 131/331/70 134/330/70
f 128/332/71 126/333/71 134/334/71
f 133/335/72 130/336/72 134/337/72
f 127/338/72 133/335/72 134/337/72
f 126/339/72 127/338/72 134/337/72
f 130/340/73 129/341/73 134/342/73
f 131/331/70 128/343/70 134/330/70
f 51/126/32 50/117/32 47/112/32 46/111/32 55/121/32 54/103/32
