# Created by Kenney (www.kenney.nl)

mtllib brickWallEnd.mtl

g brickWallEnd

v 0.5 0.11 -0.352914
v 0.5 0.11 -0.327
v -0.3 0.11 -0.352914
v -0.3 0.11 -0.327
v -0.309 0.601914 -0.477086
v 0.5 0.601914 -0.477086
v -0.309 0.701914 -0.477086
v 0.5 0.701914 -0.477086
v 0.5 0.701914 -0.342914
v -0.309 0.701914 -0.342914
v 0.5 0.11 -0.493
v 0.5 0.11 -0.467086
v -0.3 0.11 -0.493
v -0.3 0.11 -0.467086
v 0.5 0.09 -0.5
v -0.3 0.09 -0.5
v 0.5 0.601914 -0.467086
v -0.309 0.601914 -0.467086
v 0.5 0.601914 -0.342914
v 0.5 0.601914 -0.352914
v -0.309 0.601914 -0.342914
v -0.309 0.601914 -0.352914
v -0.3 -2.372688E-19 -0.5
v 0.5 0 -0.5
v -0.3 -2.372688E-19 -0.32
v -0.3 0.09 -0.32
v 0.5 0 -0.32
v 0.5 0.09 -0.32
v -0.3 0.11 -0.31
v -0.5 0.11 -0.31
v -0.309 0.13 -0.319
v -0.491 0.13 -0.319
v -0.5 0.11 -0.51
v -0.491 0.13 -0.501
v -0.3 -4.745376E-19 -0.31
v -0.5 -4.745376E-19 -0.31
v -0.3 -4.745376E-19 -0.51
v -0.5 -4.745376E-19 -0.51
v -0.5 0 -0.32
v -0.3 0.11 -0.51
v -0.5 0.7739 -0.51
v -0.3 0.7739 -0.51
v -0.5 0.8239 -0.51
v -0.3 0.8239 -0.51
v -0.309 0.13 -0.501
v -0.491 0.7539 -0.501
v -0.309 0.7539 -0.501
v -0.309 0.7539 -0.319
v -0.491 0.7539 -0.319
v -0.3 0.7739 -0.31
v -0.5 0.7739 -0.31
v -0.3 0.8239 -0.31
v -0.5 0.8239 -0.31
v -0.309 0.13 -0.352914
v -0.309 0.13 -0.467086

vn 0 1 0
vn 0 0 -1
vn 0 0.3303504 -0.9438583
vn 0 -1 0
vn 1 0 0
vn 0 0 1
vn 0 0.4103647 0.9119215
vn -0.9119215 0.4103647 0
vn -1 0 0
vn 0 -0.4103647 0.9119215
vn 0 -0.4103647 -0.9119215
vn -0.9119215 -0.4103647 0
vn 0.9119215 -0.4103647 0
vn 0 0.4103647 -0.9119215
vn 0.9119215 0.4103647 0
vn 0 0.3303504 0.9438583

vt -19.68504 -13.89425
vt -19.68504 -12.87402
vt 11.81102 -13.89425
vt 11.81102 -12.87402
vt 12.16535 23.6974
vt -19.68504 23.6974
vt 12.16535 27.63441
vt -19.68504 27.63441
vt -19.68504 -18.78291
vt -19.68504 -13.50055
vt 12.16535 -18.78291
vt 12.16535 -13.50055
vt -19.68504 -19.40945
vt -19.68504 -18.38921
vt 11.81102 -19.40945
vt 11.81102 -18.38921
vt -19.68504 -3.158581
vt -19.68504 -2.324344
vt 11.81102 -3.158581
vt 11.81102 -2.324344
vt 19.68504 -18.38921
vt 19.68504 -18.78291
vt -12.16535 -18.38921
vt -12.16535 -18.78291
vt 19.68504 -13.50055
vt 19.68504 -13.89425
vt -12.16535 -13.50055
vt -12.16535 -13.89425
vt 18.78291 27.63441
vt 18.78291 23.6974
vt 13.50055 27.63441
vt 18.38921 23.6974
vt 13.89425 23.6974
vt 13.50055 23.6974
vt 11.81102 -1.579077E-13
vt -19.68504 -1.578984E-13
vt 11.81102 3.543307
vt -19.68504 3.543307
vt -11.81102 -9.341292E-18
vt -11.81102 3.543307
vt 19.68504 0
vt 19.68504 3.543307
vt 12.59842 0
vt 19.40945 4.330709
vt 18.38921 4.330709
vt 13.89425 4.330709
vt 12.87402 4.330709
vt 12.59842 3.543307
vt -11.81102 8.957654
vt -19.68504 8.957654
vt -12.16535 9.821108
vt -19.33071 9.821108
vt -20.07874 -4.128778
vt -19.72441 -3.265325
vt -12.20472 -4.128778
vt -12.55906 -3.265325
vt -11.81102 -12.20472
vt -11.81102 -12.59842
vt -19.68504 -12.20472
vt -11.81102 -19.68504
vt 19.68504 -19.68504
vt 19.68504 -12.59842
vt -11.81102 -20.07874
vt -19.68504 -20.07874
vt -19.68504 -12.59842
vt 20.07874 -2.2486E-14
vt 19.68504 -2.247666E-14
vt 20.07874 4.330709
vt 19.68504 30.4685
vt 11.81102 30.4685
vt 19.68504 32.43701
vt 11.81102 32.43701
vt -20.07874 -8.555439E-15
vt -20.07874 4.330709
vt -12.59842 -8.536757E-15
vt -12.20472 4.330709
vt -12.20472 -8.555439E-15
vt 19.33071 5.11811
vt 12.16535 5.11811
vt 19.33071 29.6811
vt 12.16535 29.6811
vt 19.68504 -1.317921E-13
vt 11.81102 -1.317921E-13
vt 19.68504 4.330709
vt 11.81102 4.330709
vt -12.16535 21.91304
vt -19.33071 21.91304
vt -11.81102 22.7765
vt -19.68504 22.7765
vt 11.81102 -12.20472
vt 19.68504 -12.20472
vt 11.81102 -20.07874
vt 19.68504 -20.07874
vt 13.89425 5.11811
vt 12.55906 5.11811
vt 12.55906 29.6811
vt 19.72441 29.6811
vt 19.72441 5.11811
vt 18.38921 5.11811
vt 19.33071 35.16104
vt 12.16535 35.16104
vt 19.68504 36.02449
vt 11.81102 36.02449
vt -20.07874 35.86293
vt -12.20472 35.86293
vt -19.72441 34.99948
vt -12.55906 34.99948
vt -20.07874 30.4685
vt -20.07874 32.43701
vt -12.20472 30.4685
vt -12.20472 32.43701
vt -19.72441 5.11811
vt -19.72441 29.6811
vt -12.55906 5.11811
vt -12.55906 29.6811
vt -11.81102 30.4685
vt -19.68504 30.4685
vt -11.81102 32.43701
vt -19.68504 32.43701
vt -12.16535 5.11811
vt -19.33071 5.11811
vt -12.16535 29.6811
vt -19.33071 29.6811
vt 20.07874 32.43701
vt 20.07874 30.4685
vt 12.20472 32.43701
vt 12.20472 30.4685
vt 20.07874 22.93806
vt 19.72441 22.0746
vt 12.20472 22.93806
vt 12.55906 22.0746
vt 19.68504 -4.290339
vt 11.81102 -4.290339
vt 19.33071 -3.426886
vt 12.16535 -3.426886
vt 20.07874 8.796093
vt 19.40945 8.796093
vt 19.72441 9.659547
vt 18.38921 9.659547
vt 18.38921 8.796093
vt 13.89425 9.659547
vt 13.89425 8.796093
vt 12.55906 9.659547
vt 12.87402 8.796093
vt 12.20472 8.796093
vt 19.68504 7.506275
vt -11.81102 7.506275
vt 19.68504 8.340512
vt -11.81102 8.340512
vt 19.68504 23.6974
vt -12.16535 23.6974
vt 19.68504 27.63441
vt -12.16535 27.63441
vt 12.20472 4.330709
vt 12.59842 -1.813309E-14
vt 12.20472 -1.814243E-14
vt -11.81102 -1.868258E-17
vt -19.68504 -1.868258E-17
vt -11.81102 4.330709
vt -19.68504 4.330709

usemtl stone

f 3/3/1 2/2/1 1/1/1
f 2/2/1 3/3/1 4/4/1
f 7/7/2 6/6/2 5/5/2
f 6/6/2 7/7/2 8/8/2
f 7/11/1 9/10/1 8/9/1
f 9/10/1 7/11/1 10/12/1
f 13/15/1 12/14/1 11/13/1
f 12/14/1 13/15/1 14/16/1
f 16/19/3 11/18/3 15/17/3
f 11/18/3 16/19/3 13/20/3
f 18/23/4 6/22/4 17/21/4
f 6/22/4 18/23/4 5/24/4
f 21/27/4 20/26/4 19/25/4
f 20/26/4 21/27/4 22/28/4
f 9/31/5 6/30/5 8/29/5
f 6/30/5 9/31/5 17/32/5
f 17/32/5 9/31/5 20/33/5
f 20/33/5 9/31/5 19/34/5
f 16/37/2 24/36/2 23/35/2
f 24/36/2 16/37/2 15/38/2
f 27/41/6 26/40/6 25/39/6
f 26/40/6 27/41/6 28/42/6
f 15/42/5 27/43/5 24/41/5
f 27/43/5 15/42/5 11/44/5
f 27/43/5 11/44/5 12/45/5
f 27/43/5 12/45/5 1/46/5
f 27/43/5 1/46/5 2/47/5
f 27/43/5 2/47/5 28/48/5
f 31/51/7 30/50/7 29/49/7
f 30/50/7 31/51/7 32/52/7
f 30/55/8 34/54/8 33/53/8
f 34/54/8 30/55/8 32/56/8
f 36/59/4 25/58/4 35/57/4
f 25/58/4 36/59/4 23/60/4
f 24/61/4 25/58/4 23/60/4
f 25/58/4 24/61/4 27/62/4
f 23/60/4 36/59/4 37/63/4
f 37/63/4 36/59/4 38/64/4
f 38/64/4 36/59/4 39/65/4
f 40/68/5 23/67/5 37/66/5
f 23/67/5 40/68/5 16/42/5
f 16/42/5 40/68/5 13/44/5
f 43/71/2 42/70/2 41/69/2
f 42/70/2 43/71/2 44/72/2
f 39/75/9 33/74/9 38/73/9
f 33/74/9 39/75/9 30/76/9
f 30/76/9 39/75/9 36/77/9
f 46/80/2 45/79/2 34/78/2
f 45/79/2 46/80/2 47/81/2
f 33/84/2 37/83/2 38/82/2
f 37/83/2 33/84/2 40/85/2
f 50/88/10 49/87/10 48/86/10
f 49/87/10 50/88/10 51/89/10
f 44/92/1 53/91/1 52/90/1
f 53/91/1 44/92/1 43/93/1
f 21/34/5 54/94/5 22/33/5
f 54/94/5 21/34/5 31/95/5
f 31/95/5 21/34/5 48/96/5
f 10/31/5 48/96/5 21/34/5
f 7/29/5 48/96/5 10/31/5
f 7/29/5 47/97/5 48/96/5
f 47/97/5 7/29/5 45/98/5
f 5/30/5 45/98/5 7/29/5
f 45/98/5 5/30/5 55/99/5
f 55/99/5 5/30/5 18/32/5
f 41/102/11 47/101/11 46/100/11
f 47/101/11 41/102/11 42/103/11
f 46/106/12 51/105/12 41/104/12
f 51/105/12 46/106/12 49/107/12
f 51/110/9 43/109/9 41/108/9
f 43/109/9 51/110/9 53/111/9
f 32/114/9 46/113/9 34/112/9
f 46/113/9 32/114/9 49/115/9
f 52/118/6 51/117/6 50/116/6
f 51/117/6 52/118/6 53/119/6
f 48/122/6 32/121/6 31/120/6
f 32/121/6 48/122/6 49/123/6
f 52/126/5 42/125/5 44/124/5
f 42/125/5 52/126/5 50/127/5
f 50/130/13 47/129/13 42/128/13
f 47/129/13 50/130/13 48/131/13
f 34/134/14 40/133/14 33/132/14
f 40/133/14 34/134/14 45/135/14
f 45/138/15 13/137/15 40/136/15
f 13/137/15 45/138/15 55/139/15
f 13/137/15 55/139/15 14/140/15
f 31/143/15 3/142/15 54/141/15
f 3/142/15 31/143/15 4/144/15
f 4/144/15 31/143/15 29/145/15
f 2/148/16 26/147/16 28/146/16
f 26/147/16 2/148/16 4/149/16
f 9/152/6 21/151/6 19/150/6
f 21/151/6 9/152/6 10/153/6
f 29/154/5 26/48/5 4/47/5
f 26/48/5 29/154/5 25/155/5
f 25/155/5 29/154/5 35/156/5
f 29/159/6 36/158/6 35/157/6
f 36/158/6 29/159/6 30/160/6

usemtl brick

f 1/84/6 54/120/6 3/159/6
f 54/120/6 1/84/6 20/150/6
f 54/120/6 20/150/6 22/151/6
f 55/79/2 12/160/2 14/85/2
f 12/160/2 55/79/2 17/6/2
f 17/6/2 55/79/2 18/5/2
f 20/33/5 12/45/5 17/32/5
f 12/45/5 20/33/5 1/46/5

