# Created by Kenney (www.kenney.nl)

mtllib candle.mtl

g candle

v 0.025 0 0.0125
v 0.025 0 -0.0125
v 0.0125 0 0.025
v 0.0125 0 -0.025
v -0.0125 0 0.025
v -0.0125 0 -0.025
v -0.025 0 0.0125
v -0.025 0 -0.0125
v -0.0125 0.1 0.025
v -0.025 0.1 0.0125
v 0.0125 0.1 0.025
v 0.025 0.1 0.0125
v 0.025 0.1 -0.0125
v 0.0125 0.1 -0.025
v -0.025 0.1 -0.0125
v -0.0125 0.1 -0.025
v 0.0046875 0.1 -0.0046875
v 0.0046875 0.1 0.0046875
v -0.0046875 0.1 -0.0046875
v -0.0046875 0.1 0.0046875
v 0.00625 0.116 -0.00625
v 0.00625 0.116 0.00625
v -0.00625 0.116 -0.00625
v -0.00625 0.116 0.00625

vn 0 -1 0
vn -0.1913417 0 0.4619398
vn -0.4619398 0 0.1913417
vn 0.1913417 0 0.4619398
vn 0.4619398 0 0.1913417
vn 0.4619398 0 -0.1913417
vn 0.1913417 0 -0.4619398
vn -0.4619398 0 -0.1913417
vn -0.1913417 0 -0.4619398
vn 0 1 0
vn -0.3407921 -0.2662439 -0.3407921
vn 0.3407921 -0.2662439 -0.3407921
vn -0.3407921 -0.2662439 0.3407921
vn 0.3407921 -0.2662439 0.3407921

vt 1.968504 0.984252
vt 1.968504 -0.984252
vt 0.984252 1.968504
vt 0.984252 -1.968504
vt -0.984252 1.968504
vt -0.984252 -1.968504
vt -1.968504 0.984252
vt -1.968504 -0.984252
vt 0.6959713 0
vt -0.6959713 0
vt 0.6959713 3.937008
vt -0.6959713 3.937008
vt 0.984252 0
vt -0.984252 0
vt 0.984252 3.937008
vt -0.984252 3.937008
vt 0.6959713 1.202224E-30
vt -0.6959713 1.202224E-30
vt -0.3690945 -0.3690945
vt -0.3690945 0.3690945
vt 0.3690945 -0.3690945
vt 0.3690945 0.3690945
vt -0.492126 -0.492126
vt -0.492126 0.492126
vt 0.492126 -0.492126
vt 0.492126 0.492126
vt 0.3690945 3.93475
vt -0.3690945 3.93475
vt 0.492126 4.576573
vt -0.492126 4.576573

usemtl skin

f 3/3/1 2/2/1 1/1/1
f 2/2/1 3/3/1 4/4/1
f 4/4/1 3/3/1 5/5/1
f 4/4/1 5/5/1 6/6/1
f 6/6/1 5/5/1 7/7/1
f 6/6/1 7/7/1 8/8/1
f 9/11/2 7/10/3 5/9/2
f 7/10/3 9/11/2 10/12/3
f 11/15/4 5/14/2 3/13/4
f 5/14/2 11/15/4 9/16/2
f 11/12/4 1/9/5 12/11/5
f 1/9/5 11/12/4 3/10/4
f 12/16/5 2/13/6 13/15/6
f 2/13/6 12/16/5 1/14/5
f 14/11/7 2/10/6 4/9/7
f 2/10/6 14/11/7 13/12/6
f 15/11/8 6/18/9 8/17/8
f 6/18/9 15/11/8 16/12/9
f 7/13/3 15/16/8 8/14/8
f 15/16/8 7/13/3 10/15/3
f 16/15/9 4/14/7 6/13/9
f 4/14/7 16/15/9 14/16/7
f 14/6/10 12/7/10 13/8/10
f 12/7/10 14/6/10 11/5/10
f 11/5/10 14/6/10 17/19/10
f 17/19/10 14/6/10 16/4/10
f 18/20/10 11/5/10 17/19/10
f 17/19/10 16/4/10 19/21/10
f 11/5/10 18/20/10 9/3/10
f 19/21/10 16/4/10 20/22/10
f 9/3/10 18/20/10 20/22/10
f 9/3/10 20/22/10 16/4/10
f 9/3/10 16/4/10 15/2/10
f 9/3/10 15/2/10 10/1/10

usemtl woodDark

f 23/25/10 22/24/10 21/23/10
f 22/24/10 23/25/10 24/26/10
f 23/29/11 17/28/12 19/27/11
f 17/28/12 23/29/11 21/30/12
f 19/28/11 24/29/13 23/30/11
f 24/29/13 19/28/11 20/27/13
f 22/29/14 20/28/13 18/27/14
f 20/28/13 22/29/14 24/30/13
f 22/30/14 17/27/12 21/29/12
f 17/27/12 22/30/14 18/28/14

