# Created by Kenney (www.kenney.nl)

mtllib characterGhost.mtl

g armLeft

v 0.185796 0.483184 -0.055796
v 0.241592 0.427388 -0.05579599
v 0.185796 0.483184 0.055796
v 0.241592 0.427388 0.055796
v 0.13 0.1468661 -0.01069633
v 0.13 0.35 0.055796
v 0.13 0.1757483 0.1008957
v 0.13 0.483184 0.055796
v 0.13 0.3211178 -0.05579599
v 0.13 0.483184 -0.055796
v 0.181592 0.1757483 0.1008957
v 0.241592 0.2338343 0.08586189
v 0.241592 0.35 0.055796
v 0.181592 0.1468661 -0.01069633
v 0.241592 0.2049522 -0.0257301
v 0.241592 0.3211178 -0.05579599

vn 0.3284954 0.7930582 0
vn 0.6069804 0.6069804 0
vn -0.8584 0 0
vn 0 0.2150831 0.8310173
vn 0 -0.2150831 -0.8310173
vn 0.6069804 -0.587618 0.1520867
vn 0.8584 0 0
vn 0 0 -0.8584
vn 0 0.8584 0
vn 0 0 0.8584
vn 0 -0.8310173 0.2150831

vt 2.559055 -1.809525
vt 2.559055 -5.428576
vt -2.559055 -1.809525
vt -2.559055 -5.428576
vt -0.490582 -15.42505
vt 2.559055 -6.108416
vt 4.627528 -14.10038
vt 2.559055 2.127846E-14
vt -2.559055 -7.433081
vt -2.559055 2.127644E-14
vt 2.366241 -14.81007
vt 5.354147E-08 -14.81007
vt 5.11811 -12.0582
vt 3.813077E-08 -6.554764
vt 5.11811 -6.554764
vt -6.085145E-08 -14.81007
vt -2.366241 -14.81007
vt -7.626232E-08 -6.554764
vt -5.11811 -12.0582
vt -5.11811 -6.554764
vt 2.388665 -6.100101
vt 1.050985 -9.754712
vt -2.575973 -4.282917
vt -3.913653 -7.937529
vt 2.559055 -2.559055
vt 2.559055 -7.433081
vt -2.559055 -2.559055
vt 1.180098 -12.76096
vt -2.559055 -6.108417
vt -3.938012 -11.4363
vt -5.265354E-08 -7.433081
vt -5.11811 -7.433081
vt -5.265354E-08 1.087359E-08
vt -5.11811 -2.559055
vt -2.559055 1.087359E-08
vt -2.559055 2.559055
vt -7.626232E-08 -2.559055
vt 7.958079E-13 2.559055
vt 5.11811 -6.108416
vt 3.813077E-08 -6.108416
vt 5.11811 -2.559055
vt 3.813077E-08 2.056085E-14
vt 2.559055 2.056085E-14
vt 2.366241 -4.339876
vt 5.7193E-08 -4.339876
vt 2.366241 0.9468803
vt 1.909749E-08 0.9468803

usemtl wax

f 3/3/1 2/2/2 1/1/1
f 2/2/2 3/3/1 4/4/2
f 7/7/3 6/6/3 5/5/3
f 8/8/3 5/5/3 6/6/3
f 8/8/3 9/9/3 5/5/3
f 9/9/3 8/8/3 10/10/3
f 12/13/4 7/12/4 11/11/4
f 7/12/4 12/13/4 6/14/4
f 6/14/4 12/13/4 13/15/4
f 9/18/5 14/17/5 5/16/5
f 14/17/5 9/18/5 15/19/5
f 15/19/5 9/18/5 16/20/5
f 12/23/6 14/22/6 15/21/6
f 14/22/6 12/23/6 11/24/6
f 4/27/7 16/26/7 2/25/7
f 16/26/7 4/27/7 15/28/7
f 15/28/7 4/27/7 13/29/7
f 15/28/7 13/29/7 12/30/7
f 10/33/8 16/32/8 9/31/8
f 16/32/8 10/33/8 2/34/8
f 2/34/8 10/33/8 1/35/8
f 10/37/9 3/36/1 1/27/1
f 3/36/1 10/37/9 8/38/9
f 4/41/10 6/40/10 13/39/10
f 6/40/10 4/41/10 8/42/10
f 8/42/10 4/41/10 3/43/10
f 11/46/11 5/45/11 14/44/11
f 5/45/11 11/46/11 7/47/11

g armRight

v -0.185796 0.483184 -0.055796
v -0.185796 0.483184 0.055796
v -0.241592 0.427388 -0.055796
v -0.241592 0.427388 0.055796
v -0.13 0.35 0.055796
v -0.241592 0.35 0.055796
v -0.13 0.483184 0.055796
v -0.13 0.1757483 0.1008957
v -0.181592 0.1757483 0.1008957
v -0.241592 0.2338343 0.08586189
v -0.241592 0.2049522 -0.0257301
v -0.241592 0.3211178 -0.055796
v -0.13 0.3211178 -0.055796
v -0.13 0.483184 -0.055796
v -0.13 0.1468661 -0.01069634
v -0.181592 0.1468661 -0.01069634

vn -0.3826834 0.9238795 0
vn -0.7071068 0.7071068 0
vn 0 0 1
vn 0 0.2505628 0.9681004
vn -1 0 0
vn 0 0 -1
vn 1 0 0
vn 0 1 0
vn 0 -0.2505628 -0.9681004
vn -0.7071068 -0.6845503 0.1771747
vn 0 -0.9681004 0.2505628

vt -2.196693 -1.553296
vt 2.196693 -1.553296
vt -2.196693 -4.659889
vt 2.196693 -4.659889
vt -3.273214E-08 -5.243464
vt -4.393386 -5.243464
vt -3.273214E-08 2.90425E-15
vt -4.393386 -2.196693
vt -2.196693 2.90425E-15
vt -4.596069E-08 -12.71297
vt -2.031181 -12.71297
vt -3.273214E-08 -5.626609
vt -4.393386 -10.35076
vt -4.393386 -5.626609
vt -1.012996 -10.95401
vt 2.196693 -5.243464
vt 3.380389 -9.816917
vt 2.196693 -2.196693
vt -2.196693 -2.196693
vt -2.196693 -6.380557
vt 4.393386 -6.380557
vt 4.519848E-08 -6.380557
vt 4.393386 -2.196693
vt 4.519848E-08 9.333879E-09
vt 2.196693 9.333879E-09
vt 2.196693 3.518512E-15
vt 2.196693 -6.380557
vt -2.196693 3.520248E-15
vt 0.4211156 -13.24086
vt -2.196693 -5.243464
vt -3.97227 -12.10377
vt 0 2.196693
vt 2.196693 2.196693
vt 6.546426E-08 -2.196693
vt 5.223558E-08 -12.71297
vt 6.546426E-08 -5.626609
vt 2.031181 -12.71297
vt 4.393386 -10.35076
vt 4.393386 -5.626609
vt -2.05043 -5.236327
vt 2.211215 -3.676456
vt -0.9021654 -8.373445
vt 3.35948 -6.813574
vt -1.639398E-08 0.812802
vt -4.909516E-08 -3.725349
vt -2.031181 0.812802
vt -2.031181 -3.725349

usemtl wax

f 19/50/13 18/49/12 17/48/12
f 18/49/12 19/50/13 20/51/13
f 23/54/14 22/53/14 21/52/14
f 22/53/14 23/54/14 20/55/14
f 20/55/14 23/54/14 18/56/14
f 21/59/15 25/58/15 24/57/15
f 25/58/15 21/59/15 26/60/15
f 26/60/15 21/59/15 22/61/15
f 26/64/16 22/63/16 27/62/16
f 20/65/16 27/62/16 22/63/16
f 19/66/16 27/62/16 20/65/16
f 27/62/16 19/66/16 28/67/16
f 19/70/17 29/69/17 28/68/17
f 29/69/17 19/70/17 30/71/17
f 30/71/17 19/70/17 17/72/17
f 23/75/18 29/74/18 30/73/18
f 29/74/18 23/75/18 31/76/18
f 31/76/18 23/75/18 21/77/18
f 31/76/18 21/77/18 24/78/18
f 30/81/19 18/80/12 23/79/19
f 18/80/12 30/81/19 17/65/12
f 32/84/20 29/83/20 31/82/20
f 29/83/20 32/84/20 27/85/20
f 29/83/20 27/85/20 28/86/20
f 32/89/21 26/88/21 27/87/21
f 26/88/21 32/89/21 25/90/21
f 25/93/22 31/92/22 24/91/22
f 31/92/22 25/93/22 32/94/22

g body

v 0.156 0.2332905 -0.156
v 0.156 0.2332905 0.156
v 0.13 0.713184 -0.13
v 0.13 0.713184 0.13
v -0.13 0.713184 -0.13
v -0.1048918 0.743184 -0.1048918
v 0.1048918 0.743184 -0.1048918
v -0.13 0.713184 0.13
v 0.1048918 0.743184 0.1048918
v -0.1048918 0.743184 0.1048918
v 0.156 0.1726513 -0.156
v 0.156 0.1726513 0.156
v 0.078 0.1120121 -0.156
v 8.314157E-10 0.1726513 -0.156
v -0.156 0.1726513 -0.156
v -0.156 0.2332905 -0.156
v -0.078 0.1120121 -0.156
v -0.156 0.2332905 0.156
v 0.078 0.1120121 0.156
v 8.314157E-10 0.1726513 0.156
v -0.156 0.1726513 0.156
v -0.078 0.1120121 0.156
v 0.02483049 0.5316828 0.1398335
v 0.09248304 0.5657476 0.1379879
v 0.02483049 0.4506049 0.1442262
v -0.02483049 0.5316828 0.1398335
v -0.02483049 0.4506049 0.1442262
v -0.09248304 0.5657476 0.1379879
v -0.09248304 0.6257952 0.1347346
v -0.03234744 0.5657476 0.1379879
v -0.03234744 0.6257952 0.1347346
v 0.03234744 0.5657476 0.1379879
v 0.09248304 0.6257952 0.1347346
v 0.03234744 0.6257952 0.1347346

vn 0.2596193 0.01406583 0
vn 0 0.1668721 -0.1993833
vn 0 0.1668721 0.1993833
vn -0.26 0 0
vn 0.26 0 0
vn 0.1993833 0.1668721 0
vn 0 0 0.26
vn 0 0 -0.26
vn 0 -0.26 0
vn -0.1993833 0.1668721 0
vn 0 0.26 0
vn -0.2596193 0.01406583 0
vn 0 0.01406583 -0.2596193
vn 0 0.01406583 0.2596193

vt 23.62205 -39.06224
vt -23.62205 -39.06224
vt 19.68504 33.71143
vt -19.68504 33.71143
vt 19.68504 14.07351
vt -19.68504 14.07351
vt 15.88307 19.99729
vt -15.88307 19.99729
vt -23.62205 -47.02191
vt -23.62205 -37.83971
vt 23.62205 -47.02191
vt 23.62205 -37.83971
vt 11.81102 -56.20411
vt -1.023182E-12 -47.02191
vt -11.81102 -56.20411
vt 23.62205 23.62205
vt 23.62205 -23.62205
vt -23.62205 23.62205
vt -23.62205 -23.62205
vt -15.88307 -15.88307
vt -15.88307 15.88307
vt 15.88307 -15.88307
vt 15.88307 15.88307
vt 3.759918 6.187606
vt 14.0041 11.35338
vt 3.759918 -6.107497
vt -3.759918 6.187606
vt -3.759918 -6.107497
vt -14.0041 11.35338
vt -14.0041 20.45931
vt -4.89816 11.35338
vt -4.89816 20.45931
vt 4.89816 11.35338
vt 14.0041 20.45931
vt 4.89816 20.45931

usemtl wax

f 35/97/23 34/96/23 33/95/23
f 34/96/23 35/97/23 36/98/23
f 38/101/24 35/100/24 37/99/24
f 35/100/24 38/101/24 39/102/24
f 41/101/25 40/100/25 36/99/25
f 40/100/25 41/101/25 42/102/25
f 44/105/26 33/104/26 43/103/26
f 33/104/26 44/105/26 34/106/26
f 43/103/27 33/104/27 44/105/27
f 34/106/27 44/105/27 33/104/27
f 39/101/28 36/100/28 35/99/28
f 36/100/28 39/101/28 41/102/28
f 43/105/29 46/108/29 45/107/29
f 46/108/29 43/105/29 33/106/29
f 46/108/29 33/106/29 47/103/29
f 47/103/29 33/106/29 48/104/29
f 47/103/29 49/109/29 46/108/29
f 45/107/30 46/108/30 43/105/30
f 33/106/30 43/105/30 46/108/30
f 47/103/30 33/106/30 46/108/30
f 46/108/30 49/109/30 47/103/30
f 48/104/30 33/106/30 47/103/30
f 50/112/31 33/111/31 34/110/31
f 33/111/31 50/112/31 48/113/31
f 40/99/32 38/102/32 37/100/32
f 38/102/32 40/99/32 42/101/32
f 38/116/33 41/115/33 39/114/33
f 41/115/33 38/116/33 42/117/33
f 50/95/34 37/98/34 48/96/34
f 37/98/34 50/95/34 40/97/34
f 37/97/35 33/96/35 48/95/35
f 33/96/35 37/97/35 35/98/35
f 44/105/29 52/108/29 51/107/29
f 52/108/29 44/105/29 34/106/29
f 52/108/29 34/106/29 53/103/29
f 53/103/29 34/106/29 50/104/29
f 53/103/29 54/109/29 52/108/29
f 51/107/30 52/108/30 44/105/30
f 34/106/30 44/105/30 52/108/30
f 53/103/30 34/106/30 52/108/30
f 52/108/30 54/109/30 53/103/30
f 50/104/30 34/106/30 53/103/30
f 53/105/26 48/104/26 47/103/26
f 48/104/26 53/105/26 50/106/26
f 47/103/27 48/104/27 53/105/27
f 50/106/27 53/105/27 48/104/27
f 57/120/36 56/119/36 55/118/36
f 55/118/36 56/119/36 58/121/36
f 57/120/36 34/95/36 56/119/36
f 34/95/36 57/120/36 50/96/36
f 59/122/36 50/96/36 57/120/36
f 56/119/36 34/95/36 36/97/36
f 60/123/36 50/96/36 59/122/36
f 60/123/36 59/122/36 58/121/36
f 50/96/36 60/123/36 40/98/36
f 40/98/36 60/123/36 61/124/36
f 40/98/36 61/124/36 36/97/36
f 60/123/36 58/121/36 62/125/36
f 58/121/36 56/119/36 62/125/36
f 63/126/36 36/97/36 61/124/36
f 64/127/36 62/125/36 56/119/36
f 62/125/36 64/127/36 63/126/36
f 56/119/36 36/97/36 65/128/36
f 63/126/36 64/127/36 66/129/36
f 65/128/36 36/97/36 66/129/36
f 66/129/36 36/97/36 63/126/36

usemtl woodDark

f 55/118/36 59/122/36 57/120/36
f 59/122/36 55/118/36 58/121/36
f 63/126/36 60/123/36 62/125/36
f 60/123/36 63/126/36 61/124/36
f 65/128/36 64/127/36 56/119/36
f 64/127/36 65/128/36 66/129/36

