# Created by Kenney (www.kenney.nl)

mtllib cross.mtl

g cross

v 0.0675 0.9 -0.04
v 0.0675 0.7875 -0.04
v 0.0675 0.9 0.04
v 0.0675 0.7875 0.04
v -0.07875 0.91125 -0.04
v 0 0.99 -0.04
v -0.07875 0.91125 0.04
v 0 0.99 0.04
v -0.178875 0.79875 -0.04
v -0.178875 0.7875 -0.04
v -0.178875 0.79875 0.04
v -0.178875 0.7875 0.04
v -0.080325 0.11 -0.0476
v 0.080325 0.11 -0.0476
v -0.0675 0.14 -0.04
v 0.0675 0.14 -0.04
v 0.178875 0.7875 -0.04
v 0.178875 0.79875 -0.04
v 0.178875 0.7875 0.04
v 0.178875 0.79875 0.04
v -0.0675 0.7875 -0.04
v -0.0675 0.7875 0.04
v -0.0675 0.6525 0.04
v -0.0675 0.6525 -0.04
v -0.178875 0.6525 0.04
v -0.178875 0.6525 -0.04
v -0.189847 0.64125 -0.04
v -0.26775 0.721125 -0.04
v -0.189847 0.64125 0.04
v -0.26775 0.721125 0.04
v 0.0675 0.14 0.04
v -0.0675 0.14 0.04
v 0.0675 0.6525 -0.04
v 0.0675 0.6525 0.04
v 0.178875 0.64125 -0.04
v 0.178875 0.6525 -0.04
v 0.178875 0.64125 0.04
v 0.178875 0.6525 0.04
v -0.0675 0.9 -0.04
v -0.0675 0.9 0.04
v 0.189589 0.79875 -0.04
v 0.26775 0.716681 -0.04
v 0.189589 0.79875 0.04
v 0.26775 0.716681 0.04
v -0.190125 0.79875 -0.04
v 0 0.7875 -0.04
v -0.0675 0.72 -0.04
v 0 0.6525 -0.04
v 0.0675 0.72 -0.04
v -0.07875 0.9 -0.04
v 0.07875 0.9 -0.04
v 0.07875 0.91125 -0.04
v -0.178875 0.64125 -0.04
v 0.19041 0.64125 -0.04
v -0.190125 0.79875 0.04
v 0.07875 0.91125 0.04
v -0.178875 0.64125 0.04
v 0.07875 0.9 0.04
v 0.19041 0.64125 0.04
v 0.080325 0.11 0.0476
v -0.080325 0.11 0.0476
v 0.092374 0 0.0476
v -0.092374 0 0.0476
v -0.07875 0.9 0.04
v 0.092374 0 -0.0476
v -0.092374 0 -0.0476
v 0 0.6525 0.04
v -0.0675 0.72 0.04
v 0.0675 0.72 0.04
v 0 0.7875 0.04
v 0 0.68625 0.06
v -0.03375 0.72 0.06
v 0.03375 0.72 0.06
v 0 0.75375 0.06
v 0.03375 0.72 -0.06
v 0 0.75375 -0.06
v -0.03375 0.72 -0.06
v 0 0.68625 -0.06

vn 1 0 0
vn -0.7071068 0.7071068 0
vn 0 0.2455757 -0.9693775
vn -1 0 0
vn 0 1 0
vn 0 -1 0
vn -0.7158887 -0.6982144 0
vn 0.7241377 0.6896553 0
vn 0 0 -1
vn 0.7071068 0.7071068 0
vn 0.6982164 -0.7158868 0
vn 0.9195014 0.3930869 0
vn -0.9195014 0.3930869 0
vn 0 0 1
vn 0 0.2455757 0.9693775
vn -0.9940544 0.1088851 0
vn 0.9940544 0.1088851 0
vn -0.4541864 -0.4541864 0.7664395
vn 0.4541864 -0.4541864 0.7664395
vn -0.4541864 0.4541864 0.7664395
vn 0.4541864 0.4541864 0.7664395
vn 0.4541864 0.4541864 -0.7664395
vn -0.4541864 0.4541864 -0.7664395
vn -0.4541864 -0.4541864 -0.7664395
vn 0.4541864 -0.4541864 -0.7664395

vt 1.574803 35.43307
vt 1.574803 31.00394
vt -1.574803 35.43307
vt -1.574803 31.00394
vt -1.574803 23.17584
vt -1.574803 27.56046
vt 1.574803 23.17584
vt 1.574803 27.56046
vt 1.574803 31.44685
vt -1.574803 31.44685
vt 3.162402 3.737879
vt -3.162402 3.737879
vt 2.65748 4.956292
vt -2.65748 4.956292
vt 2.65748 -1.574803
vt 2.65748 1.574803
vt 7.042323 -1.574803
vt 7.042323 1.574803
vt -2.65748 1.574803
vt -2.65748 -1.574803
vt -7.042323 1.574803
vt -7.042323 -1.574803
vt -1.574803 23.29203
vt -1.574803 27.68473
vt 1.574803 23.29203
vt 1.574803 27.68473
vt 1.574803 25.68898
vt 1.574803 5.511811
vt -1.574803 25.68898
vt -1.574803 5.511811
vt -1.574803 25.24606
vt 1.574803 25.24606
vt 1.574803 17.62417
vt 1.574803 13.16222
vt -1.574803 17.62417
vt -1.574803 13.16222
vt 7.042323 31.44685
vt 7.485236 31.44685
vt 7.042323 31.00394
vt 10.54134 28.39075
vt 0 31.00394
vt 2.65748 31.00394
vt 2.65748 35.43307
vt 2.65748 28.34646
vt 0 25.68898
vt -2.65748 31.00394
vt -7.042323 31.00394
vt -2.65748 35.43307
vt -2.65748 28.34646
vt 3.100394 35.87598
vt 3.100394 35.43307
vt -3.100394 35.43307
vt -3.100394 35.87598
vt 0 38.97638
vt 2.65748 25.68898
vt 7.042323 25.68898
vt 7.042323 25.24606
vt 7.474291 25.24606
vt -2.65748 25.68898
vt -2.65748 5.511811
vt 2.65748 5.511811
vt -7.042323 25.68898
vt -10.54134 28.21579
vt -7.496457 25.24606
vt -7.042323 25.24606
vt -7.464134 31.44685
vt -7.042323 31.44685
vt -1.574803 12.62144
vt -1.574803 16.94342
vt 1.574803 12.62144
vt 1.574803 16.94342
vt 3.100394 1.574803
vt 3.100394 -1.574803
vt -1.574803 27.24713
vt 1.574803 27.24713
vt -1.574803 22.99383
vt 1.574803 22.99383
vt 1.874016 2.738994
vt -1.874016 2.738994
vt 1.574803 4.023497
vt -1.574803 4.023497
vt 3.636772 0
vt -3.636772 0
vt 3.162402 4.330709
vt -3.162402 4.330709
vt -3.100394 1.574803
vt -3.100394 -1.574803
vt 3.636772 1.874016
vt 3.636772 -1.874016
vt -3.636772 1.874016
vt -3.636772 -1.874016
vt -1.874016 -0.3959902
vt -1.874016 3.960621
vt 1.874016 -0.3959902
vt 1.874016 3.960621
vt 1.574803 35.87598
vt -1.574803 35.87598
vt -7.464134 -1.574803
vt -7.464134 1.574803
vt 7.485236 -1.574803
vt 7.485236 1.574803
vt 10.54134 28.21579
vt 7.496457 25.24606
vt 7.464134 31.44685
vt -10.54134 28.39075
vt -7.474291 25.24606
vt -7.485236 31.44685
vt 7.496457 1.574803
vt 7.496457 -1.574803
vt -7.474291 1.574803
vt -7.474291 -1.574803
vt 0 27.01772
vt -1.32874 28.34646
vt 1.32874 28.34646
vt 0 29.6752
vt 0.8028384 23.50181
vt -1.483369 26.4847
vt 1.204258 24.99326
vt 0.06115371 26.4847
vt -0.8028384 23.50181
vt -1.204258 24.99326
vt 1.483369 26.4847
vt -0.06115371 26.4847
vt 0.06115371 24.02339
vt -1.483369 24.02339
vt 1.204258 25.51484
vt 0.8028384 27.00629
vt 1.483369 24.02339
vt -0.06115371 24.02339
vt -0.8028384 27.00629
vt -1.204258 25.51484

usemtl stone

f 3/3/1 2/2/1 1/1/1
f 2/2/1 3/3/1 4/4/1
f 7/7/2 6/6/2 5/5/2
f 6/6/2 7/7/2 8/8/2
f 11/10/1 10/2/1 9/9/1
f 10/2/1 11/10/1 12/4/1
f 15/13/3 14/12/3 13/11/3
f 14/12/3 15/13/3 16/14/3
f 19/2/4 18/10/4 17/4/4
f 18/10/4 19/2/4 20/9/4
f 10/17/5 22/16/5 21/15/5
f 22/16/5 10/17/5 12/18/5
f 25/21/6 24/20/6 23/19/6
f 24/20/6 25/21/6 26/22/6
f 29/25/7 28/24/7 27/23/7
f 28/24/7 29/25/7 30/26/7
f 32/19/6 16/15/6 31/16/6
f 16/15/6 32/19/6 15/20/6
f 34/29/1 16/28/1 33/27/1
f 16/28/1 34/29/1 31/30/1
f 37/32/4 36/29/4 35/31/4
f 36/29/4 37/32/4 38/27/4
f 22/2/4 39/3/4 21/4/4
f 39/3/4 22/2/4 40/1/4
f 2/20/5 19/21/5 17/22/5
f 19/21/5 2/20/5 4/19/5
f 43/35/8 42/34/8 41/33/8
f 42/34/8 43/35/8 44/36/8
f 10/39/9 45/38/9 9/37/9
f 45/38/9 10/39/9 28/40/9
f 46/41/9 28/40/9 10/39/9
f 46/41/9 10/39/9 21/42/9
f 46/41/9 21/42/9 39/43/9
f 47/44/9 28/40/9 46/41/9
f 48/45/9 28/40/9 47/44/9
f 46/41/9 39/43/9 2/46/9
f 17/47/9 46/41/9 2/46/9
f 2/46/9 39/43/9 1/48/9
f 17/47/9 49/49/9 46/41/9
f 39/43/9 5/50/9 1/48/9
f 5/50/9 39/43/9 50/51/9
f 1/48/9 5/50/9 51/52/9
f 51/52/9 5/50/9 52/53/9
f 52/53/9 5/50/9 6/54/9
f 24/55/9 28/40/9 48/45/9
f 26/56/9 28/40/9 24/55/9
f 53/57/9 28/40/9 26/56/9
f 28/40/9 53/57/9 27/58/9
f 33/59/9 24/55/9 48/45/9
f 33/59/9 48/45/9 49/49/9
f 16/60/9 24/55/9 33/59/9
f 24/55/9 16/60/9 15/61/9
f 33/59/9 49/49/9 36/62/9
f 36/62/9 49/49/9 42/63/9
f 42/63/9 49/49/9 17/47/9
f 54/64/9 36/62/9 42/63/9
f 36/62/9 54/64/9 35/65/9
f 42/63/9 17/47/9 41/66/9
f 41/66/9 17/47/9 18/67/9
f 30/70/2 45/69/2 28/68/2
f 45/69/2 30/70/2 55/71/2
f 8/6/10 52/7/10 6/8/10
f 52/7/10 8/6/10 56/5/10
f 25/29/1 53/32/1 26/27/1
f 53/32/1 25/29/1 57/31/1
f 3/16/6 51/73/6 58/72/6
f 51/73/6 3/16/6 1/15/6
f 32/28/4 24/29/4 15/30/4
f 24/29/4 32/28/4 23/27/4
f 59/76/11 42/75/11 44/74/11
f 42/75/11 59/76/11 54/77/11
f 34/16/6 36/17/6 38/18/6
f 36/17/6 34/16/6 33/15/6
f 16/80/12 60/79/12 14/78/12
f 60/79/12 16/80/12 31/81/12
f 61/78/13 15/81/13 13/79/13
f 15/81/13 61/78/13 32/80/13
f 60/84/14 63/83/14 62/82/14
f 63/83/14 60/84/14 61/85/14
f 64/86/6 39/20/6 40/19/6
f 39/20/6 64/86/6 50/87/6
f 63/90/6 65/89/6 62/88/6
f 65/89/6 63/90/6 66/91/6
f 31/13/15 61/12/15 60/11/15
f 61/12/15 31/13/15 32/14/15
f 63/94/16 13/93/16 66/92/16
f 13/93/16 63/94/16 61/95/16
f 56/97/1 51/1/1 52/96/1
f 51/1/1 56/97/1 58/3/1
f 13/84/9 65/83/9 66/82/9
f 65/83/9 13/84/9 14/85/9
f 18/22/5 43/99/5 41/98/5
f 43/99/5 18/22/5 20/21/5
f 45/100/5 11/18/5 9/17/5
f 11/18/5 45/100/5 55/101/5
f 34/55/14 32/60/14 31/61/14
f 32/60/14 34/55/14 23/59/14
f 23/59/14 34/55/14 67/45/14
f 23/59/14 67/45/14 68/49/14
f 23/59/14 68/49/14 25/62/14
f 34/55/14 44/102/14 67/45/14
f 38/56/14 44/102/14 34/55/14
f 37/57/14 44/102/14 38/56/14
f 44/102/14 37/57/14 59/103/14
f 67/45/14 44/102/14 69/44/14
f 69/44/14 44/102/14 19/39/14
f 19/39/14 44/102/14 43/104/14
f 19/39/14 43/104/14 20/37/14
f 19/39/14 70/41/14 69/44/14
f 70/41/14 19/39/14 4/42/14
f 70/41/14 4/42/14 3/43/14
f 30/105/14 25/62/14 68/49/14
f 30/105/14 68/49/14 70/41/14
f 29/106/14 25/62/14 30/105/14
f 25/62/14 29/106/14 57/65/14
f 30/105/14 70/41/14 12/47/14
f 30/105/14 12/47/14 55/107/14
f 55/107/14 12/47/14 11/67/14
f 12/47/14 70/41/14 22/46/14
f 70/41/14 3/43/14 22/46/14
f 22/46/14 3/43/14 40/48/14
f 3/43/14 56/50/14 40/48/14
f 56/50/14 3/43/14 58/51/14
f 40/48/14 56/50/14 64/52/14
f 64/52/14 56/50/14 7/53/14
f 7/53/14 56/50/14 8/54/14
f 60/93/17 65/94/17 14/95/17
f 65/94/17 60/93/17 62/92/17
f 37/18/6 54/109/6 59/108/6
f 54/109/6 37/18/6 35/17/6
f 64/1/4 5/97/4 50/3/4
f 5/97/4 64/1/4 7/96/4
f 29/110/6 53/22/6 57/21/6
f 53/22/6 29/110/6 27/111/6

usemtl stoneDark

f 73/114/14 72/113/14 71/112/14
f 72/113/14 73/114/14 74/115/14
f 71/118/18 68/117/18 67/116/18
f 68/117/18 71/118/18 72/119/18
f 69/122/19 71/121/19 67/120/19
f 71/121/19 69/122/19 73/123/19
f 74/126/20 68/125/20 72/124/20
f 68/125/20 74/126/20 70/127/20
f 70/130/21 73/129/21 69/128/21
f 73/129/21 70/130/21 74/131/21
f 76/126/22 49/125/22 75/124/22
f 49/125/22 76/126/22 46/127/22
f 46/130/23 77/129/23 47/128/23
f 77/129/23 46/130/23 76/131/23
f 47/122/24 78/121/24 48/120/24
f 78/121/24 47/122/24 77/123/24
f 77/114/9 75/113/9 78/112/9
f 75/113/9 77/114/9 76/115/9
f 78/118/25 49/117/25 48/116/25
f 49/117/25 78/118/25 75/119/25

