# Created by Kenney (www.kenney.nl)

mtllib cryptSmallDoorway.mtl

g cryptSmallDoorway

v 0.3 0 0.1
v 0.3 0 -0.1
v 0.2 0 0.1
v 0.2 0 -0.1
v 0.2 0.9 3.609557E-16
v 0.3 0.9 3.609557E-16
v 0.2 0.9499999 3.609557E-16
v 0.275 0.9499999 3.609557E-16
v 0.35 0.875 3.609557E-16
v 0.35 0.8 3.609557E-16
v 0.3 0.8 3.609557E-16
v -0.2 0.8 -0.1
v -0.2 0.8 0.05
v 0.2 0.8 -0.1
v 0.2 0.8 0.05
v 0.2 0.8 0.075
v 0.3 0.8 0.05
v 0.35 0.8 0.075
v -0.2 0.8 0.075
v -0.35 0.8 0.075
v -0.3 0.8 0.05
v -0.3 0.8 3.609557E-16
v -0.35 0.8 3.609557E-16
v -0.2 0 -0.1
v -0.2 0.4 0.05
v -0.2 0 0.1
v -0.2 0.35 0.1
v -0.2 0.9499999 0.075
v -0.2 0.9 0.05
v -0.2 0.9 3.609557E-16
v -0.2 0.9499999 3.609557E-16
v 0.2 0.4 0.05
v 0.2 0.35 0.1
v 0.2 0.9 0.05
v 0.2 0.9499999 0.075
v -0.3 0 0.1
v -0.3 0 -0.1
v 0.3 0.4 0.05
v -0.3 0.4 0.05
v -0.3 0.9 -0.1
v -0.3 0.9 3.609557E-16
v -0.3 0.35 0.1
v 0.35 0.875 0.075
v 0.275 0.9499999 0.075
v -0.35 0.875 3.609557E-16
v -0.35 0.875 0.075
v -0.275 0.9499999 3.609557E-16
v -0.275 0.9499999 0.075
v 0.3 0.35 0.1
v 0.3 0.9 -0.1

vn 0 -1 0
vn 0 0 -1
vn 1 0 0
vn -1 0 0
vn 0 0 1
vn 0 0.3826834 0.9238795
vn 0.9238795 0.3826834 0
vn 0.3826834 0.9238795 0
vn 0 1 0
vn -0.9238795 0.3826834 0
vn -0.3826834 0.9238795 0

vt 11.81102 3.937008
vt 11.81102 -3.937008
vt 7.874016 3.937008
vt 7.874016 -3.937008
vt -7.874016 35.43307
vt -11.81102 35.43307
vt -7.874016 37.40157
vt -10.82677 37.40157
vt -13.77953 34.44882
vt -13.77953 31.49606
vt -11.81102 31.49606
vt -7.874016 -3.937008
vt -7.874016 1.968504
vt 7.874016 1.968504
vt 7.874016 2.952756
vt 11.81102 1.968504
vt 13.77953 2.952756
vt 13.77953 1.421085E-14
vt 11.81102 1.421085E-14
vt -7.874016 2.952756
vt -13.77953 2.952756
vt -11.81102 1.968504
vt -11.81102 1.421085E-14
vt -13.77953 1.421085E-14
vt 3.937008 31.49606
vt 3.937008 0
vt -1.968504 31.49606
vt -1.968504 15.74803
vt -3.937008 0
vt -3.937008 13.77953
vt -2.952756 31.49606
vt -2.952756 37.40157
vt -1.968504 35.43307
vt -1.421085E-14 35.43307
vt -1.421085E-14 37.40157
vt -3.937008 31.49606
vt 1.968504 15.74803
vt 3.937008 13.77953
vt 1.968504 31.49606
vt 1.968504 35.43307
vt 2.952756 31.49606
vt 2.952756 37.40157
vt 1.421085E-14 37.40157
vt 1.421085E-14 35.43307
vt -7.874016 3.937008
vt -11.81102 3.937008
vt -11.81102 -3.937008
vt 7.874016 35.43307
vt -7.874016 31.49606
vt 7.874016 31.49606
vt 11.81102 31.49606
vt 7.874016 15.74803
vt 11.81102 15.74803
vt -7.874016 15.74803
vt -11.81102 15.74803
vt -3.937008 35.43307
vt 1.421085E-14 31.49606
vt -1.421085E-14 34.44882
vt -1.421085E-14 31.49606
vt -2.952756 34.44882
vt -10.82677 1.421085E-14
vt -10.82677 2.952756
vt -7.874016 1.421085E-14
vt 1.421085E-14 34.44882
vt 2.952756 34.44882
vt 7.874016 1.421085E-14
vt 10.82677 1.421085E-14
vt 10.82677 2.952756
vt 1.421085E-14 18.79122
vt 2.952756 18.79122
vt 1.421085E-14 14.6154
vt 2.952756 14.6154
vt -1.421085E-14 14.6154
vt -2.952756 14.6154
vt -1.421085E-14 18.79122
vt -2.952756 18.79122
vt 11.81102 0
vt 7.874016 0
vt 11.81102 13.77953
vt 7.874016 13.77953
vt -7.874016 0
vt -11.81102 0
vt -7.874016 13.77953
vt -11.81102 13.77953
vt -7.874016 6.959713
vt -11.81102 6.959713
vt -7.874016 9.743597
vt -11.81102 9.743597
vt 11.81102 6.959713
vt 7.874016 6.959713
vt 11.81102 9.743597
vt 7.874016 9.743597
vt 13.77953 31.49606
vt 13.77953 34.44882
vt 7.874016 37.40157
vt 10.82677 37.40157
vt 11.81102 35.43307
vt 3.937008 35.43307

usemtl stone

f 3/3/1 2/2/1 1/1/1
f 2/2/1 3/3/1 4/4/1
f 7/7/2 6/6/2 5/5/2
f 8/8/2 6/6/2 7/7/2
f 9/9/2 6/6/2 8/8/2
f 10/10/2 6/6/2 9/9/2
f 6/6/2 10/10/2 11/11/2
f 14/4/1 13/13/1 12/12/1
f 13/13/1 14/4/1 15/14/1
f 17/16/1 16/15/1 15/14/1
f 17/16/1 18/17/1 16/15/1
f 18/17/1 17/16/1 10/18/1
f 11/19/1 10/18/1 17/16/1
f 20/21/1 13/13/1 19/20/1
f 13/13/1 20/21/1 21/22/1
f 21/22/1 20/21/1 22/23/1
f 22/23/1 20/21/1 23/24/1
f 13/27/3 24/26/3 12/25/3
f 24/26/3 13/27/3 25/28/3
f 24/26/3 25/28/3 26/29/3
f 26/29/3 25/28/3 27/30/3
f 13/27/3 28/32/3 19/31/3
f 29/33/3 28/32/3 13/27/3
f 30/34/3 28/32/3 29/33/3
f 28/32/3 30/34/3 31/35/3
f 3/26/4 14/36/4 4/29/4
f 14/36/4 3/26/4 32/37/4
f 32/37/4 3/26/4 33/38/4
f 15/39/4 14/36/4 32/37/4
f 16/41/4 34/40/4 15/39/4
f 35/42/4 34/40/4 16/41/4
f 7/43/4 34/40/4 35/42/4
f 34/40/4 7/43/4 5/44/4
f 36/46/1 24/12/1 26/45/1
f 24/12/1 36/46/1 37/47/1
f 13/49/5 34/48/5 29/5/5
f 34/48/5 13/49/5 15/50/5
f 32/52/6 17/51/5 15/50/5
f 17/51/5 32/52/6 38/53/6
f 13/49/5 39/55/6 25/54/6
f 39/55/6 13/49/5 21/11/5
f 36/26/4 40/56/4 37/29/4
f 40/56/4 36/26/4 22/57/4
f 41/44/4 40/56/4 22/57/4
f 22/57/4 36/26/4 39/37/4
f 39/37/4 36/26/4 42/38/4
f 21/39/4 22/57/4 39/37/4
f 43/60/7 10/59/3 9/58/7
f 10/59/3 43/60/7 18/31/3
f 7/63/9 44/62/8 8/61/8
f 44/62/8 7/63/9 35/20/9
f 20/41/4 45/64/10 23/57/4
f 45/64/10 20/41/4 46/65/10
f 47/67/11 28/15/9 31/66/9
f 28/15/9 47/67/11 48/68/11
f 45/71/10 48/70/11 47/69/11
f 48/70/11 45/71/10 46/72/10
f 8/75/8 43/74/7 9/73/7
f 43/74/7 8/75/8 44/76/8
f 49/79/6 3/78/5 1/77/5
f 3/78/5 49/79/6 33/80/6
f 27/83/6 36/82/5 26/81/5
f 36/82/5 27/83/6 42/84/6
f 25/87/6 42/86/6 27/85/6
f 42/86/6 25/87/6 39/88/6
f 38/91/6 33/90/6 49/89/6
f 33/90/6 38/91/6 32/92/6
f 43/94/5 16/50/5 18/93/5
f 16/50/5 43/94/5 35/95/5
f 35/95/5 43/94/5 44/96/5
f 28/7/5 20/10/5 19/49/5
f 20/10/5 28/7/5 46/9/5
f 46/9/5 28/7/5 48/8/5
f 45/94/2 22/51/2 23/93/2
f 22/51/2 45/94/2 41/97/2
f 41/97/2 45/94/2 47/96/2
f 41/97/2 47/96/2 30/48/2
f 30/48/2 47/96/2 31/95/2
f 40/97/2 24/78/2 37/77/2
f 24/78/2 40/97/2 12/50/2
f 12/50/2 40/97/2 14/49/2
f 50/6/2 14/49/2 40/97/2
f 2/82/2 14/49/2 50/6/2
f 14/49/2 2/82/2 4/81/2
f 40/2/9 6/23/9 50/47/9
f 6/23/9 40/2/9 5/63/9
f 5/63/9 40/2/9 34/13/9
f 34/13/9 40/2/9 30/66/9
f 30/66/9 40/2/9 41/19/9
f 29/14/9 34/13/9 30/66/9
f 6/34/3 2/26/3 50/98/3
f 2/26/3 6/34/3 11/59/3
f 2/26/3 11/59/3 1/29/3
f 1/29/3 11/59/3 38/28/3
f 38/28/3 11/59/3 17/27/3
f 1/29/3 38/28/3 49/30/3

