# Created by Kenney (www.kenney.nl)

mtllib fireBasket.mtl

g fireBasket

v 0.028951 0 -0.066598
v 0.066598 0 -0.028951
v 0.028951 0.018658 -0.028951
v -0.028951 0.018658 0.028951
v -0.028951 0 0.066598
v -0.066598 0 0.028951
v 0.028951 0.018658 0.028951
v 0.066598 0 0.028951
v 0.028951 0 0.066598
v -0.028951 0 -0.066598
v -0.028951 0.018658 -0.028951
v -0.066598 0 -0.028951
v 0.028951 0.088 -0.136561
v 0.028951 0 -0.104245
v 0.028951 0.088 -0.117703
v 0.028951 0.017701 -0.091888
v 0.028951 0.037316 -0.028951
v 0.136561 0.088 -0.028951
v 0.117703 0.088 -0.028951
v -0.028951 0.037316 0.028951
v -0.028951 0.017701 0.091888
v -0.028951 0 0.104245
v -0.028951 0.088 0.117703
v -0.028951 0.088 0.136561
v 0.117703 0.088 0.028951
v 0.136561 0.088 0.028951
v 0.091888 0.017701 0.028951
v 0.104245 0 0.028951
v 0.028951 0.037316 0.028951
v 0.104245 0 -0.028951
v 0.091888 0.017701 -0.028951
v -0.104245 0 0.028951
v -0.091888 0.017701 0.028951
v -0.136561 0.088 0.028951
v -0.117703 0.088 0.028951
v 0.028951 0.017701 0.091888
v 0.028951 0 0.104245
v 0.028951 0.088 0.117703
v 0.028951 0.088 0.136561
v -0.117703 0.088 -0.028951
v -0.136561 0.088 -0.028951
v -0.091888 0.017701 -0.028951
v -0.104245 0 -0.028951
v -0.028951 0.037316 -0.028951
v -0.136561 0.104 0.028951
v -0.028951 0.104 0.136561
v -0.117703 0.104 0.028951
v -0.028951 0.104 0.117703
v -0.028951 0 -0.104245
v -0.028951 0.088 -0.136561
v -0.028951 0.017701 -0.091888
v -0.028951 0.088 -0.117703
v 0.136561 0.12 -0.028951
v 0.136561 0.12 0.028951
v 0.117703 0.12 -0.028951
v 0.117703 0.12 0.028951
v 0.028951 0.104 -0.117703
v -0.028951 0.104 -0.117703
v 0.028951 0.12 -0.117703
v -0.028951 0.12 -0.117703
v 0.041689 0.061316 0.041689
v -0.041689 0.061316 0.041689
v 0.037937 0.077316 0.037937
v -0.037937 0.077316 0.037937
v -0.041689 0.061316 -0.041689
v -0.037937 0.077316 -0.037937
v 0.041689 0.061316 -0.041689
v 0.037937 0.077316 -0.037937
v 0.117703 0.104 -0.028951
v 0.117703 0.104 0.028951
v 0.136561 0.104 -0.028951
v -0.028951 0.104 -0.136561
v -0.028951 0.12 -0.136561
v 0.028951 0.12 0.117703
v 0.028951 0.104 0.117703
v 0.028951 0.12 0.136561
v 0.028951 0.104 0.136561
v 0.028951 0.104 -0.136561
v 0.028951 0.12 -0.136561
v -0.028951 0.12 0.136561
v 0.136561 0.104 0.028951
v -0.136561 0.104 -0.028951
v -0.136561 0.12 -0.028951
v -0.136561 0.12 0.028951
v -0.028951 0.12 0.117703
v -0.117703 0.12 -0.028951
v -0.117703 0.104 -0.028951
v -0.117703 0.12 0.028951

vn 0.4058448 0.8188895 -0.4058448
vn -0.4058448 0.8188895 0.4058448
vn 0.4058448 0.8188895 0.4058448
vn -0.4058448 0.8188895 -0.4058448
vn 1 0 0
vn 0 -1 0
vn -1 0 0
vn 0 0 1
vn 0 0 -1
vn -0.7071068 0 0.7071068
vn 0.7071068 0 -0.7071068
vn 0 -0.3447185 -0.9387061
vn 0.297545 0.9547078 0
vn 0 0.3447101 -0.9387091
vn 0 0.9547078 -0.297545
vn 0 0.9547078 0.297545
vn 0 0.3447101 0.9387091
vn 0.9387091 0.3447101 0
vn -0.297545 0.9547078 0
vn -0.9387061 -0.3447185 0
vn 0 -0.3447185 0.9387061
vn 0.9387061 -0.3447185 0
vn -0.9387091 0.3447101 0
vn 0 1 0
vn 0 0.2283067 0.9735893
vn -0.9735893 0.2283067 0
vn 0 -0.4688107 -0.8832986
vn 0 0.2283067 -0.9735893
vn 0.9735893 0.2283067 0
vn -0.8832986 -0.4688107 0
vn 0 -0.4688107 0.8832986
vn 0.8832986 -0.4688107 0
vn -0.7071068 0 -0.7071068
vn 0.7071068 0 0.7071068

vt 1.048049 -2.178225
vt -1.048049 -2.178225
vt 7.549517E-15 -0.8983828
vt -7.549517E-15 -0.8983828
vt -3.774758E-15 -0.8983828
vt 5.376417 3.464567
vt 4.104134 0
vt 4.633976 3.464567
vt 3.617638 0.6968898
vt 2.621969 0
vt 1.139803 1.469134
vt 1.139803 0.7345669
vt 5.376417 -1.139803
vt 1.139803 -5.376417
vt 4.633976 -1.139803
vt 1.139803 -4.633976
vt -2.621969 0
vt -4.104134 0
vt -1.139803 0.7345669
vt -3.617638 0.6968898
vt -1.139803 1.469134
vt -5.376417 3.464567
vt -4.633976 3.464567
vt -2.995739 3.464567
vt -2.995739 4.094488
vt 2.995739 3.464567
vt 2.995739 4.094488
vt 2.470754 4.094488
vt 2.470754 3.464567
vt -2.470754 4.094488
vt -2.470754 3.464567
vt 1.139803 1.414771
vt -1.139803 1.414771
vt 1.139803 5.105561
vt -1.139803 5.105561
vt 1.139803 -3.246431
vt -1.139803 -3.246431
vt 1.139803 -0.6510454
vt -1.139803 -0.6510454
vt 1.139803 1.901213
vt -1.139803 1.901213
vt 1.139803 4.849599
vt -1.139803 4.849599
vt -5.376417 -1.139803
vt -5.376417 1.139803
vt -4.633976 -1.139803
vt -4.633976 1.139803
vt 1.139803 3.464567
vt -1.139803 3.464567
vt 1.139803 4.094488
vt -1.139803 4.094488
vt 1.139803 4.72441
vt -1.139803 4.72441
vt 1.641299 1.97554
vt -1.641299 1.97554
vt 1.493583 2.62255
vt -1.493583 2.62255
vt 1.139803 1.832036
vt -1.139803 1.832036
vt 1.641299 2.901756
vt -1.641299 2.901756
vt -4.633976 4.094488
vt -5.376417 4.094488
vt -4.633976 4.72441
vt -5.376417 4.72441
vt 5.376417 4.72441
vt 5.376417 4.094488
vt 4.633976 4.72441
vt 4.633976 4.094488
vt -1.139803 4.633976
vt -1.139803 5.376417
vt 1.139803 4.633976
vt 1.139803 5.376417
vt -1.139803 -5.376417
vt -1.139803 -4.633976
vt 4.633976 1.139803
vt 5.376417 1.139803
vt -1.493583 -1.493583
vt -1.493583 1.493583
vt 1.493583 -1.493583
vt 1.493583 1.493583
vt -4.104134 -1.139803
vt -4.104134 1.139803
vt -2.621969 -1.139803
vt -2.621969 1.139803
vt -1.139803 -2.621969
vt -1.139803 2.621969
vt -1.139803 -4.104134
vt -1.139803 4.104134
vt 1.139803 -4.104134
vt 1.139803 -2.621969
vt 1.139803 2.621969
vt 1.139803 4.104134
vt 2.621969 -1.139803
vt 2.621969 1.139803
vt 4.104134 -1.139803
vt 4.104134 1.139803

usemtl metal

f 3/3/1 2/2/1 1/1/1
f 6/2/2 5/1/2 4/3/2
f 9/2/3 8/1/3 7/4/3
f 12/1/4 11/5/4 10/2/4
f 15/8/5 14/7/5 13/6/5
f 14/7/5 15/8/5 16/9/5
f 14/7/5 16/9/5 1/10/5
f 1/10/5 16/9/5 17/11/5
f 1/10/5 17/11/5 3/12/5
f 19/15/6 13/14/6 18/13/6
f 13/14/6 19/15/6 15/16/6
f 5/10/7 20/11/7 4/12/7
f 20/11/7 5/10/7 21/9/7
f 21/9/7 5/10/7 22/7/7
f 21/9/7 22/7/7 23/8/7
f 23/8/7 22/7/7 24/6/7
f 27/9/8 26/6/8 25/8/8
f 27/9/8 28/7/8 26/6/8
f 28/7/8 27/9/8 8/10/8
f 27/9/8 7/12/8 8/10/8
f 7/12/8 27/9/8 29/11/8
f 3/19/9 30/18/9 2/17/9
f 30/18/9 3/19/9 31/20/9
f 31/20/9 3/19/9 17/21/9
f 31/20/9 18/22/9 30/18/9
f 18/22/9 31/20/9 19/23/9
f 4/19/8 32/18/8 6/17/8
f 32/18/8 4/19/8 33/20/8
f 33/20/8 4/19/8 20/21/8
f 33/20/8 34/22/8 32/18/8
f 34/22/8 33/20/8 35/23/8
f 36/20/5 7/19/5 29/21/5
f 7/19/5 36/20/5 9/17/5
f 9/17/5 36/20/5 37/18/5
f 37/18/5 36/20/5 38/23/5
f 37/18/5 38/23/5 39/22/5
f 42/9/9 41/6/9 40/8/9
f 42/9/9 43/7/9 41/6/9
f 43/7/9 42/9/9 12/10/9
f 42/9/9 11/12/9 12/10/9
f 11/12/9 42/9/9 44/11/9
f 24/26/10 45/25/10 34/24/10
f 45/25/10 24/26/10 46/27/10
f 48/30/11 35/29/11 47/28/11
f 35/29/11 48/30/11 23/31/11
f 50/34/12 14/33/12 49/32/12
f 14/33/12 50/34/12 13/35/12
f 17/38/13 27/37/13 31/36/13
f 27/37/13 17/38/13 29/39/13
f 23/42/14 36/41/14 21/40/14
f 36/41/14 23/42/14 38/43/14
f 51/36/15 17/39/15 16/37/15
f 17/39/15 51/36/15 44/38/15
f 20/39/16 36/36/16 29/38/16
f 36/36/16 20/39/16 21/37/16
f 15/42/17 51/41/17 16/40/17
f 51/41/17 15/42/17 52/43/17
f 35/43/18 42/40/18 40/42/18
f 42/40/18 35/43/18 33/41/18
f 42/37/19 20/38/19 44/39/19
f 20/38/19 42/37/19 33/36/19
f 32/32/20 41/35/20 43/33/20
f 41/35/20 32/32/20 34/34/20
f 39/34/21 22/33/21 37/32/21
f 22/33/21 39/34/21 24/35/21
f 26/35/22 30/32/22 18/34/22
f 30/32/22 26/35/22 28/33/22
f 27/40/23 19/43/23 31/41/23
f 19/43/23 27/40/23 25/42/23
f 55/46/24 54/45/24 53/44/24
f 54/45/24 55/46/24 56/47/24
f 57/50/8 52/49/8 15/48/8
f 52/49/8 57/50/8 58/51/8
f 58/51/8 57/50/8 59/52/8
f 58/51/8 59/52/8 60/53/8
f 63/56/25 62/55/25 61/54/25
f 62/55/25 63/56/25 64/57/25
f 62/54/26 66/57/26 65/55/26
f 66/57/26 62/54/26 64/56/26
f 65/60/27 17/59/27 44/58/27
f 17/59/27 65/60/27 67/61/27
f 66/56/28 67/55/28 65/54/28
f 67/55/28 66/56/28 68/57/28
f 68/56/29 61/55/29 67/54/29
f 61/55/29 68/56/29 63/57/29
f 44/59/30 62/60/30 65/61/30
f 62/60/30 44/59/30 20/58/30
f 25/48/7 69/51/7 19/49/7
f 69/51/7 25/48/7 55/53/7
f 55/53/7 25/48/7 56/52/7
f 56/52/7 25/48/7 70/50/7
f 55/64/9 71/63/9 69/62/9
f 71/63/9 55/64/9 53/65/9
f 58/62/7 73/65/7 72/63/7
f 73/65/7 58/62/7 60/64/7
f 76/65/5 75/62/5 74/64/5
f 75/62/5 76/65/5 77/63/5
f 72/50/9 13/49/9 50/48/9
f 13/49/9 72/50/9 78/51/9
f 78/51/9 72/50/9 73/52/9
f 78/51/9 73/52/9 79/53/9
f 77/50/8 24/49/8 39/48/8
f 24/49/8 77/50/8 46/51/8
f 46/51/8 77/50/8 76/52/8
f 46/51/8 76/52/8 80/53/8
f 54/53/5 71/50/5 53/52/5
f 71/50/5 54/53/5 18/48/5
f 18/48/5 54/53/5 26/49/5
f 26/49/5 54/53/5 81/51/5
f 34/48/7 82/51/7 41/49/7
f 82/51/7 34/48/7 83/53/7
f 83/53/7 34/48/7 84/52/7
f 84/52/7 34/48/7 45/50/7
f 59/68/5 78/67/5 79/66/5
f 78/67/5 59/68/5 57/69/5
f 61/60/31 20/59/31 29/58/31
f 20/59/31 61/60/31 62/61/31
f 85/72/24 76/71/24 74/70/24
f 76/71/24 85/72/24 80/73/24
f 73/14/24 59/75/24 79/74/24
f 59/75/24 73/14/24 60/16/24
f 48/50/9 38/49/9 23/48/9
f 38/49/9 48/50/9 75/51/9
f 75/51/9 48/50/9 85/52/9
f 75/51/9 85/52/9 74/53/9
f 88/53/5 87/50/5 86/52/5
f 87/50/5 88/53/5 40/48/5
f 40/48/5 88/53/5 35/49/5
f 35/49/5 88/53/5 47/51/5
f 54/66/8 70/69/8 81/67/8
f 70/69/8 54/66/8 56/68/8
f 83/13/24 88/76/24 86/15/24
f 88/76/24 83/13/24 84/77/24
f 61/61/32 17/58/32 67/60/32
f 17/58/32 61/61/32 29/59/32
f 66/80/24 63/79/24 68/78/24
f 63/79/24 66/80/24 64/81/24
f 78/74/24 69/46/24 71/44/24
f 69/46/24 78/74/24 57/75/24
f 69/28/10 15/31/10 19/29/10
f 15/31/10 69/28/10 57/30/10
f 82/13/24 58/16/24 72/14/24
f 58/16/24 82/13/24 87/15/24
f 82/27/33 50/24/33 41/26/33
f 50/24/33 82/27/33 72/25/33
f 58/28/34 40/31/34 52/29/34
f 40/31/34 58/28/34 87/30/34
f 83/66/9 87/69/9 82/67/9
f 87/69/9 83/66/9 86/68/9
f 34/45/6 23/70/6 24/71/6
f 23/70/6 34/45/6 35/47/6
f 88/64/8 45/63/8 47/62/8
f 45/63/8 88/64/8 84/65/8
f 78/27/11 18/24/11 13/26/11
f 18/24/11 78/27/11 71/25/11
f 70/47/24 77/71/24 81/45/24
f 77/71/24 70/47/24 75/70/24
f 77/25/34 26/26/34 81/27/34
f 26/26/34 77/25/34 39/24/34
f 39/73/6 25/76/6 26/77/6
f 25/76/6 39/73/6 38/72/6
f 47/76/24 46/73/24 48/72/24
f 46/73/24 47/76/24 45/77/24
f 40/46/6 50/74/6 52/75/6
f 50/74/6 40/46/6 41/44/6
f 38/29/33 70/30/33 25/31/33
f 70/30/33 38/29/33 75/28/33
f 46/67/7 85/68/7 48/69/7
f 85/68/7 46/67/7 80/66/7
f 49/18/7 52/23/7 50/22/7
f 52/23/7 49/18/7 51/20/7
f 51/20/7 49/18/7 10/17/7
f 51/20/7 10/17/7 44/21/7
f 44/21/7 10/17/7 11/19/7
f 12/84/6 32/83/6 43/82/6
f 12/84/6 6/85/6 32/83/6
f 10/86/6 6/85/6 12/84/6
f 6/85/6 10/86/6 5/87/6
f 49/88/6 5/87/6 10/86/6
f 49/88/6 22/89/6 5/87/6
f 14/90/6 22/89/6 49/88/6
f 1/91/6 22/89/6 14/90/6
f 9/92/6 22/89/6 1/91/6
f 22/89/6 9/92/6 37/93/6
f 2/94/6 9/92/6 1/91/6
f 2/94/6 8/95/6 9/92/6
f 30/96/6 8/95/6 2/94/6
f 8/95/6 30/96/6 28/97/6

