# Created by Kenney (www.kenney.nl)

mtllib gravestoneFlatOpen.mtl

g gravestoneFlatOpen

v 0.18273 0.123933 -0.4866
v 0.18273 0.123933 0.4866
v -0.18273 0.123933 -0.4866
v -0.18273 0.123933 0.4866
v 0.18273 0.253933 -0.4866
v 0.18273 0.253933 0.4866
v -0.18273 0.253933 -0.4866
v -0.18273 0.253933 0.4866
v -0.236 0.064 -0.566
v 0.236 0.064 -0.566
v -0.2242 0.096 -0.5408
v 0.2242 0.096 -0.5408
v 0.2242 0.136 -0.5408
v 0.2242 0.136 0.5408
v 0.2242 0.096 0.5408
v 0.236 0.064 0.566
v -0.236 0.064 0.566
v -0.2242 0.096 0.5408
v 0.21299 0.168 -0.51686
v 0.21299 0.168 0.51686
v 0.236 0 -0.566
v 0.236 0 0.566
v -0.2242 0.136 0.5408
v -0.236 0 -0.566
v -0.236 0 0.566
v -0.2242 0.136 -0.5408
v -0.21299 0.168 -0.51686
v -0.21299 0.168 0.51686
v 0.21299 0.253933 0.51686
v 0.21299 0.253933 -0.51686
v -0.21299 0.253933 -0.51686
v -0.21299 0.253933 0.51686

vn 0 1 0
vn -1 0 0
vn 0 0 1
vn 0 0 -1
vn 1 0 0
vn 0 0.6186886 -0.7856363
vn 0.938243 0.3459771 0
vn 0 0.6186886 0.7856363
vn -0.938243 0.3459771 0
vn 0.9437664 0.3306132 0
vn 0 -1 0
vn 0 0.5990387 -0.8007201
vn 0 0.5990387 0.8007201
vn -0.9437664 0.3306132 0

vt -7.194095 -19.15748
vt -7.194095 19.15748
vt 7.194095 -19.15748
vt 7.194095 19.15748
vt -19.15748 4.879252
vt -19.15748 9.997362
vt 19.15748 4.879252
vt 19.15748 9.997362
vt 7.194095 4.879252
vt -7.194095 4.879252
vt 7.194095 9.997362
vt -7.194095 9.997362
vt 9.291339 -11.80697
vt -9.291339 -11.80697
vt 8.826772 -10.20337
vt -8.826772 -10.20337
vt 21.29134 5.354331
vt 21.29134 3.779528
vt -21.29134 5.354331
vt -21.29134 3.779528
vt 22.28346 -0.8505136
vt -22.28346 -0.8505136
vt 21.29134 0.4922543
vt -21.29134 0.4922543
vt 21.29134 2.13499
vt -21.29134 2.13499
vt 20.34882 3.4699
vt -20.34882 3.4699
vt 22.28346 2.519685
vt 22.28346 0
vt -22.28346 2.519685
vt -22.28346 0
vt 8.826772 3.779528
vt -8.826772 3.779528
vt 8.826772 5.354331
vt -8.826772 5.354331
vt 9.291339 22.28346
vt 9.291339 -22.28346
vt -9.291339 22.28346
vt -9.291339 -22.28346
vt 8.826772 -8.467016
vt -8.826772 -8.467016
vt 8.385433 -6.893629
vt -8.385433 -6.893629
vt 9.291339 0
vt -9.291339 0
vt 9.291339 2.519685
vt -9.291339 2.519685
vt -8.385433 20.34882
vt -8.385433 -20.34882
vt 8.385433 -20.34882
vt 8.385433 20.34882
vt 8.385433 6.614173
vt -8.385433 6.614173
vt 8.385433 9.997362
vt -8.385433 9.997362
vt -20.34882 6.614173
vt -20.34882 9.997362
vt 20.34882 6.614173
vt 20.34882 9.997362

usemtl stone

f 3/3/1 2/2/1 1/1/1
f 2/2/1 3/3/1 4/4/1
f 2/7/2 5/6/2 1/5/2
f 5/6/2 2/7/2 6/8/2
f 5/11/3 3/10/3 1/9/3
f 3/10/3 5/11/3 7/12/3
f 8/11/4 2/10/4 4/9/4
f 2/10/4 8/11/4 6/12/4
f 8/6/5 3/7/5 7/8/5
f 3/7/5 8/6/5 4/5/5
f 11/15/6 10/14/6 9/13/6
f 10/14/6 11/15/6 12/16/6
f 14/19/5 12/18/5 13/17/5
f 12/18/5 14/19/5 15/20/5
f 12/23/7 16/22/7 10/21/7
f 16/22/7 12/23/7 15/24/7
f 15/15/8 17/14/8 16/13/8
f 17/14/8 15/15/8 18/16/8
f 17/21/9 11/24/9 9/22/9
f 11/24/9 17/21/9 18/23/9
f 19/27/10 14/26/10 13/25/10
f 14/26/10 19/27/10 20/28/10
f 16/31/5 21/30/5 10/29/5
f 21/30/5 16/31/5 22/32/5
f 14/35/3 18/34/3 15/33/3
f 18/34/3 14/35/3 23/36/3
f 25/30/2 9/31/2 24/32/2
f 9/31/2 25/30/2 17/29/2
f 25/39/11 21/38/11 22/37/11
f 21/38/11 25/39/11 24/40/11
f 26/35/4 12/34/4 11/33/4
f 12/34/4 26/35/4 13/36/4
f 18/18/2 26/19/2 11/20/2
f 26/19/2 18/18/2 23/17/2
f 27/43/12 13/42/12 26/41/12
f 13/42/12 27/43/12 19/44/12
f 20/43/13 23/42/13 14/41/13
f 23/42/13 20/43/13 28/44/13
f 23/25/14 27/28/14 26/26/14
f 27/28/14 23/25/14 28/27/14
f 9/47/4 21/46/4 24/45/4
f 21/46/4 9/47/4 10/48/4
f 16/47/3 25/46/3 22/45/3
f 25/46/3 16/47/3 17/48/3
f 30/50/1 5/1/1 29/49/1
f 5/1/1 30/50/1 31/51/1
f 6/2/1 29/49/1 5/1/1
f 5/1/1 31/51/1 7/3/1
f 29/49/1 6/2/1 32/52/1
f 7/3/1 31/51/1 8/4/1
f 32/52/1 6/2/1 8/4/1
f 32/52/1 8/4/1 31/51/1

usemtl stoneDark

f 29/55/3 28/54/3 20/53/3
f 28/54/3 29/55/3 32/56/3
f 28/59/2 31/58/2 27/57/2
f 31/58/2 28/59/2 32/60/2
f 31/55/4 19/54/4 27/53/4
f 19/54/4 31/55/4 30/56/4
f 29/58/5 19/59/5 30/60/5
f 19/59/5 29/58/5 20/57/5

g lid

v 0.21299 0.272 0.51686
v -0.21299 0.272 0.51686
v 4.511946E-17 0.32 0.51686
v -0.21299 0.272 -0.51686
v 0.21299 0.272 -0.51686
v 4.511946E-17 0.32 -0.51686

vn -0.2198489 0.9755339 0
vn 0.2198489 -0.9755339 0
vn 0.2198489 0.9755339 0
vn -0.2198489 -0.9755339 0

vt 8.385433 0
vt -8.385433 0
vt 8.385433 0.7112992
vt -8.385433 0.7112992
vt 0 2.601063
vt 20.34882 0.7112992
vt 20.34882 0
vt -20.34882 0.7112992
vt -20.34882 0
vt -20.34882 0.571841
vt 20.34882 0.571841
vt -20.34882 -8.023896
vt 20.34882 -8.023896

usemtl stone

f 33/63/3 32/62/3 29/61/3
f 32/62/3 33/63/3 34/64/3
f 34/64/3 33/63/3 35/65/3
f 29/61/4 32/62/4 33/63/4
f 34/64/4 33/63/4 32/62/4
f 35/65/4 33/63/4 34/64/4
f 36/63/4 30/62/4 31/61/4
f 30/62/4 36/63/4 37/64/4
f 37/64/4 36/63/4 38/65/4
f 31/61/3 30/62/3 36/63/3
f 37/64/3 36/63/3 30/62/3
f 38/65/3 36/63/3 37/64/3
f 33/68/5 30/67/5 37/66/5
f 30/67/5 33/68/5 29/69/5
f 37/66/2 30/67/2 33/68/2
f 29/69/2 33/68/2 30/67/2
f 32/49/11 30/51/11 29/52/11
f 30/51/11 32/49/11 31/50/11
f 29/52/1 30/51/1 32/49/1
f 31/50/1 32/49/1 30/51/1
f 32/67/2 36/68/2 31/69/2
f 36/68/2 32/67/2 34/66/2
f 31/69/5 36/68/5 32/67/5
f 34/66/5 32/67/5 36/68/5
f 36/72/15 35/71/15 38/70/15
f 35/71/15 36/72/15 34/73/15
f 38/70/16 35/71/16 36/72/16
f 34/73/16 36/72/16 35/71/16
f 38/71/17 33/72/17 37/73/17
f 33/72/17 38/71/17 35/70/17
f 37/73/18 33/72/18 38/71/18
f 35/70/18 38/71/18 33/72/18

