# Created by Kenney (www.kenney.nl)

mtllib gravestoneBevel.mtl

g gravestoneBevel

v 0.132728 0.157822 0.036528
v 0.132728 0.420678 0.036528
v 0.132728 0.157822 0.066528
v 0.132728 0.420678 0.066528
v -0.132728 0.157822 0.036528
v -0.132728 0.157822 0.066528
v -0.083949 0.420678 0.066528
v -0.132728 0.420678 0.066528
v -0.075897 0.481837 0.066528
v -0.119749 0.4615 0.066528
v -0.115669 0.492493 0.066528
v -0.17355 0.4615 0.066528
v -0.068048 0.500787 0.066528
v -0.17355 0.117 0.066528
v -0.103706 0.521375 0.066528
v -0.055561 0.517061 0.066528
v -0.039287 0.529548 0.066528
v 0.17355 0.117 0.066528
v -0.084676 0.546176 0.066528
v 0.17355 0.4615 0.066528
v 0.083949 0.420678 0.066528
v 0.11975 0.4615 0.066528
v 0.075897 0.481837 0.066528
v 0.115669 0.492493 0.066528
v 0.068048 0.500787 0.066528
v -0.020337 0.537397 0.066528
v 0.103706 0.521375 0.066528
v 0.055561 0.517061 0.066528
v 0.039287 0.529548 0.066528
v 0.084676 0.546176 0.066528
v 0.020337 0.537397 0.066528
v 0 0.5400749 0.066528
v 0.059875 0.565206 0.066528
v -0.059875 0.565206 0.066528
v 0.030993 0.577169 0.066528
v -0.030993 0.577169 0.066528
v 0 0.581249 0.066528
v 0.17355 0.4615 -0.066527
v 0.17355 0.117 -0.066527
v -0.195 0 -0.07475
v 0.195 0 -0.07475
v -0.195 0.078 -0.07475
v 0.195 0.078 -0.07475
v 0.195 0.078 0.07475
v -0.195 0 0.07475
v -0.195 0.078 0.07475
v 0.195 0 0.07475
v 0.083949 0.420678 -0.066527
v 0.132728 0.420678 -0.066527
v 0.075897 0.481837 -0.066527
v 0.11975 0.4615 -0.066527
v 0.115669 0.492493 -0.066527
v 0.068048 0.500787 -0.066527
v 0.132728 0.157822 -0.066527
v 0.103706 0.521375 -0.066527
v 0.055561 0.517061 -0.066527
v 0.039287 0.529548 -0.066527
v -0.132728 0.157822 -0.066527
v -0.17355 0.117 -0.066527
v 0.084676 0.546176 -0.066527
v -0.17355 0.4615 -0.066527
v -0.132728 0.420678 -0.066527
v -0.083949 0.420678 -0.066527
v -0.119749 0.4615 -0.066527
v -0.075897 0.481837 -0.066527
v -0.115669 0.492493 -0.066527
v -0.068048 0.500787 -0.066527
v 0.020337 0.537397 -0.066527
v -0.103706 0.521375 -0.066527
v -0.055561 0.517061 -0.066527
v -0.039287 0.529548 -0.066527
v -0.084676 0.546176 -0.066527
v -0.020337 0.537397 -0.066527
v 0 0.5400749 -0.066527
v -0.059875 0.565206 -0.066527
v 0.059875 0.565206 -0.066527
v -0.030993 0.577169 -0.066527
v 0.030993 0.577169 -0.066527
v 0 0.581249 -0.066527
v 0 0.5400749 -0.036527
v -0.020337 0.537397 -0.036527
v 0.020337 0.537397 -0.036527
v 0.039287 0.529548 -0.036527
v -0.039287 0.529548 -0.036527
v 0.055561 0.517061 -0.036527
v -0.055561 0.517061 -0.036527
v 0.068048 0.500787 -0.036527
v -0.068048 0.500787 -0.036527
v 0.075897 0.481837 -0.036527
v -0.075897 0.481837 -0.036527
v 0.083949 0.420678 -0.036527
v -0.083949 0.420678 -0.036527
v 0.132728 0.420678 -0.036527
v -0.132728 0.420678 -0.036527
v 0.132728 0.157822 -0.036527
v -0.132728 0.157822 -0.036527
v -0.083949 0.420678 0.036528
v -0.132728 0.420678 0.036528
v -0.075897 0.481837 0.036528
v 0 0.5400749 0.036528
v -0.020337 0.537397 0.036528
v -0.055561 0.517061 0.036528
v -0.068048 0.500787 0.036528
v 0.055561 0.517061 0.036528
v 0.039287 0.529548 0.036528
v 0.075897 0.481837 0.036528
v 0.068048 0.500787 0.036528
v 0.020337 0.537397 0.036528
v -0.039287 0.529548 0.036528
v 0.083949 0.420678 0.036528

vn -1 0 0
vn 0 1 0
vn 0 0 1
vn 1 0 0
vn 0 0 -1
vn 0.8762159 0.4819188 0
vn 0 0.2063102 -0.9784867
vn 0 0.2062861 0.9784918
vn -0.8762159 0.4819188 0
vn 0.2588098 0.9659283 0
vn 0.8660308 0.4999908 0
vn 0.9659241 0.2588252 0
vn -0.2588098 0.9659283 0
vn -0.4999908 0.8660308 0
vn 0 -1 0
vn -0.9914461 0.1305166 0
vn -0.9659283 0.2588098 0
vn 0.991442 0.130548 0
vn 0.7071068 0.7071068 0
vn 0.4999908 0.8660308 0
vn -0.8660308 0.4999908 0
vn -0.7071068 0.7071068 0
vn -0.9659273 -0.2588136 0
vn -0.8660339 -0.4999852 0
vn -0.9914443 -0.1305304 0
vn -0.7071068 -0.7071068 0
vn -0.4999852 -0.8660339 0
vn -0.2588251 -0.9659241 0
vn 0.4999852 -0.8660339 0
vn 0.7071068 -0.7071068 0
vn 0.8660339 -0.4999852 0
vn 0.9659273 -0.2588136 0
vn 0.9914443 -0.1305304 0
vn 0.2588251 -0.9659241 0

vt 1.43811 6.213465
vt 1.43811 16.56213
vt 2.619213 6.213465
vt 2.619213 16.56213
vt -5.225512 1.43811
vt -5.225512 2.619213
vt 5.225512 1.43811
vt 5.225512 2.619213
vt -3.305079 16.56213
vt -5.225512 16.56213
vt -2.988071 18.96996
vt -4.714528 18.16929
vt -4.553898 19.38949
vt -6.832677 18.16929
vt -2.679055 19.71602
vt -5.225512 6.213465
vt -6.832677 4.606299
vt -4.082913 20.52658
vt -2.187441 20.35673
vt -1.546732 20.84835
vt 5.225512 6.213465
vt 6.832677 4.606299
vt -3.333701 21.50299
vt 6.832677 18.16929
vt 5.225512 16.56213
vt 3.305079 16.56213
vt 4.714567 18.16929
vt 2.988071 18.96996
vt 4.553898 19.38949
vt 2.679055 19.71602
vt -0.8006693 21.15736
vt 4.082913 20.52658
vt 2.187441 20.35673
vt 1.546732 20.84835
vt 3.333701 21.50299
vt 0.8006693 21.15736
vt 3.719971E-33 21.26279
vt 2.357283 22.2522
vt -2.357283 22.2522
vt 1.220197 22.72319
vt -1.220197 22.72319
vt 3.719971E-33 22.88382
vt 2.619173 18.16929
vt 2.619173 4.606299
vt -2.619213 18.16929
vt -2.619213 4.606299
vt 7.677166 0
vt -7.677166 0
vt 7.677166 3.070866
vt -7.677166 3.070866
vt 2.942913 -1.009028
vt -2.942913 -1.009028
vt 2.619173 0.7433174
vt -2.619213 0.7433174
vt -2.942913 0
vt -2.942913 3.070866
vt 2.942913 0
vt 2.942913 3.070866
vt -4.714567 18.16929
vt 4.714528 18.16929
vt 3.068807E-32 21.26279
vt 3.068807E-32 22.88382
vt 7.677166 2.397649
vt -7.677166 2.397649
vt 6.832677 3.96684
vt -6.832677 3.96684
vt 7.677166 2.397735
vt -7.677166 2.397735
vt 6.832677 3.966918
vt -6.832677 3.966918
vt -2.619173 4.606299
vt -2.619173 18.16929
vt 2.619213 4.606299
vt 2.619213 18.16929
vt -2.619173 0.7433174
vt 2.619213 0.7433174
vt 2.619173 1.755993
vt -2.619213 1.755993
vt 2.619173 2.986718
vt -2.619213 2.986718
vt 2.619173 17.40173
vt 2.619173 16.17096
vt -2.619213 17.40173
vt -2.619213 16.17096
vt -2.619173 2.986718
vt 2.619213 2.986718
vt -2.619173 1.755993
vt 2.619213 1.755993
vt -2.619173 7.568273
vt 2.619213 7.568273
vt -2.619173 6.337503
vt 2.619213 6.337503
vt 4.714528 -2.619173
vt 4.714528 2.619213
vt 6.832677 -2.619173
vt 6.832677 2.619213
vt 7.677166 2.942913
vt 7.677166 -2.942913
vt -7.677166 2.942913
vt -7.677166 -2.942913
vt -6.832677 -2.619173
vt -6.832677 2.619213
vt -4.714567 -2.619173
vt -4.714567 2.619213
vt -2.619173 17.39855
vt -2.619173 18.62927
vt 2.619213 17.39855
vt 2.619213 18.62927
vt 2.619173 18.62905
vt 2.619173 17.39832
vt -2.619213 18.62905
vt -2.619213 17.39832
vt 2.619173 15.03023
vt 2.619173 13.7995
vt -2.619213 15.03023
vt -2.619213 13.7995
vt 2.619173 10.44516
vt -2.619213 10.44516
vt 2.619173 11.67589
vt -2.619213 11.67589
vt 2.619173 6.337503
vt -2.619213 6.337503
vt 2.619173 7.568273
vt -2.619213 7.568273
vt -2.619173 13.7995
vt -2.619173 15.03023
vt 2.619213 13.7995
vt 2.619213 15.03023
vt 0 21.26279
vt -2.619173 16.38263
vt -2.619173 17.19016
vt -1.438071 16.38263
vt -1.438071 17.19016
vt -2.619173 11.67589
vt 2.619213 11.67589
vt -2.619173 10.44516
vt 2.619213 10.44516
vt -2.619173 16.17096
vt -2.619173 17.40173
vt 2.619213 16.17096
vt 2.619213 17.40173
vt -2.619173 15.98901
vt -2.619173 18.41763
vt -1.438071 15.98901
vt -1.438071 18.41763
vt -2.619173 14.01113
vt -2.619173 14.81871
vt -1.438071 14.01113
vt -1.438071 14.81871
vt -1.438071 6.549012
vt -2.619173 6.549012
vt -1.438071 7.35654
vt -2.619173 7.35654
vt 1.438071 11.46424
vt 2.619173 11.46424
vt 1.438071 10.65666
vt 2.619173 10.65666
vt -1.438071 10.65666
vt -2.619173 10.65666
vt -1.438071 11.46424
vt -2.619173 11.46424
vt 2.619173 17.19016
vt 2.619173 16.38263
vt 1.438071 17.19016
vt 1.438071 16.38263
vt -1.438071 1.968365
vt -2.619173 1.968365
vt -1.438071 2.775946
vt -2.619173 2.775946
vt -3.305079 -1.438071
vt -3.305079 -2.619173
vt -5.225512 -1.438071
vt -5.225512 -2.619173
vt 2.619173 16.56213
vt 2.619173 6.213465
vt 1.438071 16.56213
vt 1.438071 6.213465
vt 2.619173 14.81871
vt 2.619173 14.01113
vt 1.438071 14.81871
vt 1.438071 14.01113
vt 2.619173 18.41763
vt 2.619173 15.98901
vt 1.438071 18.41763
vt 1.438071 15.98901
vt 1.438071 2.775946
vt 2.619173 2.775946
vt 1.438071 1.968365
vt 2.619173 1.968365
vt 5.225512 -2.619173
vt 5.225512 -1.438071
vt -2.619173 6.213465
vt -2.619173 16.56213
vt -1.438071 6.213465
vt -1.438071 16.56213
vt 1.438071 7.35654
vt 2.619173 7.35654
vt 1.438071 6.549012
vt 2.619173 6.549012
vt 3.305079 -1.438071
vt 3.305079 -2.619173
vt -3.305079 2.619213
vt -3.305079 1.43811
vt -1.43811 18.41763
vt -1.43811 15.98901
vt -2.619213 18.41763
vt -2.619213 15.98901
vt -2.619213 2.775946
vt -1.43811 2.775946
vt -2.619213 1.968365
vt -1.43811 1.968365
vt -1.43811 14.81871
vt -1.43811 14.01113
vt -2.619213 14.81871
vt -2.619213 14.01113
vt 2.619213 10.65666
vt 1.43811 10.65666
vt 2.619213 11.46424
vt 1.43811 11.46424
vt 1.43811 16.38263
vt 1.43811 17.19016
vt 2.619213 16.38263
vt 2.619213 17.19016
vt 2.619213 6.549012
vt 1.43811 6.549012
vt 2.619213 7.35654
vt 1.43811 7.35654
vt -2.619213 11.46424
vt -1.43811 11.46424
vt -2.619213 10.65666
vt -1.43811 10.65666
vt -1.43811 16.56213
vt -1.43811 6.213465
vt -2.619213 16.56213
vt -2.619213 6.213465
vt 2.619213 1.968365
vt 1.43811 1.968365
vt 2.619213 2.775946
vt 1.43811 2.775946
vt -1.43811 17.19016
vt -1.43811 16.38263
vt -2.619213 17.19016
vt -2.619213 16.38263
vt 1.43811 15.98901
vt 1.43811 18.41763
vt 2.619213 15.98901
vt 2.619213 18.41763
vt -2.619213 7.35654
vt -1.43811 7.35654
vt -2.619213 6.549012
vt -1.43811 6.549012
vt 1.43811 14.01113
vt 1.43811 14.81871
vt 2.619213 14.01113
vt 2.619213 14.81871
vt 3.305079 2.619213
vt 3.305079 1.43811

usemtl stone

f 3/3/1 2/2/1 1/1/1
f 2/2/1 3/3/1 4/4/1
f 5/7/2 3/6/2 1/5/2
f 3/6/2 5/7/2 6/8/2
f 9/11/3 8/10/3 7/9/3
f 8/10/3 9/11/3 10/12/3
f 10/12/3 9/11/3 11/13/3
f 12/14/3 8/10/3 10/12/3
f 11/13/3 9/11/3 13/15/3
f 12/14/3 6/16/3 8/10/3
f 14/17/3 6/16/3 12/14/3
f 11/13/3 13/15/3 15/18/3
f 15/18/3 13/15/3 16/19/3
f 15/18/3 16/19/3 17/20/3
f 6/16/3 14/17/3 3/21/3
f 18/22/3 3/21/3 14/17/3
f 15/18/3 17/20/3 19/23/3
f 3/21/3 18/22/3 20/24/3
f 3/21/3 20/24/3 4/25/3
f 4/25/3 20/24/3 21/26/3
f 21/26/3 20/24/3 22/27/3
f 21/26/3 22/27/3 23/28/3
f 23/28/3 22/27/3 24/29/3
f 23/28/3 24/29/3 25/30/3
f 19/23/3 17/20/3 26/31/3
f 25/30/3 24/29/3 27/32/3
f 25/30/3 27/32/3 28/33/3
f 28/33/3 27/32/3 29/34/3
f 29/34/3 27/32/3 30/35/3
f 29/34/3 30/35/3 31/36/3
f 31/36/3 30/35/3 32/37/3
f 19/23/3 26/31/3 32/37/3
f 19/23/3 32/37/3 30/35/3
f 19/23/3 30/35/3 33/38/3
f 19/23/3 33/38/3 34/39/3
f 34/39/3 33/38/3 35/40/3
f 34/39/3 35/40/3 36/41/3
f 36/41/3 35/40/3 37/42/3
f 20/45/4 39/44/4 38/43/4
f 39/44/4 20/45/4 18/46/4
f 42/49/5 41/48/5 40/47/5
f 41/48/5 42/49/5 43/50/5
f 39/53/6 44/52/6 43/51/6
f 44/52/6 39/53/6 18/54/6
f 45/57/1 42/56/1 40/55/1
f 42/56/1 45/57/1 46/58/1
f 44/56/4 41/57/4 43/58/4
f 41/57/4 44/56/4 47/55/4
f 50/11/5 49/10/5 48/9/5
f 49/10/5 50/11/5 51/59/5
f 51/59/5 50/11/5 52/13/5
f 38/14/5 49/10/5 51/59/5
f 52/13/5 50/11/5 53/15/5
f 38/14/5 54/16/5 49/10/5
f 39/17/5 54/16/5 38/14/5
f 52/13/5 53/15/5 55/18/5
f 55/18/5 53/15/5 56/19/5
f 55/18/5 56/19/5 57/20/5
f 54/16/5 39/17/5 58/21/5
f 59/22/5 58/21/5 39/17/5
f 55/18/5 57/20/5 60/23/5
f 58/21/5 59/22/5 61/24/5
f 58/21/5 61/24/5 62/25/5
f 62/25/5 61/24/5 63/26/5
f 63/26/5 61/24/5 64/60/5
f 63/26/5 64/60/5 65/28/5
f 65/28/5 64/60/5 66/29/5
f 65/28/5 66/29/5 67/30/5
f 60/23/5 57/20/5 68/31/5
f 67/30/5 66/29/5 69/32/5
f 67/30/5 69/32/5 70/33/5
f 70/33/5 69/32/5 71/34/5
f 71/34/5 69/32/5 72/35/5
f 71/34/5 72/35/5 73/36/5
f 73/36/5 72/35/5 74/61/5
f 60/23/5 68/31/5 74/61/5
f 60/23/5 74/61/5 72/35/5
f 60/23/5 72/35/5 75/38/5
f 60/23/5 75/38/5 76/39/5
f 76/39/5 75/38/5 77/40/5
f 76/39/5 77/40/5 78/41/5
f 78/41/5 77/40/5 79/62/5
f 59/65/7 43/64/7 42/63/7
f 43/64/7 59/65/7 39/66/7
f 18/69/8 46/68/8 44/67/8
f 46/68/8 18/69/8 14/70/8
f 14/73/1 61/72/1 59/71/1
f 61/72/1 14/73/1 12/74/1
f 44/49/3 45/48/3 47/47/3
f 45/48/3 44/49/3 46/50/3
f 46/51/9 59/75/9 42/52/9
f 59/75/9 46/51/9 14/76/9
f 79/79/2 35/78/10 78/77/10
f 35/78/10 79/79/2 37/80/2
f 27/83/11 52/82/12 55/81/11
f 52/82/12 27/83/11 24/84/12
f 77/87/13 37/86/2 79/85/2
f 37/86/2 77/87/13 36/88/13
f 75/91/14 36/90/13 77/89/13
f 36/90/13 75/91/14 34/92/14
f 61/95/2 10/94/2 64/93/2
f 10/94/2 61/95/2 12/96/2
f 45/99/15 41/98/15 47/97/15
f 41/98/15 45/99/15 40/100/15
f 51/103/2 20/102/2 38/101/2
f 20/102/2 51/103/2 22/104/2
f 10/107/16 66/106/17 64/105/16
f 66/106/17 10/107/16 11/108/17
f 24/111/12 51/110/18 52/109/12
f 51/110/18 24/111/12 22/112/18
f 30/115/19 55/114/11 60/113/19
f 55/114/11 30/115/19 27/116/11
f 76/119/20 30/118/19 60/117/19
f 30/118/19 76/119/20 33/120/20
f 78/123/10 33/122/20 76/121/20
f 33/122/20 78/123/10 35/124/10
f 15/127/21 72/126/22 69/125/21
f 72/126/22 15/127/21 19/128/22
f 82/31/5 81/36/5 80/129/5
f 83/20/5 81/36/5 82/31/5
f 83/20/5 84/34/5 81/36/5
f 85/19/5 84/34/5 83/20/5
f 85/19/5 86/33/5 84/34/5
f 87/15/5 86/33/5 85/19/5
f 87/15/5 88/30/5 86/33/5
f 89/11/5 88/30/5 87/15/5
f 89/11/5 90/28/5 88/30/5
f 91/9/5 90/28/5 89/11/5
f 90/28/5 91/9/5 92/26/5
f 93/10/5 92/26/5 91/9/5
f 93/10/5 94/25/5 92/26/5
f 95/16/5 94/25/5 93/10/5
f 94/25/5 95/16/5 96/21/5
f 89/132/23 53/131/24 50/130/23
f 53/131/24 89/132/23 87/133/24
f 72/136/22 34/135/14 75/134/14
f 34/135/14 72/136/22 19/137/22
f 11/140/17 69/139/21 66/138/17
f 69/139/21 11/140/17 15/141/21
f 91/144/25 50/143/23 48/142/25
f 50/143/23 91/144/25 89/145/23
f 87/148/24 56/147/26 53/146/24
f 56/147/26 87/148/24 85/149/26
f 82/152/28 57/151/27 83/150/27
f 57/151/27 82/152/28 68/153/28
f 86/156/30 71/155/29 84/154/29
f 71/155/29 86/156/30 70/157/30
f 83/160/27 56/159/26 85/158/26
f 56/159/26 83/160/27 57/161/27
f 88/164/31 65/163/32 67/162/31
f 65/163/32 88/164/31 90/165/32
f 80/168/15 68/167/28 82/166/28
f 68/167/28 80/168/15 74/169/15
f 94/172/15 63/171/15 92/170/15
f 63/171/15 94/172/15 62/173/15
f 94/176/4 58/175/4 62/174/4
f 58/175/4 94/176/4 96/177/4
f 86/180/30 67/179/31 70/178/30
f 67/179/31 86/180/30 88/181/31
f 90/184/32 63/183/33 65/182/32
f 63/183/33 90/184/32 92/185/33
f 81/188/34 74/187/15 80/186/15
f 74/187/15 81/188/34 73/189/34
f 58/190/2 95/172/2 54/173/2
f 95/172/2 58/190/2 96/191/2
f 95/194/1 49/193/1 54/192/1
f 49/193/1 95/194/1 93/195/1
f 84/198/29 73/197/34 81/196/34
f 73/197/34 84/198/29 71/199/29
f 91/200/15 49/190/15 93/191/15
f 49/190/15 91/200/15 48/201/15
f 8/6/15 97/203/15 7/202/15
f 97/203/15 8/6/15 98/5/15
f 9/206/32 97/205/33 99/204/32
f 97/205/33 9/206/32 7/207/33
f 26/210/34 100/209/15 32/208/15
f 100/209/15 26/210/34 101/211/34
f 16/214/30 103/213/31 102/212/30
f 103/213/31 16/214/30 13/215/31
f 29/218/27 104/217/26 28/216/26
f 104/217/26 29/218/27 105/219/27
f 23/222/23 107/221/24 106/220/23
f 107/221/24 23/222/23 25/223/24
f 31/226/28 105/225/27 29/224/27
f 105/225/27 31/226/28 108/227/28
f 16/230/30 109/229/29 17/228/29
f 109/229/29 16/230/30 102/231/30
f 8/234/4 5/233/4 98/232/4
f 5/233/4 8/234/4 6/235/4
f 32/238/15 108/237/28 31/236/28
f 108/237/28 32/238/15 100/239/15
f 13/242/31 99/241/32 103/240/31
f 99/241/32 13/242/31 9/243/32
f 21/246/25 106/245/23 110/244/25
f 106/245/23 21/246/25 23/247/23
f 17/250/29 101/249/34 26/248/34
f 101/249/34 17/250/29 109/251/29
f 25/254/24 104/253/26 107/252/24
f 104/253/26 25/254/24 28/255/26
f 21/256/15 2/7/15 4/8/15
f 2/7/15 21/256/15 110/257/15

usemtl stoneDark

f 101/31/3 108/36/3 100/129/3
f 109/20/3 108/36/3 101/31/3
f 109/20/3 105/34/3 108/36/3
f 102/19/3 105/34/3 109/20/3
f 102/19/3 104/33/3 105/34/3
f 103/15/3 104/33/3 102/19/3
f 103/15/3 107/30/3 104/33/3
f 99/11/3 107/30/3 103/15/3
f 99/11/3 106/28/3 107/30/3
f 97/9/3 106/28/3 99/11/3
f 106/28/3 97/9/3 110/26/3
f 98/10/3 110/26/3 97/9/3
f 98/10/3 2/25/3 110/26/3
f 5/16/3 2/25/3 98/10/3
f 2/25/3 5/16/3 1/21/3

