# Created by Kenney (www.kenney.nl)

mtllib ironFenceBorderGate.mtl

g ironFenceBorderGate

v -0.309 0.7539 -0.491
v -0.309 0.13 -0.491
v -0.309 0.7539 -0.409
v -0.309 0.13 -0.409
v -0.3 0.7739 -0.4
v -0.4 0.7739 -0.4
v -0.3 0.8239 -0.4
v -0.4 0.8239 -0.4
v -0.4 0.7739 -0.5
v -0.4 0.8239 -0.5
v -0.3 0.8239 -0.5
v -0.3 0.7739 -0.5
v -0.391 0.13 -0.491
v -0.391 0.7539 -0.491
v -0.3 0 -0.4
v -0.3 0 -0.5
v -0.5 0 -0.4
v -0.5 0 -0.5
v -0.3 0.11 -0.5
v -0.3 0.11 -0.4
v -0.5 0.07 -0.5
v -0.4 0.07 -0.5
v -0.4 0.11 -0.5
v -0.4 0.11 -0.4
v -0.391 0.13 -0.409
v -0.391 0.7539 -0.409
v -0.4 0.07 -0.4
v -0.5 0.07 -0.4
v -0.4 0.09 -0.493
v -0.4 0.09 -0.407
v 0.391 0.13 -0.409
v 0.309 0.13 -0.409
v 0.391 0.7539 -0.409
v 0.309 0.7539 -0.409
v 0.4 0.8239 -0.5
v 0.4 0.7739 -0.5
v 0.4 0.8239 -0.4
v 0.4 0.7739 -0.4
v 0.309 0.13 -0.491
v 0.391 0.13 -0.491
v 0.309 0.7539 -0.491
v 0.391 0.7539 -0.491
v 0.4 0.07 -0.5
v 0.4 0.09 -0.493
v 0.4 0.11 -0.5
v 0.4 0.11 -0.4
v 0.4 0.09 -0.407
v 0.4 0.07 -0.4
v 0.3 0.7739 -0.5
v 0.3 0.8239 -0.5
v 0.3 0.7739 -0.4
v 0.3 0.8239 -0.4
v 0.5 3.053027E-19 -0.4
v 0.3 3.053027E-19 -0.4
v 0.5 0.07 -0.4
v 0.3 0.11 -0.4
v 0.3 3.053027E-19 -0.5
v 0.3 0.11 -0.5
v 0.5 3.053027E-19 -0.5
v 0.5 0.07 -0.5
v 0.5 0.09 -0.493
v 0.5 0.09 -0.407
v -0.5 0.09 -0.493
v -0.5 0.09 -0.407
v -0.391 0.21 -0.4575
v -0.391 0.6239 -0.4575
v -0.391 0.21 -0.4425
v -0.391 0.24 -0.4575
v -0.391 0.24 -0.4425
v -0.391 0.6239 -0.4425
v -0.391 0.5939 -0.4575
v -0.391 0.5939 -0.4425
v 0.391 0.6239 -0.4425
v 0.391 0.6239 -0.4575
v 0.391 0.5939 -0.4425
v 0.391 0.21 -0.4575
v 0.391 0.5939 -0.4575
v 0.391 0.24 -0.4575
v 0.391 0.21 -0.4425
v 0.391 0.24 -0.4425
v -0.5 0.5939 -0.4425
v -0.5 0.5939 -0.4575
v -0.5 0.6239 -0.4575
v -0.5 0.6239 -0.4425
v -0.5 0.21 -0.4425
v -0.5 0.21 -0.4575
v -0.5 0.24 -0.4575
v -0.5 0.24 -0.4425
v 0.5 0.5939 -0.4575
v 0.5 0.6239 -0.4575
v 0.5 0.5939 -0.4425
v 0.5 0.6239 -0.4425
v 0.5 0.21 -0.4425
v 0.5 0.21 -0.4575
v 0.5 0.24 -0.4575
v 0.5 0.24 -0.4425

vn 1 0 0
vn 0 0 1
vn -1 0 0
vn 0 0 -1
vn 0 -1 0
vn -0.9119215 0.4103647 0
vn 0 0.4103647 0.9119215
vn 0 -0.4103647 0.9119215
vn 0.9119215 0.4103647 0
vn 0 1 0
vn 0 0.4103647 -0.9119215
vn 0.9119215 -0.4103647 0
vn 0 -0.4103647 -0.9119215
vn -0.9119215 -0.4103647 0
vn 0 0.3303504 -0.9438583
vn 0 0.3303504 0.9438583

vt 19.33071 29.6811
vt 19.33071 5.11811
vt 16.10236 29.6811
vt 16.10236 5.11811
vt -11.81102 30.4685
vt -15.74803 30.4685
vt -11.81102 32.43701
vt -15.74803 32.43701
vt -19.68504 30.4685
vt -19.68504 32.43701
vt 19.68504 32.43701
vt 19.68504 30.4685
vt 15.74803 32.43701
vt 15.74803 30.4685
vt 15.3937 5.11811
vt 12.16535 5.11811
vt 15.3937 29.6811
vt 12.16535 29.6811
vt -11.81102 -15.74803
vt -11.81102 -19.68504
vt -19.68504 -15.74803
vt -19.68504 -19.68504
vt 19.68504 4.330709
vt 19.68504 0
vt 15.74803 4.330709
vt 15.74803 0
vt 11.81102 0
vt 19.68504 2.755906
vt 15.74803 2.755906
vt 11.81102 4.330709
vt -19.68504 -2.51317
vt -19.33071 -1.649716
vt -15.74803 -2.51317
vt -16.10236 -1.649716
vt -11.81102 10.4117
vt -15.74803 10.4117
vt -12.16535 11.27516
vt -15.3937 11.27516
vt -12.16535 20.459
vt -15.3937 20.459
vt -11.81102 21.32245
vt -15.74803 21.32245
vt -12.16535 5.11811
vt -15.3937 5.11811
vt -12.16535 29.6811
vt -15.3937 29.6811
vt -11.81102 3.789561E-14
vt -19.68504 3.789561E-14
vt -11.81102 4.330709
vt -15.74803 2.755906
vt -15.74803 4.330709
vt -19.68504 2.755906
vt 19.68504 8.796093
vt 15.74803 8.796093
vt 19.33071 9.659547
vt 16.10236 9.659547
vt 11.81102 -19.68504
vt 11.81102 -15.74803
vt 15.74803 -19.68504
vt 15.74803 -15.74803
vt 15.74803 -4.128778
vt 11.81102 -4.128778
vt 15.3937 -3.265325
vt 12.16535 -3.265325
vt 19.68504 22.93806
vt 19.33071 22.0746
vt 15.74803 22.93806
vt 16.10236 22.0746
vt 15.3937 34.99948
vt 12.16535 34.99948
vt 15.74803 35.86293
vt 11.81102 35.86293
vt 11.81102 30.4685
vt 11.81102 32.43701
vt -19.68504 4.330709
vt -19.40945 3.543307
vt -16.02362 3.543307
vt -19.68504 34.24732
vt -15.74803 34.24732
vt -19.33071 33.38387
vt -16.10236 33.38387
vt 19.40945 3.543307
vt 16.02362 3.543307
vt -19.33071 5.11811
vt -19.33071 29.6811
vt -16.10236 5.11811
vt -16.10236 29.6811
vt 19.68504 1.201979E-17
vt 11.81102 1.201979E-17
vt 19.68504 34.24732
vt 19.33071 33.38387
vt 15.74803 34.24732
vt 16.10236 33.38387
vt 15.74803 10.4117
vt 11.81102 10.4117
vt 15.3937 11.27516
vt 12.16535 11.27516
vt -12.16535 34.99948
vt -15.3937 34.99948
vt -11.81102 35.86293
vt -15.74803 35.86293
vt -19.68504 1.201979E-17
vt -15.74803 1.201979E-17
vt -15.74803 -19.68504
vt -15.74803 -15.74803
vt 15.3937 20.459
vt 12.16535 20.459
vt 15.74803 21.32245
vt 11.81102 21.32245
vt -19.68504 8.796093
vt -19.33071 9.659547
vt -15.74803 8.796093
vt -16.10236 9.659547
vt -11.81102 -4.128778
vt -15.74803 -4.128778
vt -12.16535 -3.265325
vt -15.3937 -3.265325
vt -11.81102 -4.73575E-14
vt -19.68504 -4.73575E-14
vt 19.68504 -2.51317
vt 15.74803 -2.51317
vt 19.33071 -1.649716
vt 16.10236 -1.649716
vt -19.68504 22.93806
vt -15.74803 22.93806
vt -19.33071 22.0746
vt -16.10236 22.0746
vt 19.68504 -15.74803
vt 19.68504 -19.68504
vt -19.68504 -19.40945
vt -19.68504 -16.02362
vt -15.74803 -19.40945
vt -15.74803 -16.02362
vt -15.74803 -3.901777
vt -19.68504 -3.901777
vt -15.74803 -3.06754
vt -19.68504 -3.06754
vt 15.74803 1.201979E-17
vt 19.68504 7.803553
vt 15.74803 7.803553
vt 19.68504 8.637791
vt 15.74803 8.637791
vt -19.68504 0
vt -15.74803 0
vt -15.74803 7.803553
vt -19.68504 7.803553
vt -15.74803 8.637791
vt -19.68504 8.637791
vt 19.68504 -3.901777
vt 15.74803 -3.901777
vt 19.68504 -3.06754
vt 15.74803 -3.06754
vt 15.74803 -19.40945
vt 15.74803 -16.02362
vt 19.68504 -19.40945
vt 19.68504 -16.02362
vt -18.01181 8.267716
vt -18.01181 24.56299
vt -17.42126 8.267716
vt -18.01181 9.448819
vt -17.42126 9.448819
vt -17.42126 24.56299
vt -18.01181 23.38189
vt -17.42126 23.38189
vt 17.42126 24.56299
vt 18.01181 24.56299
vt 17.42126 23.38189
vt 18.01181 8.267716
vt 18.01181 23.38189
vt 18.01181 9.448819
vt 17.42126 8.267716
vt 17.42126 9.448819
vt -15.3937 -17.42126
vt -15.3937 -18.01181
vt -19.68504 -17.42126
vt -19.68504 -18.01181
vt 15.3937 -18.01181
vt 15.3937 -17.42126
vt 19.68504 -18.01181
vt 19.68504 -17.42126
vt -15.3937 23.38189
vt -19.68504 23.38189
vt -15.3937 24.56299
vt -19.68504 24.56299
vt 19.68504 23.38189
vt 15.3937 23.38189
vt 19.68504 24.56299
vt 15.3937 24.56299
vt -15.3937 8.267716
vt -19.68504 8.267716
vt -15.3937 9.448819
vt -19.68504 9.448819
vt 19.68504 8.267716
vt 15.3937 8.267716
vt 19.68504 9.448819
vt 15.3937 9.448819

usemtl stone

f 3/3/1 2/2/1 1/1/1
f 2/2/1 3/3/1 4/4/1
f 7/7/2 6/6/2 5/5/2
f 6/6/2 7/7/2 8/8/2
f 6/6/3 10/10/3 9/9/3
f 10/10/3 6/6/3 8/8/3
f 7/13/1 12/12/1 11/11/1
f 12/12/1 7/13/1 5/14/1
f 14/17/4 2/16/4 13/15/4
f 2/16/4 14/17/4 1/18/4
f 17/21/5 16/20/5 15/19/5
f 16/20/5 17/21/5 18/22/5
f 20/25/1 16/24/1 19/23/1
f 16/24/1 20/25/1 15/26/1
f 21/28/4 16/27/4 18/24/4
f 16/27/4 21/28/4 22/29/4
f 16/27/4 22/29/4 19/30/4
f 19/30/4 22/29/4 23/25/4
f 24/33/6 13/32/6 23/31/6
f 13/32/6 24/33/6 25/34/6
f 4/37/7 24/36/7 20/35/7
f 24/36/7 4/37/7 25/38/7
f 5/41/8 26/40/8 3/39/8
f 26/40/8 5/41/8 6/42/8
f 3/45/2 25/44/2 4/43/2
f 25/44/2 3/45/2 26/46/2
f 20/49/2 17/48/2 15/47/2
f 17/48/2 20/49/2 27/50/2
f 27/50/2 20/49/2 24/51/2
f 28/52/2 17/48/2 27/50/2
f 2/55/9 20/54/9 19/53/9
f 20/54/9 2/55/9 4/56/9
f 10/59/10 7/58/10 11/57/10
f 7/58/10 10/59/10 8/60/10
f 13/63/11 19/62/11 23/61/11
f 19/62/11 13/63/11 2/64/11
f 5/67/12 1/66/12 12/65/12
f 1/66/12 5/67/12 3/68/12
f 9/71/13 1/70/13 14/69/13
f 1/70/13 9/71/13 12/72/13
f 10/13/4 12/73/4 9/14/4
f 12/73/4 10/13/4 11/74/4
f 29/76/3 23/75/3 22/52/3
f 23/75/3 29/76/3 24/51/3
f 24/51/3 29/76/3 30/77/3
f 24/51/3 30/77/3 27/50/3
f 14/80/14 6/79/14 9/78/14
f 6/79/14 14/80/14 26/81/14
f 33/17/2 32/16/2 31/15/2
f 32/16/2 33/17/2 34/18/2
f 37/13/1 36/12/1 35/11/1
f 36/12/1 37/13/1 38/14/1
f 41/45/4 40/44/4 39/43/4
f 40/44/4 41/45/4 42/46/4
f 45/23/1 44/82/1 43/28/1
f 44/82/1 45/23/1 46/25/1
f 44/82/1 46/25/1 47/83/1
f 47/83/1 46/25/1 48/29/1
f 32/86/3 41/85/3 39/84/3
f 41/85/3 32/86/3 34/87/3
f 51/6/3 50/10/3 49/9/3
f 50/10/3 51/6/3 52/8/3
f 37/13/2 51/73/2 38/14/2
f 51/73/2 37/13/2 52/74/2
f 55/28/2 54/89/2 53/88/2
f 54/89/2 55/28/2 48/29/2
f 54/89/2 48/29/2 56/30/2
f 56/30/2 48/29/2 46/25/2
f 38/92/12 42/91/12 36/90/12
f 42/91/12 38/92/12 33/93/12
f 31/96/7 56/95/7 46/94/7
f 56/95/7 31/96/7 32/97/7
f 49/100/13 42/99/13 41/98/13
f 42/99/13 49/100/13 36/101/13
f 54/103/3 58/75/3 57/102/3
f 58/75/3 54/103/3 56/51/3
f 50/20/10 37/105/10 35/104/10
f 37/105/10 50/20/10 52/19/10
f 38/108/8 34/107/8 33/106/8
f 34/107/8 38/108/8 51/109/8
f 50/7/4 36/6/4 49/5/4
f 36/6/4 50/7/4 35/8/4
f 56/112/6 39/111/6 58/110/6
f 39/111/6 56/112/6 32/113/6
f 39/116/11 45/115/11 58/114/11
f 45/115/11 39/116/11 40/117/11
f 58/49/4 59/119/4 57/118/4
f 59/119/4 58/49/4 43/50/4
f 43/50/4 58/49/4 45/51/4
f 60/52/4 59/119/4 43/50/4
f 40/122/9 46/121/9 45/120/9
f 46/121/9 40/122/9 31/123/9
f 41/126/14 51/125/14 49/124/14
f 51/125/14 41/126/14 34/127/14
f 54/58/5 59/129/5 53/128/5
f 59/129/5 54/58/5 57/57/5
f 44/132/10 62/131/10 61/130/10
f 62/131/10 44/132/10 47/133/10
f 44/136/15 60/135/15 43/134/15
f 60/135/15 44/136/15 61/137/15
f 61/82/1 59/88/1 60/28/1
f 59/88/1 61/82/1 53/138/1
f 53/138/1 61/82/1 62/83/1
f 53/138/1 62/83/1 55/29/1
f 62/141/16 48/140/16 55/139/16
f 48/140/16 62/141/16 47/142/16
f 17/144/3 21/52/3 18/143/3
f 21/52/3 17/144/3 63/76/3
f 63/76/3 17/144/3 64/77/3
f 64/77/3 17/144/3 28/50/3
f 30/147/16 28/146/16 27/145/16
f 28/146/16 30/147/16 64/148/16
f 63/151/15 22/150/15 21/149/15
f 22/150/15 63/151/15 29/152/15
f 63/155/10 30/154/10 29/153/10
f 30/154/10 63/155/10 64/156/10
f 13/84/3 65/157/3 14/85/3
f 65/157/3 13/84/3 25/86/3
f 66/158/3 14/85/3 65/157/3
f 14/85/3 66/158/3 26/87/3
f 65/157/3 25/86/3 67/159/3
f 66/158/3 65/157/3 68/160/3
f 67/159/3 25/86/3 69/161/3
f 26/87/3 66/158/3 70/162/3
f 26/87/3 70/162/3 25/86/3
f 66/158/3 68/160/3 71/163/3
f 69/161/3 71/163/3 68/160/3
f 72/164/3 25/86/3 70/162/3
f 71/163/3 69/161/3 72/164/3
f 69/161/3 25/86/3 72/164/3
f 74/166/1 33/3/1 73/165/1
f 73/165/1 33/3/1 75/167/1
f 74/166/1 42/1/1 33/3/1
f 42/1/1 74/166/1 40/2/1
f 76/168/1 40/2/1 74/166/1
f 76/168/1 74/166/1 77/169/1
f 40/2/1 76/168/1 31/4/1
f 76/168/1 77/169/1 78/170/1
f 75/167/1 78/170/1 77/169/1
f 31/4/1 76/168/1 79/171/1
f 31/4/1 79/171/1 33/3/1
f 78/170/1 75/167/1 80/172/1
f 75/167/1 33/3/1 80/172/1
f 80/172/1 33/3/1 79/171/1

usemtl metal

f 81/175/5 71/174/5 72/173/5
f 71/174/5 81/175/5 82/176/5
f 83/179/10 70/178/10 66/177/10
f 70/178/10 83/179/10 84/180/10
f 70/183/2 81/182/2 72/181/2
f 81/182/2 70/183/2 84/184/2
f 81/164/3 83/158/3 82/163/3
f 83/158/3 81/164/3 84/162/3
f 83/187/4 71/186/4 82/185/4
f 71/186/4 83/187/4 66/188/4
f 85/175/5 65/174/5 67/173/5
f 65/174/5 85/175/5 86/176/5
f 85/159/3 87/160/3 86/157/3
f 87/160/3 85/159/3 88/161/3
f 69/191/2 85/190/2 67/189/2
f 85/190/2 69/191/2 88/192/2
f 87/195/4 65/194/4 86/193/4
f 65/194/4 87/195/4 68/196/4
f 87/179/10 69/178/10 68/177/10
f 69/178/10 87/179/10 88/180/10
f 74/183/4 89/182/4 77/181/4
f 89/182/4 74/183/4 90/184/4
f 92/187/2 75/186/2 91/185/2
f 75/186/2 92/187/2 73/188/2
f 74/174/10 92/175/10 90/176/10
f 92/175/10 74/174/10 73/173/10
f 92/165/1 89/169/1 90/166/1
f 89/169/1 92/165/1 91/167/1
f 75/178/5 89/179/5 91/180/5
f 89/179/5 75/178/5 77/177/5
f 79/178/5 94/179/5 93/180/5
f 94/179/5 79/178/5 76/177/5
f 96/172/1 94/168/1 95/170/1
f 94/168/1 96/172/1 93/171/1
f 78/191/4 94/190/4 76/189/4
f 94/190/4 78/191/4 95/192/4
f 96/195/2 79/194/2 93/193/2
f 79/194/2 96/195/2 80/196/2
f 78/174/10 96/175/10 95/176/10
f 96/175/10 78/174/10 80/173/10

