# Created by Kenney (www.kenney.nl)

mtllib ironFenceBar.mtl

g ironFenceBar

v -1.082867E-15 0.7339 -7.219114E-16
v 0.0225 0.6639 -0.0225
v 0.0225 0.6639 0.0225
v -0.0225 0.6639 -0.0225
v -0.0225 0.6639 0.0225
v 0.015 0 0.015
v 0.015 0 -0.015
v -0.015 0 0.015
v -0.015 0 -0.015
v 0.015 0.6239 -0.015
v 0.015 0.6239 0.015
v -0.015 0.6239 0.015
v -0.015 0.6239 -0.015

vn 0.9520285 0.3060092 0
vn 0 0.3060092 -0.9520285
vn 0 0.3060092 0.9520285
vn -0.9520285 0.3060092 0
vn 0 -1 0
vn 1 0 0
vn 0 0 1
vn -1 0 0
vn 0 0 -1
vn -0.9828722 -0.1842885 0
vn 0 -0.1842885 0.9828722
vn 0.9828722 -0.1842885 0
vn 0 -0.1842885 -0.9828722

vt 2.842171E-14 27.50763
vt 0.8858268 24.61286
vt -0.8858268 24.61286
vt 4.263256E-14 27.50763
vt -4.263256E-14 27.50763
vt -2.842171E-14 27.50763
vt 0.5905512 0.5905512
vt 0.5905512 -0.5905512
vt -0.5905512 0.5905512
vt -0.5905512 -0.5905512
vt 0.5905512 24.56299
vt 0.5905512 0
vt -0.5905512 24.56299
vt -0.5905512 0
vt -0.8858268 25.85336
vt 0.8858268 25.85336
vt -0.5905512 24.25111
vt 0.5905512 24.25111

usemtl metal

f 3/3/1 2/2/1 1/1/1
f 1/4/2 2/3/2 4/2/2
f 1/5/3 5/3/3 3/2/3
f 5/2/4 1/6/4 4/3/4
f 8/9/5 7/8/5 6/7/5
f 7/8/5 8/9/5 9/10/5
f 11/13/6 7/12/6 10/11/6
f 7/12/6 11/13/6 6/14/6
f 11/11/7 8/14/7 6/12/7
f 8/14/7 11/11/7 12/13/7
f 8/12/8 13/13/8 9/14/8
f 13/13/8 8/12/8 12/11/8
f 13/11/9 7/14/9 9/12/9
f 7/14/9 13/11/9 10/13/9
f 13/17/10 5/16/10 4/15/10
f 5/16/10 13/17/10 12/18/10
f 3/16/11 12/17/11 11/18/11
f 12/17/11 3/16/11 5/15/11
f 3/15/12 10/18/12 2/16/12
f 10/18/12 3/15/12 11/17/12
f 4/16/13 10/17/13 13/18/13
f 10/17/13 4/16/13 2/15/13

