# Created by Kenney (www.kenney.nl)

mtllib pillarObelisk.mtl

g pillarObelisk

v -0.1031 1.0456 -0.1031
v -0.054928 0.9756 -0.151272
v -0.054928 0.9756 -0.054928
v -0.151272 0.9756 -0.151272
v -0.151272 0.9756 -0.054928
v -0.017078 0.174 -0.189122
v -0.017078 0.087 -0.189122
v -0.017078 0.174 -0.017078
v -0.017078 0.087 -0.017078
v -0.2062 0.174 -0.2062
v 0 0.174 -0.2062
v -0.2062 0.2262 -0.2062
v 0 0.2262 -0.2062
v -0.189122 0.2262 -0.189122
v -0.017078 0.2262 -0.189122
v 0 0 0
v -0.2062 0 0
v -0.189122 0.087 -0.017078
v -0.017078 0.2262 -0.017078
v 0 0 -0.2062
v -0.2062 0 -0.2062
v -0.189122 0.087 -0.189122
v -0.189122 0.174 -0.017078
v -0.189122 0.174 -0.189122
v 0 0.2262 0
v 0 0.174 0
v -0.2062 0.174 0
v -0.2062 0.2262 0
v -0.189122 0.2262 -0.017078

vn 0.8237836 0.5669044 0
vn 0 0.5669044 -0.8237836
vn 0 0.5669044 0.8237836
vn -0.8237836 0.5669044 0
vn 1 0 0
vn 0 0 -1
vn 0 0.05044278 -0.9987269
vn 0 0.1926228 0.9812729
vn 0.9987269 0.05044278 0
vn 0 -1 0
vn -0.9812729 0.1926228 0
vn 0 0.1926228 -0.9812729
vn 0 0 1
vn -1 0 0
vn 0 0.05044278 0.9987269
vn -0.9987269 0.05044278 0
vn 0.9812729 0.1926228 0
vn 0 1 0

vt 4.059055 36.21244
vt 5.955591 32.86702
vt 2.16252 32.86702
vt 5.955591 28.26482
vt 2.16252 28.26482
vt 4.059055 31.61025
vt -2.16252 32.86702
vt -5.955591 32.86702
vt -4.059055 36.21244
vt -5.955591 28.26482
vt -4.059055 31.61025
vt -2.16252 28.26482
vt 7.445748 6.850394
vt 7.445748 3.425197
vt 0.6723622 6.850394
vt 0.6723622 3.425197
vt 8.118111 6.850394
vt 0 6.850394
vt 8.118111 8.905512
vt 0 8.905512
vt 7.445748 8.518591
vt 0.6723622 8.518591
vt 5.955591 38.06013
vt 2.16252 38.06013
vt 0 0
vt -8.118111 0
vt -0.6723622 3.490565
vt -7.445748 3.490565
vt 7.445748 8.92809
vt 0.6723622 8.92809
vt 5.955591 38.46964
vt 2.16252 38.46964
vt 0 -8.118111
vt -8.118111 -8.118111
vt -8.118111 -1.563733
vt -7.445748 1.926832
vt 0 -1.563733
vt -0.6723622 1.926832
vt 8.118111 -1.563733
vt 7.445748 1.926832
vt 0.6723622 1.926832
vt -0.6723622 3.425197
vt -7.445748 3.425197
vt -0.6723622 6.850394
vt -7.445748 6.850394
vt -8.118111 6.850394
vt -8.118111 8.905512
vt -0.6723622 8.92809
vt -7.445748 8.92809
vt -2.16252 38.46964
vt -5.955591 38.46964
vt -7.445748 8.518591
vt -5.955591 38.06013
vt -0.6723622 8.518591
vt -2.16252 38.06013
vt 8.118111 0
vt 7.445748 3.490565
vt 0.6723622 3.490565
vt -0.6723622 -0.6723622
vt -0.6723622 -7.445748
vt -7.445748 -0.6723622
vt -7.445748 -7.445748
vt 7.445748 -7.445748
vt 8.118111 -8.118111
vt 0.6723622 -7.445748
vt 7.445748 -0.6723622
vt 0.6723622 -0.6723622

usemtl stone

f 3/3/1 2/2/1 1/1/1
f 1/6/2 2/5/2 4/4/2
f 1/9/3 5/8/3 3/7/3
f 5/12/4 1/11/4 4/10/4
f 8/15/5 7/14/5 6/13/5
f 7/14/5 8/15/5 9/16/5
f 12/19/6 11/18/6 10/17/6
f 11/18/6 12/19/6 13/20/6
f 4/23/7 15/22/7 14/21/7
f 15/22/7 4/23/7 2/24/7
f 9/27/8 17/26/8 16/25/8
f 17/26/8 9/27/8 18/28/8
f 2/31/9 19/30/9 15/29/9
f 19/30/9 2/31/9 3/32/9
f 17/26/10 20/33/10 16/25/10
f 20/33/10 17/26/10 21/34/10
f 17/37/11 22/36/11 21/35/11
f 22/36/11 17/37/11 18/38/11
f 22/40/12 20/37/12 21/39/12
f 20/37/12 22/40/12 7/41/12
f 8/44/13 18/43/13 9/42/13
f 18/43/13 8/44/13 23/45/13
f 18/42/14 24/45/14 22/43/14
f 24/45/14 18/42/14 23/44/14
f 24/13/6 7/16/6 22/14/6
f 7/16/6 24/13/6 6/15/6
f 25/20/5 11/17/5 13/19/5
f 11/17/5 25/20/5 26/18/5
f 25/20/13 27/46/13 26/18/13
f 27/46/13 25/20/13 28/47/13
f 27/18/14 12/47/14 10/46/14
f 12/47/14 27/18/14 28/20/14
f 3/50/15 29/49/15 19/48/15
f 29/49/15 3/50/15 5/51/15
f 29/54/16 4/53/16 14/52/16
f 4/53/16 29/54/16 5/55/16
f 7/57/17 16/25/17 20/56/17
f 16/25/17 7/57/17 9/58/17
f 26/25/10 8/59/10 11/33/10
f 8/59/10 26/25/10 27/26/10
f 6/60/10 11/33/10 8/59/10
f 8/59/10 27/26/10 23/61/10
f 11/33/10 6/60/10 10/34/10
f 23/61/10 27/26/10 24/62/10
f 10/34/10 6/60/10 24/62/10
f 10/34/10 24/62/10 27/26/10
f 15/65/18 12/64/18 14/63/18
f 14/63/18 12/64/18 29/66/18
f 15/65/18 13/33/18 12/64/18
f 28/56/18 29/66/18 12/64/18
f 13/33/18 15/65/18 25/25/18
f 28/56/18 19/67/18 29/66/18
f 25/25/18 19/67/18 28/56/18
f 19/67/18 25/25/18 15/65/18

