# Created by Kenney (www.kenney.nl)

mtllib pillarSquare.mtl

g pillarSquare

v -0.1031002 0.7174217 -0.1031002
v -0.1031002 0.8178 -0.1031002
v -0.1031002 0.7174217 0.1031002
v -0.1031002 0.8178 0.1031002
v 0.08602212 0.174 -0.08602212
v 0.08602212 0.087 -0.08602212
v 0.08602212 0.174 0.08602212
v 0.08602212 0.087 0.08602212
v 0.1031002 0 0.1031002
v 0.1031002 0 -0.1031002
v -0.1031002 0 0.1031002
v -0.1031002 0 -0.1031002
v 0.1031002 0.087 -0.1031002
v 0.1031002 0.087 0.1031002
v -0.08602212 0.087 -0.08602212
v -0.08602212 0.174 -0.08602212
v 0.1031002 0.9048 0.1031002
v -0.1031002 0.9048 0.1031002
v 0.1031002 0.9918 0.1031002
v -0.1031002 0.9918 0.1031002
v 0.1031002 0.9918 -0.1031002
v 0.1031002 0.9048 -0.1031002
v -0.1031002 0.174 -0.1031002
v 0.1031002 0.174 -0.1031002
v -0.1031002 0.2743783 -0.1031002
v 0.1031002 0.2743783 -0.1031002
v 0.08602212 0.2743783 0.08602212
v 0.03784384 0.2743783 0.08602212
v 0.08602212 0.7174217 0.08602212
v 0.03784384 0.7174217 0.08602212
v -0.08602212 0.9918 -0.08602212
v -0.08602212 1.0266 -0.08602212
v -0.08602212 0.9918 0.08602212
v -0.08602212 1.0266 0.08602212
v -0.03784384 0.7174217 0.08602212
v 0.03784384 0.7174217 0.06602198
v -0.03784384 0.7174217 0.06602198
v -0.08602212 0.7174217 0.08602212
v -0.08602212 0.7174217 -0.08602212
v 0.1031002 0.7174217 0.1031002
v 0.08602212 0.7174217 -0.08602212
v 0.1031002 0.7174217 -0.1031002
v 0.1031002 0.8178 -0.1031002
v 0.1031002 0.8178 0.1031002
v -0.03784384 0.2743783 0.06602198
v -0.03784384 0.2743783 0.08602212
v -0.1031002 0.9048 -0.1031002
v -0.1031002 0.9918 -0.1031002
v -0.1031002 0.087 0.1031002
v -0.08602212 0.087 0.08602212
v -0.08602212 0.174 0.08602212
v 0.1031002 0.2743783 0.1031002
v 0.1031002 0.174 0.1031002
v -0.1031002 0.174 0.1031002
v -0.1031002 0.2743783 0.1031002
v -0.08602212 0.2743783 -0.08602212
v -0.08602212 0.2743783 0.08602212
v 0.08602212 0.2743783 -0.08602212
v 0.03784384 0.2743783 0.06602198
v 0.08602212 1.0266 -0.08602212
v 0.08602212 0.9918 -0.08602212
v 0.08602212 1.0266 0.08602212
v 0.08602212 0.9918 0.08602212
v 0.07655942 1.044 0.07655942
v -0.07655942 1.044 0.07655942
v 0.07655942 1.044 -0.07655942
v -0.1031002 0.087 -0.1031002
v -0.07655942 1.044 -0.07655942
v -0.08602212 0.9048 0.08602212
v 0.08602212 0.9048 0.08602212
v -0.08602212 0.9048 -0.08602212
v 0.08602212 0.9048 -0.08602212
v 0.08602212 0.8178 -0.08602212
v 0.08602212 0.8178 0.08602212
v -0.08602212 0.8178 -0.08602212
v -0.08602212 0.8178 0.08602212

vn -1 0 0
vn 1 0 0
vn 0 -1 0
vn 0 0 -1
vn 0 0 1
vn 0 0.4777541 0.8784936
vn 0.8784936 0.4777541 0
vn 0 1 0
vn 0 0.4777541 -0.8784936
vn -0.8784936 0.4777541 0

vt -4.059064 28.24495
vt -4.059064 32.19685
vt 4.059064 28.24495
vt 4.059064 32.19685
vt 3.386698 6.850394
vt 3.386698 3.425197
vt -3.386698 6.850394
vt -3.386698 3.425197
vt 4.059064 4.059064
vt 4.059064 -4.059064
vt -4.059064 4.059064
vt -4.059064 -4.059064
vt 4.059064 3.425197
vt 4.059064 0
vt -4.059064 3.425197
vt -4.059064 0
vt 4.059064 35.62205
vt -4.059064 35.62205
vt 4.059064 39.04725
vt -4.059064 39.04725
vt 4.059064 6.850394
vt -4.059064 6.850394
vt 4.059064 10.80229
vt -4.059064 10.80229
vt 3.386698 10.80229
vt 1.489915 10.80229
vt 3.386698 28.24495
vt 1.489915 28.24495
vt -3.386698 39.04725
vt -3.386698 40.41732
vt 3.386698 39.04725
vt 3.386698 40.41732
vt -1.489915 3.386698
vt 1.489915 2.599291
vt -1.489915 2.599291
vt 1.489915 3.386698
vt -3.386698 3.386698
vt -3.386698 -3.386698
vt 3.386698 3.386698
vt 3.386698 -3.386698
vt -2.599291 28.24495
vt -2.599291 10.80229
vt -3.386698 28.24495
vt -3.386698 10.80229
vt 2.599291 10.80229
vt 2.599291 28.24495
vt 3.386698 33.88835
vt -3.386698 33.88835
vt 3.01415 34.66814
vt -3.01415 34.66814
vt -3.01415 -3.01415
vt -3.01415 3.01415
vt 3.01415 -3.01415
vt 3.01415 3.01415
vt -1.489915 10.80229
vt -1.489915 28.24495
vt 3.386698 32.19685
vt -3.386698 32.19685
vt 3.386698 35.62205
vt -3.386698 35.62205

usemtl stone

f 3/3/1 2/2/1 1/1/1
f 2/2/1 3/3/1 4/4/1
f 7/7/2 6/6/2 5/5/2
f 6/6/2 7/7/2 8/8/2
f 11/11/3 10/10/3 9/9/3
f 10/10/3 11/11/3 12/12/3
f 14/15/2 10/14/2 13/13/2
f 10/14/2 14/15/2 9/16/2
f 16/5/4 6/8/4 15/6/4
f 6/8/4 16/5/4 5/7/4
f 19/19/5 18/18/5 17/17/5
f 18/18/5 19/19/5 20/20/5
f 19/20/2 22/17/2 21/19/2
f 22/17/2 19/20/2 17/18/2
f 25/23/4 24/22/4 23/21/4
f 24/22/4 25/23/4 26/24/4
f 29/27/5 28/26/5 27/25/5
f 28/26/5 29/27/5 30/28/5
f 33/31/1 32/30/1 31/29/1
f 32/30/1 33/31/1 34/32/1
f 37/35/3 36/34/3 35/33/3
f 30/36/3 35/33/3 36/34/3
f 30/36/3 3/11/3 35/33/3
f 35/33/3 3/11/3 38/37/3
f 38/37/3 3/11/3 39/38/3
f 29/39/3 3/11/3 30/36/3
f 1/12/3 39/38/3 3/11/3
f 29/39/3 40/9/3 3/11/3
f 1/12/3 41/40/3 39/38/3
f 40/9/3 29/39/3 42/10/3
f 42/10/3 41/40/3 1/12/3
f 41/40/3 42/10/3 29/39/3
f 44/2/2 42/3/2 43/4/2
f 42/3/2 44/2/2 40/1/2
f 35/43/2 45/42/2 37/41/2
f 45/42/2 35/43/2 46/44/2
f 18/17/1 48/20/1 47/18/1
f 48/20/1 18/17/1 20/19/1
f 14/13/5 11/16/5 9/14/5
f 11/16/5 14/13/5 49/15/5
f 50/6/1 16/7/1 15/8/1
f 16/7/1 50/6/1 51/5/1
f 52/24/2 24/21/2 26/23/2
f 24/21/2 52/24/2 53/22/2
f 54/21/1 25/24/1 23/22/1
f 25/24/1 54/21/1 55/23/1
f 57/25/1 39/43/1 56/44/1
f 39/43/1 57/25/1 38/27/1
f 39/27/4 58/44/4 56/25/4
f 58/44/4 39/27/4 41/43/4
f 52/23/5 54/22/5 53/21/5
f 54/22/5 52/23/5 55/24/5
f 28/25/1 36/46/1 59/45/1
f 36/46/1 28/25/1 30/27/1
f 62/30/2 61/31/2 60/32/2
f 61/31/2 62/30/2 63/29/2
f 62/32/5 33/29/5 63/31/5
f 33/29/5 62/32/5 34/30/5
f 64/49/6 34/48/6 62/47/6
f 34/48/6 64/49/6 65/50/6
f 66/49/7 62/48/7 60/47/7
f 62/48/7 66/49/7 64/50/7
f 45/34/8 28/33/8 59/35/8
f 46/36/8 28/33/8 45/34/8
f 55/9/8 28/33/8 46/36/8
f 55/9/8 46/36/8 57/39/8
f 55/9/8 27/37/8 28/33/8
f 52/11/8 27/37/8 55/9/8
f 55/9/8 57/39/8 25/10/8
f 56/40/8 25/10/8 57/39/8
f 27/37/8 52/11/8 58/38/8
f 58/38/8 25/10/8 56/40/8
f 26/12/8 58/38/8 52/11/8
f 58/38/8 26/12/8 25/10/8
f 11/14/1 67/15/1 12/16/1
f 67/15/1 11/14/1 49/13/1
f 48/19/4 22/18/4 47/17/4
f 22/18/4 48/19/4 21/20/4
f 32/32/4 61/29/4 31/31/4
f 61/29/4 32/32/4 60/30/4
f 68/53/8 64/52/8 66/51/8
f 64/52/8 68/53/8 65/54/8
f 67/13/4 10/16/4 12/14/4
f 10/16/4 67/13/4 13/15/4
f 29/43/2 58/25/2 41/27/2
f 58/25/2 29/43/2 27/44/2
f 44/4/5 3/1/5 40/3/5
f 3/1/5 44/4/5 4/2/5
f 68/49/9 60/48/9 32/47/9
f 60/48/9 68/49/9 66/50/9
f 2/4/4 42/1/4 1/3/4
f 42/1/4 2/4/4 43/2/4
f 7/5/5 50/8/5 8/6/5
f 50/8/5 7/5/5 51/7/5
f 34/47/10 68/50/10 32/48/10
f 68/50/10 34/47/10 65/49/10
f 35/56/5 57/44/5 46/55/5
f 57/44/5 35/56/5 38/43/5
f 21/12/8 61/38/8 19/11/8
f 61/38/8 21/12/8 48/10/8
f 63/37/8 19/11/8 61/38/8
f 61/38/8 48/10/8 31/40/8
f 19/11/8 63/37/8 20/9/8
f 31/40/8 48/10/8 33/39/8
f 20/9/8 63/37/8 33/39/8
f 20/9/8 33/39/8 48/10/8
f 70/39/3 18/11/3 69/37/3
f 69/37/3 18/11/3 71/38/3
f 70/39/3 17/9/3 18/11/3
f 47/12/3 71/38/3 18/11/3
f 17/9/3 70/39/3 22/10/3
f 47/12/3 72/40/3 71/38/3
f 22/10/3 72/40/3 47/12/3
f 72/40/3 22/10/3 70/39/3
f 13/12/8 6/38/8 14/11/8
f 6/38/8 13/12/8 67/10/8
f 8/37/8 14/11/8 6/38/8
f 6/38/8 67/10/8 15/40/8
f 14/11/8 8/37/8 49/9/8
f 15/40/8 67/10/8 50/39/8
f 49/9/8 8/37/8 50/39/8
f 49/9/8 50/39/8 67/10/8
f 43/12/8 73/38/8 44/11/8
f 73/38/8 43/12/8 2/10/8
f 74/37/8 44/11/8 73/38/8
f 73/38/8 2/10/8 75/40/8
f 44/11/8 74/37/8 4/9/8
f 75/40/8 2/10/8 76/39/8
f 4/9/8 74/37/8 76/39/8
f 4/9/8 76/39/8 2/10/8
f 53/9/3 7/39/3 24/10/3
f 7/39/3 53/9/3 54/11/3
f 5/40/3 24/10/3 7/39/3
f 7/39/3 54/11/3 51/37/3
f 24/10/3 5/40/3 23/12/3
f 51/37/3 54/11/3 16/38/3
f 23/12/3 5/40/3 16/38/3
f 23/12/3 16/38/3 54/11/3

usemtl stoneDark

f 36/28/5 45/55/5 59/26/5
f 45/55/5 36/28/5 37/56/5
f 71/59/4 73/58/4 75/57/4
f 73/58/4 71/59/4 72/60/4
f 70/60/2 73/57/2 72/59/2
f 73/57/2 70/60/2 74/58/2
f 76/57/1 71/60/1 75/58/1
f 71/60/1 76/57/1 69/59/1
f 70/59/5 76/58/5 74/57/5
f 76/58/5 70/59/5 69/60/5

