# Created by Kenney (www.kenney.nl)

mtllib pine.mtl

g pine

v -0.09049638 1.772446 -0.1567443
v -2.165734E-15 2.289848 -1.263345E-15
v -0.1809928 1.772446 -5.414336E-16
v 0.09049638 1.772446 -0.1567443
v 0.1809928 1.772446 -5.414336E-16
v 0.09049638 1.772446 0.1567443
v -0.09049638 1.772446 0.1567443
v -0.2328242 0.5415 -0.4032633
v 0.2328242 0.5415 -0.4032633
v -0.1925055 0.7739441 -0.3334293
v 0.1925055 0.7739441 -0.3334293
v 0.1452124 1.37123 -0.2515153
v 0.2904249 1.37123 -1.082867E-15
v 0.1101529 1.630344 -0.1907903
v 0.2203057 1.630344 -2.346212E-15
v 0.1452124 1.37123 0.2515153
v -0.1452124 1.37123 0.2515153
v 0.1101529 1.630344 0.1907903
v -0.1101529 1.630344 0.1907903
v -0.3771751 0.9263051 5.414336E-16
v -0.2997558 1.17179 5.414336E-16
v -0.1885876 0.9263051 0.3266433
v -0.1498779 1.17179 0.2595962
v 0.1885876 0.9263051 0.3266433
v 0.1498779 1.17179 0.2595962
v -0.2203057 1.630344 -1.624301E-15
v -0.2904249 1.37123 -1.082867E-15
v 0.2997558 1.17179 -5.414336E-16
v 0.3771751 0.9263051 5.414336E-16
v -0.1452124 1.37123 -0.2515153
v -0.1101529 1.630344 -0.1907903
v 0.1885876 0.9263051 -0.3266433
v 0.1498779 1.17179 -0.2595962
v -0.1885876 0.9263051 -0.3266433
v -0.1498779 1.17179 -0.2595962
v 0.4656483 0.5415 1.804779E-16
v 0.385011 0.7739441 5.414336E-16
v -0.4656483 0.5415 1.804779E-16
v -0.385011 0.7739441 -1.804779E-16
v -0.1925055 0.7739441 0.3334293
v -0.2328242 0.5415 0.4032633
v 0.2328242 0.5415 0.4032633
v 0.1925055 0.7739441 0.3334293
v -0.1873532 1.17179 -0.3245053
v 0.1873532 1.17179 -0.3245053
v 0.3747065 1.17179 -1.082867E-15
v 0.1873532 1.17179 0.3245053
v -0.3747065 1.17179 -1.082867E-15
v -0.1873532 1.17179 0.3245053
v -0.1423885 1.630344 -0.246624
v -0.2847769 1.630344 -5.414336E-16
v 0.2847769 1.630344 -5.414336E-16
v 0.1423885 1.630344 0.246624
v 0.1423885 1.630344 -0.246624
v -0.1423885 1.630344 0.246624
v -0.2945 0.3705 -0.510089
v 0.2945 0.3705 -0.510089
v -0.47709 0.7739441 1.804779E-16
v -0.238545 0.7739441 0.4131721
v 0.238545 0.7739441 0.4131721
v 0.47709 0.7739441 1.804779E-16
v -0.238545 0.7739441 -0.4131721
v 0.238545 0.7739441 -0.4131721
v 0.589 0.3705 -1.804779E-16
v 0.2945 0.3705 0.510089
v 0.152561 0.3705 -1.804779E-16
v 0.0762805 0.3705 0.1321217
v 0.0762805 0.3705 -0.1321217
v -0.2945 0.3705 0.510089
v -0.0762805 0.3705 0.1321217
v -0.0762805 0.3705 -0.1321217
v -0.152561 0.3705 -1.804779E-16
v -0.589 0.3705 -1.804779E-16
v 0.2120598 0 5.414336E-16
v 0.1060299 0 -0.1836492
v 0.1060299 0 0.1836492
v -0.1060299 0 -0.1836492
v -0.1060299 0 0.1836492
v -0.2120598 0 9.023893E-16
v -0.08467136 0.095 -0.1466551
v -0.1693427 0.095 1.804779E-16
v 0.08467136 0.095 -0.1466551
v 0.08467136 0.095 0.1466551
v -0.08467136 0.095 0.1466551
v 0.1693427 0.095 1.804779E-16

vn -0.4719571 0.330191 -0.8174536
vn -0.8288271 0.2899323 -0.4785235
vn -0.9439141 0.330191 0
vn 0.4719571 0.330191 -0.8174536
vn 0 0.2899324 -0.9570471
vn 0.8288271 0.2899323 0.4785235
vn 0.9439141 0.330191 0
vn 0.4719571 0.330191 0.8174536
vn -0.4719571 0.330191 0.8174536
vn 0 0.2899324 0.9570471
vn 0.8288271 0.2899323 -0.4785235
vn -0.8288271 0.2899323 0.4785235
vn -0.4723824 0.327749 -0.8181903
vn 0.4723824 0.327749 -0.8181903
vn 0.4826401 0.2612162 -0.8359573
vn 0.9652803 0.2612162 0
vn 0.4826401 0.2612162 0.8359573
vn -0.4826401 0.2612162 0.8359573
vn -0.9536965 0.3007705 0
vn -0.4768482 0.3007705 0.8259254
vn 0.4768482 0.3007705 0.8259254
vn -0.9652803 0.2612162 0
vn 0.9536965 0.3007705 0
vn -0.4826401 0.2612162 -0.8359573
vn 0.4768482 0.3007705 -0.8259254
vn -0.4768482 0.3007705 -0.8259254
vn 0.9447649 0.327749 0
vn -0.9447649 0.327749 0
vn -0.4723824 0.327749 0.8181903
vn 0.4723824 0.327749 0.8181903
vn -0.460564 0.3892597 -0.7977203
vn 0.460564 0.3892597 -0.7977203
vn 0.921128 0.3892598 0
vn 0.460564 0.3892597 0.7977203
vn -0.921128 0.3892598 0
vn -0.460564 0.3892597 0.7977203
vn -0.4037764 0.5897953 -0.6993613
vn -0.8075529 0.5897953 0
vn 0.8075529 0.5897953 0
vn 0.4037764 0.5897953 0.6993613
vn 0.4037764 0.5897953 -0.6993613
vn -0.4037764 0.5897953 0.6993613
vn -0.4055065 0.5850282 -0.7023578
vn 0.4055065 0.5850282 -0.7023578
vn -0.8362293 0.5483801 0
vn -0.4181147 0.54838 0.7241958
vn 0.4181147 0.54838 0.7241958
vn 0.8362293 0.5483801 0
vn -0.4181147 0.54838 -0.7241958
vn 0.4181147 0.54838 -0.7241958
vn 0 -1 0
vn -0.811013 0.5850282 0
vn 0.4055065 0.5850282 0.7023578
vn -0.4055065 0.5850282 0.7023578
vn 0.811013 0.5850282 0
vn -0.4560198 0.4101018 -0.7898496
vn -0.9120398 0.4101019 0
vn 0.4560198 0.4101018 -0.7898496
vn 0.4560198 0.4101018 0.7898496
vn -0.4560198 0.4101018 0.7898496
vn 0.9120398 0.4101019 0
vn 0.499075 0.06080096 0.8644232
vn -0.499075 0.06080096 0.8644232
vn 0.9981499 0.06080095 0
vn -0.9981499 0.06080095 0
vn -0.499075 0.06080096 -0.8644232
vn 0.499075 0.06080096 -0.8644232

vt -3.56285 64.99484
vt -4.418E-16 86.27924
vt 3.56285 64.99484
vt 8.526513E-14 86.27924
vt 4.418E-16 86.27924
vt -8.526513E-14 86.27924
vt 8.393057E-14 86.27924
vt -8.393057E-14 86.27924
vt 9.166306 15.84924
vt -9.166306 15.84924
vt 7.578957 25.40466
vt -7.578957 25.40466
vt 5.717025 50.3019
vt -5.717025 50.3019
vt 4.336727 60.77961
vt -4.336727 60.77961
vt -7.424707 31.79193
vt -5.900706 41.81067
vt 7.424707 31.79193
vt 5.900706 41.81067
vt 7.376112 38.9325
vt -7.376112 38.9325
vt 5.717025 47.2938
vt -5.717025 47.2938
vt -5.605845 49.05634
vt -3.56285 55.67606
vt 5.605845 49.05634
vt 3.56285 55.67606
vt 11.59449 1.730992
vt -11.59449 1.730992
vt 9.166306 9.668993
vt -9.166306 9.668993
vt -9.391536 18.46247
vt -7.424707 25.36079
vt 9.391536 18.46247
vt 7.424707 25.36079
vt 23.18898 -7.105427E-15
vt 11.59449 -20.08224
vt 11.59449 20.08224
vt 6.006339 -7.105427E-15
vt 3.00317 5.201643
vt 3.00317 -5.201643
vt -11.59449 20.08224
vt -11.59449 -20.08224
vt -3.00317 5.201643
vt -3.00317 -5.201643
vt -6.006339 -7.105427E-15
vt -23.18898 -7.105427E-15
vt 14.75222 -4.263256E-14
vt 11.80141 -2.131628E-14
vt 7.376112 12.7758
vt 7.376112 -12.7758
vt 5.900706 10.22032
vt 5.900706 -10.22032
vt -7.376112 12.7758
vt -5.900706 10.22032
vt -7.376112 -12.7758
vt -5.900706 -10.22032
vt -11.80141 2.131628E-14
vt -14.75222 -4.263256E-14
vt -4.336727 -7.511431
vt 4.336727 -7.511431
vt -5.605845 -9.709608
vt -8.673453 -6.394885E-14
vt 5.605845 -9.709608
vt -11.21169 -2.131628E-14
vt 8.673453 -9.237056E-14
vt 11.21169 -2.131628E-14
vt 5.605845 9.709608
vt 4.336727 7.511431
vt -5.605845 9.709608
vt -4.336727 7.511431
vt 18.78307 7.105427E-15
vt 15.15791 2.131628E-14
vt 9.391536 16.26662
vt 9.391536 -16.26662
vt 7.578957 13.12714
vt 7.578957 -13.12714
vt -9.391536 16.26662
vt -7.578957 13.12714
vt -9.391536 -16.26662
vt -7.578957 -13.12714
vt -15.15791 -7.105427E-15
vt -18.78307 7.105427E-15
vt 8.348811 2.131628E-14
vt 4.174406 -7.230283
vt 4.174406 7.230283
vt -4.174406 -7.230283
vt -4.174406 7.230283
vt -8.348811 3.552714E-14
vt -4.174406 -2.623646
vt -3.333518 1.390087
vt 4.174406 -2.623646
vt 3.333518 1.390087
vt 3.333518 3.430802
vt -3.333518 3.430802
vt 3.00317 14.29234
vt -3.00317 14.29234

usemtl metal

f 3/3/3 2/2/2 1/1/1
f 2/4/5 4/1/4 1/3/1
f 6/1/8 5/3/7 2/5/6
f 2/6/10 7/1/9 6/3/8
f 5/1/7 4/3/4 2/7/11
f 7/3/9 2/8/12 3/1/3
f 10/11/13 9/10/14 8/9/13
f 9/10/14 10/11/13 11/12/14
f 14/15/15 13/14/16 12/13/15
f 13/14/16 14/15/15 15/16/16
f 18/15/17 17/14/18 16/13/17
f 17/14/18 18/15/17 19/16/18
f 22/19/20 21/18/19 20/17/19
f 21/18/19 22/19/20 23/20/20
f 25/20/21 22/17/20 24/19/21
f 22/17/20 25/20/21 23/18/20
f 27/14/22 19/15/18 26/16/22
f 19/15/18 27/14/22 17/13/18
f 25/18/21 29/19/23 28/20/23
f 29/19/23 25/18/21 24/17/21
f 18/16/17 13/13/16 15/15/16
f 13/13/16 18/16/17 16/14/17
f 27/13/22 31/16/24 30/14/24
f 31/16/24 27/13/22 26/15/22
f 31/15/24 12/14/15 30/13/24
f 12/14/15 31/15/24 14/16/15
f 33/20/25 29/17/23 32/19/25
f 29/17/23 33/20/25 28/18/23
f 35/20/26 32/17/25 34/19/26
f 32/17/25 35/20/26 33/18/25
f 20/19/19 35/18/26 34/17/26
f 35/18/26 20/19/19 21/20/19
f 11/11/14 36/10/27 9/9/14
f 36/10/27 11/11/14 37/12/27
f 38/9/28 10/12/13 8/10/13
f 10/12/13 38/9/28 39/11/28
f 38/10/28 40/11/29 39/12/28
f 40/11/29 38/10/28 41/9/29
f 37/11/27 42/10/30 36/9/27
f 42/10/30 37/11/27 43/12/30
f 43/11/30 41/10/29 42/9/30
f 41/10/29 43/11/30 40/12/29

usemtl foliage

f 30/23/31 45/22/32 44/21/31
f 45/22/32 30/23/31 12/24/32
f 16/24/34 46/21/33 13/23/33
f 46/21/33 16/24/34 47/22/34
f 12/23/32 46/22/33 45/21/32
f 46/22/33 12/23/32 13/24/33
f 49/21/36 27/24/35 48/22/35
f 27/24/35 49/21/36 17/23/36
f 16/23/34 49/22/36 47/21/34
f 49/22/36 16/23/34 17/24/36
f 48/21/35 30/24/31 44/22/31
f 30/24/31 48/21/35 27/23/35
f 51/27/38 1/26/37 50/25/37
f 1/26/37 51/27/38 3/28/38
f 6/26/40 52/27/39 5/28/39
f 52/27/39 6/26/40 53/25/40
f 1/28/37 54/25/41 50/27/37
f 54/25/41 1/28/37 4/26/41
f 55/27/42 3/26/38 51/25/38
f 3/26/38 55/27/42 7/28/42
f 4/28/41 52/25/39 54/27/41
f 52/25/39 4/28/41 5/26/39
f 6/28/40 55/25/42 53/27/40
f 55/25/42 6/28/40 7/26/42
f 8/31/43 57/30/44 56/29/43
f 57/30/44 8/31/43 9/32/44
f 59/35/46 20/34/45 58/33/45
f 20/34/45 59/35/46 22/36/46
f 24/36/47 59/33/46 60/35/47
f 59/33/46 24/36/47 22/34/46
f 29/36/48 60/33/47 61/35/48
f 60/33/47 29/36/48 24/34/47
f 58/35/45 34/34/49 62/33/49
f 34/34/49 58/35/45 20/36/45
f 32/36/50 61/33/48 63/35/50
f 61/33/48 32/36/50 29/34/48
f 34/36/49 63/33/50 62/35/49
f 63/33/50 34/36/49 32/34/50
f 65/39/51 57/38/51 64/37/51
f 57/38/51 65/39/51 66/40/51
f 66/40/51 65/39/51 67/41/51
f 68/42/51 57/38/51 66/40/51
f 67/41/51 65/39/51 69/43/51
f 57/38/51 68/42/51 56/44/51
f 67/41/51 69/43/51 70/45/51
f 56/44/51 68/42/51 71/46/51
f 70/45/51 69/43/51 72/47/51
f 56/44/51 71/46/51 72/47/51
f 56/44/51 72/47/51 69/43/51
f 56/44/51 69/43/51 73/48/51
f 73/29/52 8/32/43 56/30/43
f 8/32/43 73/29/52 38/31/52
f 42/31/53 69/30/54 65/29/53
f 69/30/54 42/31/53 41/32/54
f 36/31/55 65/30/53 64/29/55
f 65/30/53 36/31/55 42/32/53
f 69/29/54 38/32/52 73/30/52
f 38/32/52 69/29/54 41/31/54
f 9/31/44 64/30/55 57/29/44
f 64/30/55 9/31/44 36/32/55
f 47/51/51 28/50/51 46/49/51
f 28/50/51 45/52/51 46/49/51
f 28/50/51 47/51/51 25/53/51
f 45/52/51 28/50/51 33/54/51
f 25/53/51 47/51/51 49/55/51
f 25/53/51 49/55/51 23/56/51
f 45/52/51 33/54/51 44/57/51
f 44/57/51 33/54/51 35/58/51
f 23/56/51 49/55/51 21/59/51
f 44/57/51 35/58/51 21/59/51
f 21/59/51 49/55/51 48/60/51
f 44/57/51 21/59/51 48/60/51
f 50/63/51 14/62/51 31/61/51
f 50/63/51 31/61/51 26/64/51
f 54/65/51 14/62/51 50/63/51
f 50/63/51 26/64/51 51/66/51
f 54/65/51 15/67/51 14/62/51
f 15/67/51 54/65/51 52/68/51
f 53/69/51 15/67/51 52/68/51
f 15/67/51 53/69/51 18/70/51
f 26/64/51 55/71/51 51/66/51
f 18/70/51 53/69/51 55/71/51
f 19/72/51 55/71/51 26/64/51
f 18/70/51 55/71/51 19/72/51
f 60/75/51 37/74/51 61/73/51
f 37/74/51 63/76/51 61/73/51
f 37/74/51 60/75/51 43/77/51
f 63/76/51 37/74/51 11/78/51
f 43/77/51 60/75/51 59/79/51
f 43/77/51 59/79/51 40/80/51
f 63/76/51 11/78/51 62/81/51
f 62/81/51 11/78/51 10/82/51
f 40/80/51 59/79/51 39/83/51
f 62/81/51 10/82/51 39/83/51
f 39/83/51 59/79/51 58/84/51
f 62/81/51 39/83/51 58/84/51

usemtl wood

f 76/87/51 75/86/51 74/85/51
f 75/86/51 76/87/51 77/88/51
f 77/88/51 76/87/51 78/89/51
f 77/88/51 78/89/51 79/90/51
f 79/93/57 80/92/56 77/91/56
f 80/92/56 79/93/57 81/94/57
f 80/94/56 75/91/58 77/93/56
f 75/91/58 80/94/56 82/92/58
f 83/94/59 78/91/60 76/93/59
f 78/91/60 83/94/59 84/92/60
f 83/92/59 74/93/61 85/94/61
f 74/93/61 83/92/59 76/91/59
f 79/91/57 84/94/60 81/92/57
f 84/94/60 79/91/57 78/93/60
f 82/94/58 74/91/61 75/93/58
f 74/91/61 82/94/58 85/92/61
f 67/97/62 84/96/63 83/95/62
f 84/96/63 67/97/62 70/98/63
f 67/98/62 85/95/64 66/97/64
f 85/95/64 67/98/62 83/96/62
f 81/96/65 70/97/63 72/98/65
f 70/97/63 81/96/65 84/95/63
f 81/95/65 71/98/66 80/96/66
f 71/98/66 81/95/65 72/97/65
f 71/97/66 82/96/67 80/95/66
f 82/96/67 71/97/66 68/98/67
f 68/97/67 85/96/64 82/95/67
f 85/96/64 68/97/67 66/98/64

