# Created by Kenney (www.kenney.nl)

mtllib pumpkin.mtl

g pumpkin

v 0.022606 0.21733 -0.012606
v 0.022606 0.21733 0.012606
v 0.001672 0.25828 -0.011672
v 0.001672 0.25828 0.011672
v 0.059825 0.16 0
v 0.029913 0.16 0.05181
v 0.029913 0.16 -0.05181
v 0.027 0.16 -0.027
v -0.029913 0.16 -0.05181
v 0.027 0.16 0.027
v -0.027 0.16 -0.027
v -0.029913 0.16 0.05181
v -0.027 0.16 0.027
v -0.059825 0.16 0
v -0.002606 0.21733 0.012606
v -0.021672 0.25828 0.011672
v -0.002606 0.21733 -0.012606
v -0.021672 0.25828 -0.011672
v -0.15 0 0
v -0.1785 0.06 0
v -0.075 0 0.129904
v -0.08925 0.06 0.154586
v 0.1428 0.16 0
v 0.1785 0.06 0
v 0.0714 0.16 0.123668
v 0.08925 0.06 0.154586
v -0.08925 0.06 -0.154586
v 0.08925 0.06 -0.154586
v -0.0714 0.16 -0.123668
v 0.0714 0.16 -0.123668
v 0.075 0 0.129904
v -0.0714 0.16 0.123668
v -0.1428 0.16 0
v 0.15 0 0
v 0.075 0 -0.129904
v -0.075 0 -0.129904

vn 0.9667223 0.255828 0
vn 0.8903995 0.45518 0
vn 0 1 0
vn 0 0.2435147 0.9698972
vn 0 0.1560817 0.9877442
vn 0 0.1327538 0.9911489
vn 0 0.02280237 0.9997399
vn 0 0.1327538 -0.9911489
vn 0 0.1560817 -0.9877442
vn 0 0.02280237 -0.9997399
vn 0.9970758 0.07641987 0
vn -0.9998685 0.01621816 0
vn -0.9065561 -0.4220854 0
vn 0 0.2435147 -0.9698972
vn -0.9201647 0.3915315 0
vn -0.9032771 -0.4290576 0
vn -0.4516393 -0.4290594 0.7822595
vn -0.4516381 -0.4290594 0.7822602
vn 0.9417837 0.3362192 0
vn 0.4708927 0.3362224 0.8156068
vn 0.4708906 0.3362225 0.8156081
vn -0.4708906 0.3362225 -0.8156081
vn 0.4708906 0.3362225 -0.8156081
vn -0.4708927 0.3362224 -0.8156068
vn 0.4708927 0.3362224 -0.8156068
vn 0.4516393 -0.4290594 0.7822595
vn 0.4516381 -0.4290594 0.7822602
vn 0.9032771 -0.4290576 0
vn -0.9417837 0.3362192 0
vn -0.4708906 0.3362225 0.8156081
vn -0.4708927 0.3362224 0.8156068
vn 0 -1 0
vn -0.4516381 -0.4290594 -0.7822602
vn -0.4516393 -0.4290594 -0.7822595
vn 0.4516381 -0.4290594 -0.7822602
vn 0.4516393 -0.4290594 -0.7822595

vt 0.4962992 7.213414
vt -0.4962992 7.213414
vt 0.4595276 9.024067
vt -0.4595276 9.024067
vt -2.355315 0
vt -1.177677 2.039764
vt -1.177677 -2.039764
vt -1.062992 -1.062992
vt 1.177677 -2.039764
vt -1.062992 1.062992
vt 1.062992 -1.062992
vt 1.177677 2.039764
vt 1.062992 1.062992
vt 2.355315 0
vt 1.062992 5.850734
vt -1.062992 5.850734
vt 0.89 8.177875
vt -0.1025984 8.177875
vt 0.89 8.542758
vt -0.1025984 8.542758
vt 0.06582677 10.15538
vt -0.8532283 10.15538
vt 0.1025984 8.542758
vt -0.89 8.542758
vt 0.8532283 10.15538
vt -0.06582677 10.15538
vt 1.062992 6.199558
vt -1.062992 6.199558
vt 0.4962992 8.463264
vt -0.4962992 8.463264
vt -0.4962992 7.80007
vt -0.4595276 9.578454
vt 0.4962992 7.80007
vt 0.4595276 9.578454
vt -0.06582677 -0.4595276
vt -0.06582677 0.4595276
vt 0.8532283 -0.4595276
vt 0.8532283 0.4595276
vt 0.1025984 8.177875
vt -0.89 8.177875
vt -1.062992 5.380118
vt -0.4962992 7.833034
vt 1.062992 5.380118
vt 0.4962992 7.833034
vt -2.952751 1.945655
vt -3.513773 4.499917
vt 2.952768 1.945654
vt 3.513802 4.499918
vt 2.811023 4.579997
vt 3.513778 0.4591195
vt -2.81101 4.579999
vt -3.513797 0.4591172
vt 3.51378 0.4590745
vt -3.51378 0.4590745
vt 2.811024 4.579962
vt -2.811024 4.579962
vt 2.952756 1.945671
vt -2.952756 1.945671
vt 3.51378 4.499937
vt -3.51378 4.499937
vt -5.622047 0
vt -2.811024 4.868819
vt -2.811024 -4.868819
vt 2.811024 -4.868819
vt 2.811024 4.868819
vt 5.622047 0
vt 3.513773 4.499917
vt 2.952751 1.945655
vt -3.513802 4.499918
vt -2.952768 1.945654
vt 3.513797 0.4591172
vt -3.513778 0.4591195
vt 2.81101 4.579999
vt -2.811023 4.579997
vt 5.905512 0
vt 2.952756 -5.114331
vt 2.952756 5.114331
vt -2.952756 5.114331
vt -2.952756 -5.114331
vt -5.905512 0

usemtl metal

f 3/3/2 2/2/1 1/1/1
f 2/2/1 3/3/2 4/4/2
f 7/7/3 6/6/3 5/5/3
f 6/6/3 7/7/3 8/8/3
f 8/8/3 7/7/3 9/9/3
f 10/10/3 6/6/3 8/8/3
f 8/8/3 9/9/3 11/11/3
f 6/6/3 10/10/3 12/12/3
f 11/11/3 9/9/3 13/13/3
f 12/12/3 10/10/3 13/13/3
f 12/12/3 13/13/3 9/9/3
f 12/12/3 9/9/3 14/14/3
f 2/17/5 13/16/4 10/15/4
f 13/16/4 2/17/5 15/18/6
f 4/21/7 15/20/6 2/19/5
f 15/20/6 4/21/7 16/22/7
f 18/25/10 1/24/9 17/23/8
f 1/24/9 18/25/10 3/26/10
f 1/29/1 10/28/11 8/27/11
f 10/28/11 1/29/1 2/30/1
f 15/33/12 18/32/13 17/31/12
f 18/32/13 15/33/12 16/34/13
f 18/37/3 4/36/3 3/35/3
f 4/36/3 18/37/3 16/38/3
f 17/39/8 8/16/14 11/15/14
f 8/16/14 17/39/8 1/40/9
f 13/43/15 17/42/12 11/41/15
f 17/42/12 13/43/15 15/44/12

usemtl pumpkin

f 21/47/17 20/46/16 19/45/16
f 20/46/16 21/47/17 22/48/18
f 25/51/20 24/50/19 23/49/19
f 24/50/19 25/51/20 26/52/21
f 29/55/24 28/54/23 27/53/22
f 28/54/23 29/55/24 30/56/25
f 26/59/27 21/58/17 31/57/26
f 21/58/17 26/59/27 22/60/18
f 30/63/3 25/62/3 23/61/3
f 25/62/3 30/63/3 5/5/3
f 5/5/3 30/63/3 7/7/3
f 6/6/3 25/62/3 5/5/3
f 7/7/3 30/63/3 29/64/3
f 25/62/3 6/6/3 32/65/3
f 7/7/3 29/64/3 9/9/3
f 32/65/3 6/6/3 12/12/3
f 9/9/3 29/64/3 14/14/3
f 32/65/3 12/12/3 14/14/3
f 32/65/3 14/14/3 29/64/3
f 32/65/3 29/64/3 33/66/3
f 26/69/27 34/68/28 24/67/28
f 34/68/28 26/69/27 31/70/26
f 20/50/29 29/51/24 27/52/22
f 29/51/24 20/50/29 33/49/29
f 30/73/25 24/72/19 28/71/23
f 24/72/19 30/73/25 23/74/19
f 25/55/20 22/54/30 26/53/21
f 22/54/30 25/55/20 32/56/31
f 31/77/32 35/76/32 34/75/32
f 35/76/32 31/77/32 21/78/32
f 35/76/32 21/78/32 36/79/32
f 36/79/32 21/78/32 19/80/32
f 22/71/30 33/74/29 20/72/29
f 33/74/29 22/71/30 32/73/31
f 36/70/34 20/67/16 27/69/33
f 20/67/16 36/70/34 19/68/16
f 24/46/28 35/47/36 28/48/35
f 35/47/36 24/46/28 34/45/28
f 27/59/33 35/58/36 36/57/34
f 35/58/36 27/59/33 28/60/35

