# Created by Kenney (www.kenney.nl)

mtllib stoneWallColumn.mtl

g stoneWallColumn

v 0.5 0.651914 -0.477086
v 0.5 0.601914 -0.477086
v 0.5 0.651914 -0.422914
v 0.5 0.601914 -0.467086
v 0.5 0.601914 -0.432914
v 0.5 0.601914 -0.422914
v 0.5 0.09 -0.467086
v 0.5 0.09 -0.432914
v 0.5 0 -0.4
v 0.5 0.09 -0.407
v 0.5 0.07 -0.4
v 0.5 0.09 -0.493
v 0.5 0 -0.5
v 0.5 0.07 -0.5
v -0.5 0 -0.5
v -0.5 0.07 -0.5
v -0.5 0 -0.4
v -0.5 0.09 -0.493
v -0.5 0.09 -0.467086
v -0.5 0.09 -0.432914
v -0.5 0.601914 -0.467086
v -0.5 0.09 -0.407
v -0.5 0.07 -0.4
v -0.5 0.601914 -0.432914
v -0.5 0.651914 -0.422914
v -0.5 0.601914 -0.422914
v -0.5 0.651914 -0.477086
v -0.5 0.601914 -0.477086
v -0.05 0.07 -0.4
v 0.05 0.07 -0.4
v -0.05 0.11 -0.4
v 0.05 0.11 -0.4
v 0.041 0.72 -0.409
v -0.041 0.72 -0.409
v 0.05 0.7399999 -0.4
v -0.05 0.7399999 -0.4
v 0.041 0.13 -0.409
v -0.041 0.13 -0.409
v 0.05 0.7399999 -0.5
v 0.041 0.72 -0.491
v 0.05 0.11 -0.432914
v 0.05 0.09 -0.432914
v 0.05 0.09 -0.407
v -0.05 0.7399999 -0.5
v -0.05 0.79 -0.5
v -0.05 0.79 -0.4
v 0.05 0.79 -0.5
v 0.05 0.79 -0.4
v -0.041 0.13 -0.491
v -0.041 0.72 -0.491
v -0.041 0.13 -0.467086
v -0.041 0.601914 -0.477086
v -0.041 0.601914 -0.467086
v -0.041 0.651914 -0.477086
v -0.041 0.651914 -0.422914
v -0.041 0.601914 -0.422914
v -0.041 0.601914 -0.432914
v -0.041 0.13 -0.432914
v 0.041 0.13 -0.432914
v -0.05 0.11 -0.5
v 0.05 0.11 -0.5
v 0.041 0.13 -0.491
v -0.05 0.11 -0.432914
v 0.05 0.07 -0.5
v -0.05 0.07 -0.5
v -0.05 0.09 -0.432914
v -0.05 0.09 -0.407
v 0.05 0.09 -0.493
v 0.05 0.11 -0.467086
v 0.05 0.09 -0.467086
v 0.041 0.601914 -0.467086
v 0.041 0.601914 -0.477086
v -0.05 0.09 -0.493
v -0.05 0.11 -0.467086
v -0.05 0.09 -0.467086
v 0.041 0.601914 -0.422914
v 0.041 0.601914 -0.432914
v 0.041 0.651914 -0.477086
v 0.041 0.13 -0.467086
v 0.041 0.651914 -0.422914

vn 1 0 0
vn -1 0 0
vn 0 0 1
vn 0 -0.4103647 0.9119215
vn 0 -1 0
vn 0 0.4103647 0.9119215
vn 0.9119215 -0.4103647 0
vn 0 1 0
vn 0.9119215 0.4103647 0
vn 0 0.4103647 -0.9119215
vn -0.9119215 0.4103647 0
vn -0.9119215 -0.4103647 0
vn 0 0 -1
vn 0 -0.4103647 -0.9119215
vn 0 0.3303504 0.9438583
vn 0 0.3303504 -0.9438583

vt 18.78291 25.6659
vt 18.78291 23.6974
vt 16.65016 25.6659
vt 18.38921 23.6974
vt 17.04386 23.6974
vt 16.65016 23.6974
vt 18.38921 3.543307
vt 17.04386 3.543307
vt 15.74803 0
vt 16.02362 3.543307
vt 15.74803 2.755906
vt 19.40945 3.543307
vt 19.68504 0
vt 19.68504 2.755906
vt -19.68504 0
vt -19.68504 2.755906
vt -15.74803 0
vt -19.40945 3.543307
vt -18.38921 3.543307
vt -17.04386 3.543307
vt -18.38921 23.6974
vt -16.02362 3.543307
vt -15.74803 2.755906
vt -17.04386 23.6974
vt -16.65016 25.6659
vt -16.65016 23.6974
vt -18.78291 25.6659
vt -18.78291 23.6974
vt -1.968504 2.755906
vt 1.968504 2.755906
vt -1.968504 4.330709
vt 1.968504 4.330709
vt 1.614173 19.2419
vt -1.614173 19.2419
vt 1.968504 20.10536
vt -1.968504 20.10536
vt 19.68504 -15.74803
vt 19.68504 -19.68504
vt -19.68504 -15.74803
vt -19.68504 -19.68504
vt 1.968504 10.4117
vt -1.968504 10.4117
vt 1.614173 11.27516
vt -1.614173 11.27516
vt 19.68504 27.3756
vt 19.33071 26.51214
vt 15.74803 27.3756
vt 16.10236 26.51214
vt 17.04386 4.330709
vt 15.74803 4.330709
vt -19.68504 29.13386
vt -19.68504 31.10236
vt -15.74803 29.13386
vt -15.74803 31.10236
vt -1.968504 -19.68504
vt -1.968504 -15.74803
vt 1.968504 -19.68504
vt 1.968504 -15.74803
vt -19.33071 5.11811
vt -19.33071 28.34646
vt -18.38921 5.11811
vt -16.10236 28.34646
vt -16.10236 5.11811
vt -17.04386 5.11811
vt 1.968504 29.13386
vt -1.968504 29.13386
vt 1.968504 31.10236
vt -1.968504 31.10236
vt 17.04386 4.004915
vt 17.04386 3.141462
vt 16.10236 4.004915
vt 15.74803 3.141462
vt 1.968504 -4.128778
vt -1.968504 -4.128778
vt 1.614173 -3.265325
vt -1.614173 -3.265325
vt -17.04386 3.141462
vt -17.04386 4.004915
vt -15.74803 3.141462
vt -16.10236 4.004915
vt -19.68504 27.3756
vt -15.74803 27.3756
vt -19.33071 26.51214
vt -16.10236 26.51214
vt 19.68504 31.10236
vt 19.68504 29.13386
vt 15.74803 31.10236
vt 15.74803 29.13386
vt 1.614173 5.11811
vt -1.614173 5.11811
vt 1.614173 28.34646
vt -1.614173 28.34646
vt 19.68504 1.204231E-13
vt -19.68504 1.204231E-13
vt 1.614173 33.78238
vt -1.614173 33.78238
vt 1.968504 34.64584
vt -1.968504 34.64584
vt -17.04386 4.330709
vt -15.74803 4.330709
vt 19.68504 4.330709
vt 18.38921 4.330709
vt 19.68504 -18.38921
vt 19.68504 -18.78291
vt 1.614173 -18.38921
vt 1.614173 -18.78291
vt -1.614173 -18.38921
vt -1.614173 -18.78291
vt -19.68504 -18.38921
vt -19.68504 -18.78291
vt -19.68504 4.330709
vt -18.38921 4.330709
vt -1.614173 -16.65016
vt -1.614173 -17.04386
vt -19.68504 -16.65016
vt -19.68504 -17.04386
vt 19.68504 -16.65016
vt 19.68504 -17.04386
vt 1.614173 -16.65016
vt 1.614173 -17.04386
vt 19.68504 7.803553
vt 1.968504 7.803553
vt 19.68504 8.637791
vt 1.968504 8.637791
vt -1.968504 7.803553
vt -19.68504 7.803553
vt -1.968504 8.637791
vt -19.68504 8.637791
vt -1.968504 -3.901777
vt -19.68504 -3.901777
vt -1.968504 -3.06754
vt -19.68504 -3.06754
vt 19.68504 -3.901777
vt 1.968504 -3.901777
vt 19.68504 -3.06754
vt 1.968504 -3.06754
vt -19.68504 -16.02362
vt -1.968504 -17.04386
vt -1.968504 -16.02362
vt 1.968504 -17.04386
vt 1.968504 -16.02362
vt 19.68504 -16.02362
vt 19.68504 23.6974
vt 1.614173 23.6974
vt 19.68504 25.6659
vt 1.614173 25.6659
vt -1.614173 23.6974
vt -19.68504 23.6974
vt -1.614173 25.6659
vt -19.68504 25.6659
vt 19.68504 3.141462
vt 18.38921 3.141462
vt 19.33071 4.004915
vt 18.38921 4.004915
vt 1.968504 -19.40945
vt 1.968504 -18.38921
vt 19.68504 -19.40945
vt -19.68504 -19.40945
vt -1.968504 -19.40945
vt -1.968504 -18.38921
vt -19.68504 3.141462
vt -19.33071 4.004915
vt -18.38921 3.141462
vt -18.38921 4.004915
vt 17.04386 5.11811
vt 16.10236 5.11811
vt 16.10236 28.34646
vt 19.33071 28.34646
vt 19.33071 5.11811
vt 18.38921 5.11811
vt -1.968504 3.543307
vt -19.68504 3.543307
vt 19.68504 3.543307
vt 1.968504 3.543307

usemtl stone

f 3/3/1 2/2/1 1/1/1
f 2/2/1 3/3/1 4/4/1
f 4/4/1 3/3/1 5/5/1
f 5/5/1 3/3/1 6/6/1
f 4/4/1 5/5/1 7/7/1
f 8/8/1 7/7/1 5/5/1
f 9/9/1 7/7/1 8/8/1
f 9/9/1 8/8/1 10/10/1
f 9/9/1 10/10/1 11/11/1
f 9/9/1 12/12/1 7/7/1
f 13/13/1 12/12/1 9/9/1
f 12/12/1 13/13/1 14/14/1
f 17/17/2 16/16/2 15/15/2
f 16/16/2 17/17/2 18/18/2
f 18/18/2 17/17/2 19/19/2
f 19/19/2 17/17/2 20/20/2
f 19/19/2 20/20/2 21/21/2
f 20/20/2 17/17/2 22/22/2
f 22/22/2 17/17/2 23/23/2
f 24/24/2 21/21/2 20/20/2
f 25/25/2 21/21/2 24/24/2
f 25/25/2 24/24/2 26/26/2
f 27/27/2 21/21/2 25/25/2
f 21/21/2 27/27/2 28/28/2
f 11/14/3 17/15/3 9/13/3
f 17/15/3 11/14/3 29/29/3
f 23/16/3 17/15/3 29/29/3
f 29/29/3 11/14/3 30/30/3
f 29/29/3 30/30/3 31/31/3
f 31/31/3 30/30/3 32/32/3
f 35/35/4 34/34/4 33/33/4
f 34/34/4 35/35/4 36/36/4
f 17/39/5 13/38/5 9/37/5
f 13/38/5 17/39/5 15/40/5
f 37/43/6 31/42/6 32/41/6
f 31/42/6 37/43/6 38/44/6
f 35/47/7 40/46/7 39/45/7
f 40/46/7 35/47/7 33/48/7
f 32/50/1 42/8/1 41/49/1
f 42/8/1 32/50/1 43/10/1
f 43/10/1 32/50/1 30/11/1
f 36/53/2 45/52/2 44/51/2
f 45/52/2 36/53/2 46/54/2
f 45/57/8 48/56/8 47/55/8
f 48/56/8 45/57/8 46/58/8
f 51/61/2 50/60/2 49/59/2
f 50/60/2 51/61/2 52/28/2
f 52/28/2 51/61/2 53/21/2
f 54/27/2 50/60/2 52/28/2
f 50/60/2 54/27/2 34/62/2
f 34/62/2 54/27/2 55/25/2
f 34/62/2 55/25/2 38/63/2
f 56/26/2 38/63/2 55/25/2
f 57/24/2 38/63/2 56/26/2
f 38/63/2 57/24/2 58/64/2
f 48/67/3 36/66/3 35/65/3
f 36/66/3 48/67/3 46/68/3
f 37/71/9 41/70/9 59/69/9
f 41/70/9 37/71/9 32/72/9
f 49/75/10 61/74/10 60/73/10
f 61/74/10 49/75/10 62/76/10
f 31/79/11 58/78/11 63/77/11
f 58/78/11 31/79/11 38/80/11
f 50/83/12 36/82/12 44/81/12
f 36/82/12 50/83/12 34/84/12
f 45/67/13 39/66/13 44/65/13
f 39/66/13 45/67/13 47/68/13
f 48/87/1 39/86/1 47/85/1
f 39/86/1 48/87/1 35/88/1
f 33/91/3 38/90/3 37/89/3
f 38/90/3 33/91/3 34/92/3
f 16/14/13 13/94/13 15/93/13
f 13/94/13 16/14/13 64/29/13
f 14/16/13 13/94/13 64/29/13
f 64/29/13 16/14/13 65/30/13
f 64/29/13 65/30/13 61/31/13
f 61/31/13 65/30/13 60/32/13
f 44/97/14 40/96/14 50/95/14
f 40/96/14 44/97/14 39/98/14
f 67/22/2 63/99/2 66/20/2
f 63/99/2 67/22/2 31/100/2
f 31/100/2 67/22/2 29/23/2
f 61/101/1 68/12/1 64/14/1
f 68/12/1 61/101/1 69/102/1
f 68/12/1 69/102/1 70/7/1
f 71/105/5 2/104/5 4/103/5
f 2/104/5 71/105/5 72/106/5
f 21/109/5 52/108/5 53/107/5
f 52/108/5 21/109/5 28/110/5
f 73/18/2 60/111/2 65/16/2
f 60/111/2 73/18/2 74/112/2
f 74/112/2 73/18/2 75/19/2
f 26/115/5 57/114/5 56/113/5
f 57/114/5 26/115/5 24/116/5
f 76/119/5 5/118/5 6/117/5
f 5/118/5 76/119/5 77/120/5
f 10/123/15 30/122/15 11/121/15
f 30/122/15 10/123/15 43/124/15
f 67/127/15 23/126/15 29/125/15
f 23/126/15 67/127/15 22/128/15
f 68/131/16 14/130/16 64/129/16
f 14/130/16 68/131/16 12/132/16
f 18/135/16 65/134/16 16/133/16
f 65/134/16 18/135/16 73/136/16
f 42/138/8 10/137/8 8/116/8
f 10/137/8 42/138/8 43/139/8
f 20/118/8 67/141/8 66/140/8
f 67/141/8 20/118/8 22/142/8
f 27/145/13 52/144/13 28/143/13
f 52/144/13 27/145/13 54/146/13
f 78/149/13 2/148/13 72/147/13
f 2/148/13 78/149/13 1/150/13
f 62/153/9 69/152/9 61/151/9
f 69/152/9 62/153/9 79/154/9
f 18/157/8 75/156/8 73/155/8
f 75/156/8 18/157/8 19/103/8
f 68/159/8 7/109/8 12/158/8
f 7/109/8 68/159/8 70/160/8
f 78/108/8 3/115/8 1/110/8
f 3/115/8 78/108/8 80/113/8
f 27/104/8 55/119/8 54/106/8
f 55/119/8 27/104/8 25/117/8
f 55/149/3 26/148/3 56/147/3
f 26/148/3 55/149/3 25/150/3
f 3/145/3 76/144/3 6/143/3
f 76/144/3 3/145/3 80/146/3
f 74/163/11 49/162/11 60/161/11
f 49/162/11 74/163/11 51/164/11
f 76/6/1 59/165/1 77/5/1
f 59/165/1 76/6/1 37/166/1
f 37/166/1 76/6/1 33/167/1
f 80/3/1 33/167/1 76/6/1
f 78/1/1 33/167/1 80/3/1
f 78/1/1 40/168/1 33/167/1
f 40/168/1 78/1/1 62/169/1
f 72/2/1 62/169/1 78/1/1
f 62/169/1 72/2/1 79/170/1
f 79/170/1 72/2/1 71/4/1
f 50/91/13 62/90/13 49/89/13
f 62/90/13 50/91/13 40/92/13

usemtl stoneDark

f 63/31/3 20/172/3 66/171/3
f 20/172/3 63/31/3 24/148/3
f 24/148/3 63/31/3 58/90/3
f 24/148/3 58/90/3 57/147/3
f 21/143/13 75/174/13 19/173/13
f 75/174/13 21/143/13 74/32/13
f 74/32/13 21/143/13 51/89/13
f 51/89/13 21/143/13 53/144/13
f 5/143/3 42/174/3 8/173/3
f 42/174/3 5/143/3 41/32/3
f 41/32/3 5/143/3 59/89/3
f 59/89/3 5/143/3 77/144/3
f 69/31/13 7/172/13 70/171/13
f 7/172/13 69/31/13 4/148/13
f 4/148/13 69/31/13 79/90/13
f 4/148/13 79/90/13 71/147/13

