# Created by Kenney (www.kenney.nl)

mtllib trunk.mtl

g trunk

v 0.00380052 0.0648 -0.223074
v 0.196988 0.0648 -0.111537
v 0.00380052 0.2673 -0.1918436
v 0.1699421 0.2673 -0.09592182
v 0.2443527 0.1996512 -0.02417121
v 0.2443527 0.1996512 0.02417121
v 0.1779862 0.2070708 -0.0396252
v 0.1779862 0.2070708 0.03962439
v -0.162341 0.2673 -0.09592182
v -0.162341 0.2916 -0.09592182
v 0.00380052 0.2916 -0.1918436
v -0.1893869 0.0648 -0.111537
v 0.00380052 0.2673 -0.1522047
v -0.1280124 0.2673 -0.07610193
v 0.00380052 0.2916 -0.1522047
v -0.1280124 0.2916 -0.07610193
v 0.196988 0.0648 0.111537
v 0.00380052 0.0648 0.223074
v 0.1699421 0.2673 0.09592182
v 0.00380052 0.2673 0.1918436
v 0.2510368 0.1496062 -0.02803005
v 0.2510368 0.1496062 0.02803005
v 0.00380052 0 0.2754
v -0.2347032 0 0.1377
v -0.1893869 0.0648 0.111537
v -0.1280124 0.3726 -0.07610193
v -0.1280124 0.3726 0.07610193
v -0.162341 0.3726 -0.09592182
v -0.162341 0.3726 0.09592182
v 0.1699421 0.2835 0.09592182
v 0.1356134 0.2835 0.07610193
v 0.1699421 0.3645 0.09592182
v 0.1356134 0.3645 0.07610193
v 0.1889438 0.1250292 0.0459513
v -0.1807215 0.1296794 0.04088718
v -0.2510368 0.1538789 0.02453247
v -0.1710064 0.2024206 0.03527793
v -0.2452081 0.1975234 0.02116692
v 0.00380052 0.324 -0.1918436
v 0.00380052 0.324 -0.1522047
v 0.1699421 0.324 -0.09592182
v 0.1356134 0.324 -0.07610193
v 0.2423042 0 0.1377
v 0.2423042 0 -0.1377
v 0.00380052 0 -0.2754
v -0.2347032 0 -0.1377
v 0.1889438 0.1250292 -0.0459513
v 0.00380052 0.2835 0.1918436
v 0.00380052 0.2835 0.1522047
v -0.06083181 0.1935414 0.1659034
v -0.06083181 0.1385586 0.1743833
v -0.0930285 0.1917278 0.2048474
v -0.0930285 0.1532398 0.2107831
v 0.1699421 0.3645 -0.09592182
v 0.1356134 0.3645 -0.07610193
v -0.1075599 0.1935414 0.1389247
v -0.1257387 0.1917278 0.1859622
v 0.00380052 0.3078 0.1522047
v 0.00380052 0.3078 0.1918436
v -0.1280124 0.3078 0.07610193
v -0.162341 0.3078 0.09592182
v -0.1280124 0.2673 0.07610193
v 0.00380052 0.2673 0.1522047
v 0.1356134 0.2673 0.07610193
v 0.1356134 0.2673 -0.07610193
v -0.1710064 0.2024206 -0.03527793
v -0.2452081 0.1975234 -0.02116692
v -0.2510368 0.1538789 -0.02453247
v -0.1149042 0.1385586 0.1431643
v -0.130879 0.1532398 0.1889301
v -0.162341 0.2673 0.09592182
v -0.1807215 0.1296794 -0.04088718
v 0.09353062 0.2673 -0.05180549
v 0.09353062 0.2673 0.05180549
v 0.00380052 0.2673 -0.1036115
v 0.00380052 0.2673 0.1036115
v -0.08592958 0.2673 -0.05180549
v -0.08592958 0.2673 0.05180549

vn 0.4955994 0.1323859 -0.8584028
vn 0.1111051 0.9938087 0
vn -0.4999999 0 -0.8660255
vn -0.4955994 0.1323859 -0.8584028
vn 0.5000025 0 0.8660239
vn 0 1 0
vn 0.4955994 0.1323859 0.8584028
vn 0.9911981 0.1323865 0
vn -0.4097472 0.5730872 0.7097031
vn -0.5000049 0 0.8660226
vn 0.2367398 0.1060946 0.965763
vn -0.1922949 0.100954 0.9761307
vn -1 0 0
vn 0 -1 0
vn 0.3680296 -0.929814 0
vn 0.7647351 0.09821353 0.6368158
vn 1 0 0
vn 0.8194917 0.573091 0
vn -0.5000049 0 -0.8660226
vn -0.01818761 0.9993382 0.03150177
vn 0.4999999 0 0.8660255
vn 0.4999999 0 -0.8660255
vn 0.4097472 0.5730872 0.7097031
vn 0.5000025 0 -0.8660239
vn -0.5000025 0 -0.8660239
vn 0.5000049 0 -0.8660226
vn -0.06585605 0.9978291 0
vn -0.9911997 0.1323758 0
vn -0.8194917 0.573091 0
vn -0.1473044 -0.9556184 0.2551369
vn -0.4955984 0.1323832 0.8584037
vn 0.5000049 0 0.8660226
vn -0.4097472 0.5730872 -0.7097031
vn -0.9296386 0.0967545 -0.3555428
vn 0.4097472 0.5730872 -0.7097031
vn -0.1922949 0.100954 -0.9761307
vn -0.3254246 -0.945568 0
vn -0.5000025 0 0.8660239
vn 0.2367465 0.1060885 -0.9657621
vn -0.4999999 0 0.8660255
vn -0.9911985 0.1323842 0
vn 0.9911984 0.1323848 0
vn -0.4955996 0.1323861 0.8584026

vt 4.261642 1.51192
vt -4.520788 1.51192
vt 3.646871 9.555156
vt -3.90603 9.555155
vt 0.9516224 -8.687305
vt -0.9516224 -8.687305
vt 1.560047 -6.058172
vt -1.560015 -6.058172
vt 3.646872 10.52362
vt -3.906029 10.52362
vt 3.646872 11.48032
vt -3.906029 11.48032
vt 4.261626 1.531729
vt -4.520803 1.531728
vt 3.646869 9.574964
vt -3.906032 9.574964
vt 3.125751 10.52362
vt -2.866561 10.52362
vt 3.125751 11.48032
vt -2.866561 11.48032
vt -0.1496268 -7.552899
vt -0.1496268 -5.99231
vt 6.391378 -3.77645
vt 5.039858 -2.996139
vt 4.520788 1.51192
vt -4.261642 1.51192
vt 3.90603 9.555155
vt -3.646871 9.555156
vt 1.103545 4.529744
vt -1.103545 4.529744
vt 0.9516224 6.517517
vt -0.9516224 6.517517
vt 5.55084 -5.338355
vt -5.291689 -5.338358
vt 4.520801 -2.225243
vt -4.261629 -2.225239
vt 5.039858 2.996139
vt 6.391378 3.77645
vt 7.682482 11.16142
vt 6.121876 11.16142
vt 7.682482 14.35039
vt 6.121876 14.35039
vt 6.794112 4.520311
vt 6.434417 7.768632
vt 9.336405 5.493404
vt 9.116988 7.474863
vt -6.669722 4.781126
vt -9.51029 5.738758
vt -6.337132 7.659661
vt -9.310749 7.465866
vt -7.552899 11.48032
vt -7.552899 12.75591
vt -5.99231 11.48032
vt -5.99231 12.75591
vt -6.690632 -3.77645
vt -5.339112 -2.996139
vt 9.539536 5.42126
vt 9.539536 -5.42126
vt 0.1496268 10.84252
vt 0.1496268 -10.84252
vt -9.240282 5.42126
vt -9.240282 -5.42126
vt -1.103545 11.35737
vt 1.103545 11.35737
vt -1.809106 8.728231
vt 1.809106 8.728231
vt -6.690632 3.77645
vt -0.1496268 7.552899
vt -5.339112 2.996139
vt -0.1496268 5.99231
vt -6.551786 7.353156
vt -6.808336 5.177962
vt -8.541136 7.281407
vt -8.720714 5.758772
vt 3.77645 14.35039
vt 3.77645 12.75591
vt -3.77645 14.35039
vt 3.77645 10.52362
vt -3.77645 10.52362
vt -3.77645 11.16142
vt 5.42126 -5.467022
vt -5.42126 -5.467022
vt 4.391221 -2.353896
vt -4.391221 -2.353896
vt -6.121876 12.75591
vt -7.682482 12.75591
vt -6.121876 14.35039
vt -7.682482 14.35039
vt 1.191733 -6.572327
vt 0.8605878 -8.535234
vt -0.93256 -6.572323
vt -0.6264384 -8.535239
vt 3.906034 10.52362
vt -3.646868 10.52362
vt 3.906034 11.16142
vt -3.646868 11.16142
vt 3.646868 10.52362
vt -3.906034 10.52362
vt 3.646868 11.48032
vt -3.906034 12.75591
vt 3.646868 12.75591
vt 5.550851 -5.424107
vt -5.291679 -5.424104
vt 4.520791 -2.310988
vt -4.26164 -2.310992
vt 2.866561 10.52362
vt -3.125751 10.52362
vt 2.866561 12.11811
vt -3.125751 11.16142
vt -3.125751 12.11811
vt 2.996139 14.66929
vt 2.996139 11.48032
vt -2.996139 14.66929
vt 2.996139 10.52362
vt -2.996139 10.52362
vt -2.996139 12.11811
vt 2.86659 10.52362
vt -3.125721 10.52362
vt 2.86659 11.16142
vt -3.125721 11.16142
vt -2.996139 12.75591
vt -2.996139 14.35039
vt 2.996139 14.35039
vt 2.996139 11.16142
vt 7.423321 11.48032
vt 5.862715 11.48032
vt 7.423321 14.66929
vt 5.862715 14.66929
vt -1.388895 -6.193092
vt 1.388895 -6.193092
vt -0.8333433 -9.120773
vt 0.8333433 -9.120773
vt -0.9658453 4.696596
vt -0.8333433 6.430136
vt 0.9658453 4.696596
vt 0.8333433 6.430136
vt -5.42126 -5.295523
vt -4.391221 -2.182397
vt 5.42126 -5.295523
vt 4.391221 -2.182397
vt 1.358673 8.433232
vt -1.099498 8.433228
vt 0.9774482 10.39517
vt -0.7432597 10.39517
vt -5.99231 12.11811
vt -5.99231 11.16142
vt -7.552899 12.11811
vt -7.552899 11.16142
vt 0.9774109 4.786131
vt -0.743297 4.786131
vt 0.860567 6.31486
vt -0.6264592 6.31486
vt -5.862715 12.11811
vt -7.423321 12.11811
vt -5.862715 14.66929
vt -7.423321 14.66929
vt 5.291689 -5.338358
vt -5.55084 -5.338355
vt 4.261629 -2.225239
vt -4.520801 -2.225243
vt 6.621299 7.390342
vt 8.606647 7.318603
vt 6.880485 5.215459
vt 8.788073 5.796187
vt -3.77645 11.48032
vt -3.77645 14.66929
vt 3.77645 14.66929
vt 3.77645 12.11811
vt 5.291679 -5.424104
vt -5.550851 -5.424107
vt 4.26164 -2.310992
vt -4.520791 -2.310988
vt 6.669722 4.781126
vt 6.337132 7.659661
vt 9.51029 5.738758
vt 9.310749 7.465866
vt 1.609732 8.389188
vt -1.609732 8.389188
vt 0.9658453 11.31686
vt -0.9658453 11.31686
vt 3.125721 10.52362
vt -2.86659 10.52362
vt 3.125721 12.75591
vt -2.86659 11.48032
vt -2.86659 12.75591
vt -6.794088 4.520331
vt -9.336382 5.493422
vt -6.434388 7.768649
vt -9.116966 7.474881
vt 3.906029 10.52362
vt -3.646872 10.52362
vt 3.906029 11.16142
vt -3.646872 12.11811
vt 3.906029 12.11811
vt -3.682308 -2.039586
vt -3.682308 2.039586
vt -0.1496268 -4.079194
vt -0.1496268 4.079194
vt 3.383054 -2.039586
vt 3.383054 2.039586
vt -3.776449 9.584881
vt -1.609731 4.118635
vt -4.391221 1.541647
vt 4.391221 1.541647
vt -1.388895 7.007893
vt 1.609732 4.118635
vt 3.77645 9.584881
vt 1.388895 7.007893
vt -1.560015 7.152977
vt -3.77645 9.545259
vt 1.560047 7.152977
vt -1.809106 3.894308
vt 3.776449 9.545259
vt -4.391221 1.502026
vt 1.809106 3.894308
vt 4.391221 1.502026
vt -4.261625 1.531727
vt 1.358656 4.461394
vt 4.520805 1.531726
vt 3.906034 9.574963
vt -1.099516 4.461395
vt 1.191728 6.645294
vt -3.646868 9.574962
vt -0.9325648 6.645295

usemtl woodDark

f 3/3/1 2/2/1 1/1/1
f 2/2/1 3/3/1 4/4/1
f 7/7/2 6/6/2 5/5/2
f 6/6/2 7/7/2 8/8/2
f 10/11/3 3/10/3 9/9/3
f 3/10/3 10/11/3 11/12/3
f 9/15/4 1/14/4 12/13/4
f 1/14/4 9/15/4 3/16/4
f 15/19/5 14/18/5 13/17/5
f 14/18/5 15/19/5 16/20/5
f 10/23/6 15/22/6 11/21/6
f 15/22/6 10/23/6 16/24/6
f 19/27/7 18/26/7 17/25/7
f 18/26/7 19/27/7 20/28/7
f 5/31/8 22/30/8 21/29/8
f 22/30/8 5/31/8 6/32/8
f 18/35/9 24/34/9 23/33/9
f 24/34/9 18/35/9 25/36/9
f 28/23/6 27/37/6 26/24/6
f 27/37/6 28/23/6 29/38/6
f 32/41/10 31/40/10 30/39/10
f 31/40/10 32/41/10 33/42/10
f 22/45/11 8/44/11 34/43/11
f 8/44/11 22/45/11 6/46/11
f 37/49/12 36/48/12 35/47/12
f 36/48/12 37/49/12 38/50/12
f 15/53/13 39/52/13 11/51/13
f 39/52/13 15/53/13 40/54/13
f 39/21/6 42/56/6 41/55/6
f 42/56/6 39/21/6 40/22/6
f 23/59/14 44/58/14 43/57/14
f 44/58/14 23/59/14 45/60/14
f 45/60/14 23/59/14 24/61/14
f 45/60/14 24/61/14 46/62/14
f 34/65/15 21/64/15 22/63/15
f 21/64/15 34/65/15 47/66/15
f 31/69/6 48/68/6 30/67/6
f 48/68/6 31/69/6 49/70/6
f 52/73/16 51/72/16 50/71/16
f 51/72/16 52/73/16 53/74/16
f 32/77/17 41/76/17 54/75/17
f 41/76/17 32/77/17 4/78/17
f 4/78/17 32/77/17 19/79/17
f 19/79/17 32/77/17 30/80/17
f 2/83/18 43/82/18 44/81/18
f 43/82/18 2/83/18 17/84/18
f 55/87/19 41/86/19 42/85/19
f 41/86/19 55/87/19 54/88/19
f 56/91/20 52/90/20 50/89/20
f 52/90/20 56/91/20 57/92/20
f 30/95/21 20/94/21 19/93/21
f 20/94/21 30/95/21 48/96/21
f 11/99/22 4/98/22 3/97/22
f 4/98/22 11/99/22 41/100/22
f 41/100/22 11/99/22 39/101/22
f 55/56/6 32/67/6 54/55/6
f 32/67/6 55/56/6 33/69/6
f 17/104/23 23/103/23 43/102/23
f 23/103/23 17/104/23 18/105/23
f 60/37/6 59/68/6 58/70/6
f 59/68/6 60/37/6 61/38/6
f 60/108/24 63/107/24 62/106/24
f 63/107/24 60/108/24 49/109/24
f 49/109/24 60/108/24 58/110/24
f 27/113/17 16/112/17 26/111/17
f 16/112/17 27/113/17 14/114/17
f 14/114/17 27/113/17 62/115/17
f 62/115/17 27/113/17 60/116/17
f 49/119/25 64/118/25 63/117/25
f 64/118/25 49/119/25 31/120/25
f 64/114/13 42/121/13 65/115/13
f 42/121/13 64/114/13 55/122/13
f 55/122/13 64/114/13 33/123/13
f 33/123/13 64/114/13 31/124/13
f 28/127/26 16/126/26 10/125/26
f 16/126/26 28/127/26 26/128/26
f 67/131/27 37/130/27 66/129/27
f 37/130/27 67/131/27 38/132/27
f 36/135/28 67/134/28 68/133/28
f 67/134/28 36/135/28 38/136/28
f 24/139/29 12/138/29 46/137/29
f 12/138/29 24/139/29 25/140/29
f 53/143/30 69/142/30 51/141/30
f 69/142/30 53/143/30 70/144/30
f 59/147/17 49/146/17 58/145/17
f 49/146/17 59/147/17 48/148/17
f 52/151/31 70/150/31 53/149/31
f 70/150/31 52/151/31 57/152/31
f 27/155/32 61/154/32 60/153/32
f 61/154/32 27/155/32 29/156/32
f 12/159/33 45/158/33 46/157/33
f 45/158/33 12/159/33 1/160/33
f 69/163/34 57/162/34 56/161/34
f 57/162/34 69/163/34 70/164/34
f 71/78/13 10/165/13 9/79/13
f 10/165/13 71/78/13 28/166/13
f 28/166/13 71/78/13 29/167/13
f 29/167/13 71/78/13 61/168/13
f 1/171/35 44/170/35 45/169/35
f 44/170/35 1/171/35 2/172/35
f 68/175/36 66/174/36 72/173/36
f 66/174/36 68/175/36 67/176/36
f 36/179/37 72/178/37 35/177/37
f 72/178/37 36/179/37 68/180/37
f 42/183/38 13/182/38 65/181/38
f 13/182/38 42/183/38 15/184/38
f 15/184/38 42/183/38 40/185/38
f 7/188/39 21/187/39 47/186/39
f 21/187/39 7/188/39 5/189/39
f 48/192/40 71/191/40 20/190/40
f 71/191/40 48/192/40 61/193/40
f 61/193/40 48/192/40 59/194/40
f 75/197/6 74/196/6 73/195/6
f 74/196/6 75/197/6 76/198/6
f 76/198/6 75/197/6 77/199/6
f 76/198/6 77/199/6 78/200/6
f 12/203/41 72/202/41 9/201/41
f 72/202/41 12/203/41 25/204/41
f 66/205/41 9/201/41 72/202/41
f 72/202/41 25/204/41 35/206/41
f 9/201/41 66/205/41 71/207/41
f 35/206/41 25/204/41 71/207/41
f 71/207/41 66/205/41 37/208/41
f 71/207/41 37/208/41 35/206/41
f 7/211/42 19/210/42 8/209/42
f 8/209/42 19/210/42 34/212/42
f 7/211/42 4/213/42 19/210/42
f 17/214/42 34/212/42 19/210/42
f 4/213/42 7/211/42 47/215/42
f 17/214/42 47/215/42 34/212/42
f 47/215/42 2/216/42 4/213/42
f 2/216/42 47/215/42 17/214/42
f 18/219/43 51/218/43 25/217/43
f 51/218/43 18/219/43 20/220/43
f 69/221/43 25/217/43 51/218/43
f 51/218/43 20/220/43 50/222/43
f 25/217/43 69/221/43 71/223/43
f 50/222/43 20/220/43 56/224/43
f 71/223/43 69/221/43 56/224/43
f 71/223/43 56/224/43 20/220/43

usemtl wood

f 75/197/6 14/24/6 77/199/6
f 77/199/6 14/24/6 78/200/6
f 75/197/6 13/22/6 14/24/6
f 62/37/6 78/200/6 14/24/6
f 73/195/6 13/22/6 75/197/6
f 73/195/6 65/56/6 13/22/6
f 65/56/6 73/195/6 64/69/6
f 74/196/6 64/69/6 73/195/6
f 63/70/6 78/200/6 62/37/6
f 64/69/6 74/196/6 63/70/6
f 63/70/6 76/198/6 78/200/6
f 63/70/6 74/196/6 76/198/6

