# Created by Kenney (www.kenney.nl)

mtllib urn.mtl

g urn

v -0.0714 0.14 -0.0714
v 0.0714 0.14 -0.0714
v -0.087108 0.27 -0.087108
v 0.087108 0.27 -0.087108
v -0.087108 0.27 0.087108
v -0.0714 0.14 0.0714
v 0.087108 0.27 0.087108
v 0.0714 0.14 0.0714
v 0.075 0 0.075
v 0.075 0 -0.075
v -0.075 0 0.075
v -0.075 0 -0.075
v -0.041954 0.11 -0.041954
v 0.041954 0.11 -0.041954
v 0.087108 0.31 -0.087108
v 0.087108 0.31 0.087108
v -0.041954 0.11 0.041954
v -0.087108 0.31 0.087108
v 0.075 0.04 -0.075
v 0.075 0.04 0.075
v 0.041954 0.11 0.041954
v -0.075 0.04 -0.075
v -0.0614 0.06 -0.0614
v -0.075 0.04 0.075
v -0.0614 0.06 0.0614
v 0.0614 0.06 -0.0614
v 0.0614 0.06 0.0614
v -0.087108 0.31 -0.087108
v 0.03608044 0.06 0.03608044
v -0.03608044 0.06 0.03608044
v -0.03608044 0.06 -0.03608044
v 0.03608044 0.06 -0.03608044
v 0.068247 0.31 -0.068247
v 0.068247 0.31 0.068247
v -0.068247 0.31 -0.068247
v -0.068247 0.31 0.068247
v 0.068247 0.17 -0.068247
v 0.068247 0.17 0.068247
v -0.068247 0.17 -0.068247
v -0.068247 0.17 0.068247

vn 0 -0.1199582 -0.992779
vn -0.992779 -0.1199582 0
vn 0.992779 -0.1199582 0
vn 0 -1 0
vn 0 -0.7004866 -0.7136657
vn 1 0 0
vn -0.7136657 -0.7004866 0
vn 0 0 1
vn 0 -0.1199582 0.992779
vn 0.7136657 -0.7004866 0
vn -0.8269265 0.56231 0
vn 0.8269265 0.56231 0
vn -1 0 0
vn 0 0.56231 0.8269265
vn 0 -0.7004866 0.7136657
vn 0 0.56231 -0.8269265
vn 0 0 -1
vn 0 -0.116669 0.9931709
vn 0 -0.116669 -0.9931709
vn -0.9931709 -0.116669 0
vn 0.9931709 -0.116669 0
vn 0 1 0

vt 2.811024 5.809216
vt -2.811024 5.809216
vt 3.429449 10.96455
vt -3.429449 10.96455
vt 2.952756 2.952756
vt 2.952756 -2.952756
vt -2.952756 2.952756
vt -2.952756 -2.952756
vt 1.651732 4.247694
vt -1.651732 4.247694
vt 2.811024 5.902674
vt -2.811024 5.902674
vt 3.429449 12.20472
vt 3.429449 10.62992
vt -3.429449 12.20472
vt -3.429449 10.62992
vt 2.952756 1.574803
vt 2.952756 0
vt -2.952756 1.574803
vt -2.952756 0
vt -2.952756 -0.3581178
vt -2.417323 0.5940849
vt 2.952756 -0.3581178
vt 2.417323 0.5940849
vt 1.42049 2.5118
vt -1.42049 2.5118
vt 1.651732 4.49384
vt -1.651732 4.49384
vt 1.42049 -1.42049
vt 2.417323 -2.417323
vt -1.42049 -1.42049
vt 1.42049 1.42049
vt -2.417323 -2.417323
vt 2.417323 2.417323
vt -2.417323 2.417323
vt -1.42049 1.42049
vt -3.429449 3.429449
vt -2.68689 -2.68689
vt -3.429449 -3.429449
vt 3.429449 -3.429449
vt -2.68689 2.68689
vt 2.68689 -2.68689
vt 3.429449 3.429449
vt 2.68689 2.68689
vt -2.68689 6.692914
vt -2.68689 12.20472
vt 2.68689 6.692914
vt 2.68689 12.20472

usemtl metal

f 3/3/1 2/2/1 1/1/1
f 2/2/1 3/3/1 4/4/1
f 1/2/2 5/3/2 3/4/2
f 5/3/2 1/2/2 6/1/2
f 7/4/3 2/1/3 4/3/3
f 2/1/3 7/4/3 8/2/3
f 11/7/4 10/6/4 9/5/4
f 10/6/4 11/7/4 12/8/4
f 1/11/5 14/10/5 13/9/5
f 14/10/5 1/11/5 2/12/5
f 16/15/6 4/14/6 15/13/6
f 4/14/6 16/15/6 7/16/6
f 13/10/7 6/11/7 1/12/7
f 6/11/7 13/10/7 17/9/7
f 16/13/8 5/16/8 7/14/8
f 5/16/8 16/13/8 18/15/8
f 20/19/6 10/18/6 19/17/6
f 10/18/6 20/19/6 9/20/6
f 7/3/9 6/2/9 8/1/9
f 6/2/9 7/3/9 5/4/9
f 8/12/10 14/9/10 2/11/10
f 14/9/10 8/12/10 21/10/10
f 24/23/11 23/22/11 22/21/11
f 23/22/11 24/23/11 25/24/11
f 26/24/12 20/21/12 19/23/12
f 20/21/12 26/24/12 27/22/12
f 20/17/8 11/20/8 9/18/8
f 11/20/8 20/17/8 24/19/8
f 11/18/13 22/19/13 12/20/13
f 22/19/13 11/18/13 24/17/13
f 27/24/14 24/21/14 20/23/14
f 24/21/14 27/24/14 25/22/14
f 8/11/15 17/10/15 21/9/15
f 17/10/15 8/11/15 6/12/15
f 23/24/16 19/21/16 22/23/16
f 19/21/16 23/24/16 26/22/16
f 22/17/17 10/20/17 12/18/17
f 10/20/17 22/17/17 19/19/17
f 5/14/13 28/15/13 3/16/13
f 28/15/13 5/14/13 18/13/13
f 28/13/17 4/16/17 3/14/17
f 4/16/17 28/13/17 15/15/17
f 21/27/18 30/26/18 29/25/18
f 30/26/18 21/27/18 17/28/18
f 13/27/19 32/26/19 31/25/19
f 32/26/19 13/27/19 14/28/19
f 31/26/20 17/27/20 13/28/20
f 17/27/20 31/26/20 30/25/20
f 21/28/21 32/25/21 14/27/21
f 32/25/21 21/28/21 29/26/21
f 32/31/22 23/30/22 31/29/22
f 31/29/22 23/30/22 30/32/22
f 32/31/22 26/33/22 23/30/22
f 25/34/22 30/32/22 23/30/22
f 26/33/22 32/31/22 27/35/22
f 25/34/22 29/36/22 30/32/22
f 27/35/22 29/36/22 25/34/22
f 29/36/22 27/35/22 32/31/22
f 15/39/22 33/38/22 16/37/22
f 33/38/22 15/39/22 28/40/22
f 34/41/22 16/37/22 33/38/22
f 33/38/22 28/40/22 35/42/22
f 16/37/22 34/41/22 18/43/22
f 35/42/22 28/40/22 36/44/22
f 18/43/22 34/41/22 36/44/22
f 18/43/22 36/44/22 28/40/22

usemtl stone

f 38/47/13 33/46/13 37/45/13
f 33/46/13 38/47/13 34/48/13
f 33/48/8 39/45/8 37/47/8
f 39/45/8 33/48/8 35/46/8
f 36/46/6 39/47/6 35/48/6
f 39/47/6 36/46/6 40/45/6
f 36/48/17 38/45/17 40/47/17
f 38/45/17 36/48/17 34/46/17
f 39/42/22 38/41/22 37/38/22
f 38/41/22 39/42/22 40/44/22

g lid

v 0.087108 0.33 -0.087108
v 0.087108 0.33 0.087108
v 0.071429 0.34 -0.071429
v 0.071429 0.34 0.071429
v -0.071429 0.34 -0.071429
v -0.071429 0.34 0.071429
v -0.087108 0.33 -0.087108
v -0.087108 0.33 0.087108
v 0.04017036 0.34 -0.04017036
v 0.04017036 0.34 0.04017036
v -0.04017036 0.34 -0.04017036
v -0.04017036 0.34 0.04017036
v -0.02039541 0.37 -0.02039541
v -0.02039541 0.37 0.02039541
v -0.017139 0.34 -0.017139
v -0.017139 0.34 0.017139
v 0.017139 0.34 -0.017139
v 0.02039541 0.37 -0.02039541
v 0.02039541 0.37 0.02039541
v 0.017139 0.34 0.017139
v 0.01366492 0.39 -0.01366492
v 0.01366492 0.39 0.01366492
v -0.01366492 0.39 -0.01366492
v -0.01366492 0.39 0.01366492

vn 0.5377346 0.8431141 0
vn -0.5377346 0.8431141 0
vn 0 0.8431141 -0.5377346
vn 0 0.8431141 0.5377346
vn -0.9941604 -0.1079131 0
vn 0 -0.1079131 -0.9941604
vn 0.9941604 -0.1079131 0
vn 0 -0.1079131 0.9941604
vn 0 0.3189483 -0.9477721
vn 0 0.3189483 0.9477721
vn -0.9477721 0.3189483 0
vn 0.9477721 0.3189483 0

vt 3.429449 -2.468004
vt -3.429449 -2.468004
vt 2.812165 -1.735857
vt -2.812165 -1.735857
vt 3.429449 0
vt -3.429449 0
vt 3.429449 0.7874016
vt -3.429449 0.7874016
vt -2.812165 2.812165
vt -1.58151 -1.58151
vt -2.812165 -2.812165
vt 2.812165 -2.812165
vt -1.58151 1.58151
vt 1.58151 -1.58151
vt 2.812165 2.812165
vt 1.58151 1.58151
vt -0.8029689 2.435061
vt 0.8029689 2.435061
vt -0.6747638 1.247021
vt 0.6747638 1.247021
vt -0.5379891 -0.5379891
vt -0.5379891 0.5379891
vt 0.5379891 -0.5379891
vt 0.5379891 0.5379891
vt 0.8029689 1.982726
vt -0.8029689 1.982726
vt 0.5379891 2.813518
vt -0.5379891 2.813518
vt -0.6747638 -0.6747638
vt -0.6747638 0.6747638
vt 0.6747638 -0.6747638
vt 0.6747638 0.6747638

usemtl metal

f 18/37/4 15/40/4 16/43/4
f 15/40/4 18/37/4 28/39/4
f 43/51/23 42/50/23 41/49/23
f 42/50/23 43/51/23 44/52/23
f 47/50/24 46/51/24 45/52/24
f 46/51/24 47/50/24 48/49/24
f 47/49/25 43/52/25 41/50/25
f 43/52/25 47/49/25 45/51/25
f 44/51/26 48/50/26 42/49/26
f 48/50/26 44/51/26 46/52/26
f 47/55/17 15/54/17 28/53/17
f 15/54/17 47/55/17 41/56/17
f 18/53/13 47/56/13 28/54/13
f 47/56/13 18/53/13 48/55/13
f 42/55/8 18/54/8 16/53/8
f 18/54/8 42/55/8 48/56/8
f 42/56/6 15/53/6 41/55/6
f 15/53/6 42/56/6 16/54/6
f 43/59/22 49/58/22 44/57/22
f 49/58/22 43/59/22 45/60/22
f 50/61/22 44/57/22 49/58/22
f 49/58/22 45/60/22 51/62/22
f 44/57/22 50/61/22 46/63/22
f 51/62/22 45/60/22 52/64/22
f 46/63/22 50/61/22 52/64/22
f 46/63/22 52/64/22 45/60/22

usemtl stone

f 55/67/27 54/66/27 53/65/27
f 54/66/27 55/67/27 56/68/27
f 53/66/28 57/67/28 55/68/28
f 57/67/28 53/66/28 58/65/28
f 59/65/29 57/68/29 58/66/29
f 57/68/29 59/65/29 60/67/29
f 59/66/30 56/67/30 60/68/30
f 56/67/30 59/66/30 54/65/30
f 63/71/22 62/70/22 61/69/22
f 62/70/22 63/71/22 64/72/22
f 63/75/31 58/74/31 53/73/31
f 58/74/31 63/75/31 61/76/31
f 62/75/32 54/74/32 59/73/32
f 54/74/32 62/75/32 64/76/32
f 54/73/33 63/76/33 53/74/33
f 63/76/33 54/73/33 64/75/33
f 61/75/34 59/74/34 58/73/34
f 59/74/34 61/75/34 62/76/34
f 49/58/22 57/77/22 50/61/22
f 57/77/22 49/58/22 51/62/22
f 60/78/22 50/61/22 57/77/22
f 57/77/22 51/62/22 55/79/22
f 50/61/22 60/78/22 52/64/22
f 55/79/22 51/62/22 56/80/22
f 52/64/22 60/78/22 56/80/22
f 52/64/22 56/80/22 51/62/22

